<svg width="40" height="50" viewBox="0 0 40 50" fill="none" xmlns="http://www.w3.org/2000/svg">
<path d="M19.9895 0C8.9702 0 0 8.99371 0 20.0419C0 21.2998 0.115002 22.5681 0.355462 23.805C0.365917 23.8784 0.407737 24.0985 0.491375 24.4759C0.794564 25.8281 1.24412 27.1593 1.82959 28.4277C3.98327 33.5115 8.71929 41.3208 19.1113 49.6855C19.3727 49.8952 19.6864 50 20 50C20.3136 50 20.6273 49.8952 20.8887 49.6855C31.2703 41.3208 36.0167 33.5115 38.1704 28.4277C38.7559 27.1593 39.2054 25.8386 39.5086 24.4759C39.5923 24.0985 39.6341 23.8784 39.6445 23.805C39.8745 22.5681 40 21.2998 40 20.0419C39.9791 8.99371 31.0089 0 19.9895 0ZM36.8427 23.3124C36.8427 23.3333 36.8322 23.3543 36.8322 23.3753C36.8217 23.4277 36.7904 23.5849 36.7381 23.826C36.7381 23.8365 36.7381 23.8365 36.7381 23.847C36.4767 25.021 36.0899 26.1635 35.5776 27.2642C35.5672 27.2746 35.5672 27.2956 35.5567 27.3061C33.6017 31.9497 29.3152 39.0356 19.9895 46.761C10.6639 39.0356 6.37742 31.9497 4.42237 27.3061C4.41192 27.2956 4.41192 27.2746 4.40146 27.2642C3.89963 26.174 3.51281 25.021 3.24098 23.847C3.24098 23.8365 3.24098 23.8365 3.24098 23.826C3.17825 23.5849 3.15734 23.4277 3.14689 23.3753C3.14689 23.3543 3.13643 23.3333 3.13643 23.3019C2.92734 22.2222 2.82279 21.1321 2.82279 20.0314C2.82279 10.5451 10.528 2.81971 19.9895 2.81971C29.4511 2.81971 37.1563 10.5451 37.1563 20.0314C37.1563 21.1426 37.0518 22.2432 36.8427 23.3124Z" fill="black"/>
<path d="M19.989 7.53589C12.9947 7.53589 7.29688 13.2487 7.29688 20.2613C7.29688 27.2738 12.9947 32.9866 19.989 32.9866C26.9832 32.9866 32.6811 27.2738 32.6811 20.2613C32.6811 13.2487 26.9832 7.53589 19.989 7.53589ZM19.989 30.1564C14.542 30.1564 10.1197 25.712 10.1197 20.2613C10.1197 14.8105 14.5525 10.3661 19.989 10.3661C25.4255 10.3661 29.8583 14.8105 29.8583 20.2613C29.8583 25.712 25.4359 30.1564 19.989 30.1564Z" fill="black"/>
</svg>
