<svg width="44" height="51" viewBox="0 0 44 51" fill="none" xmlns="http://www.w3.org/2000/svg">
<path d="M35.9965 41.07L34.9414 41V39C34.9414 37.343 33.6045 36 31.955 36H12.0457C10.3962 36 9.05932 37.343 9.05932 39V41L8.00417 41.12C4.06716 41.649 1.12055 45.01 1.0957 49V59.9999H42.9051V48.9999C42.905 44.9909 39.9515 41.601 35.9965 41.07Z" fill="#E56B2E"/>
<path d="M21.9996 47.0005C19.3048 47.0005 16.7505 45.7945 15.0314 43.7104V60.0004H28.9679V43.7104C27.2486 45.7944 24.6943 47.0005 21.9996 47.0005Z" fill="#EBEBEB"/>
<path d="M28.729 40.2102C27.7235 40.0882 26.97 39.2272 26.9769 38.2102V31.0002H17.0223V38.2203C17.0293 39.2372 16.2757 40.0983 15.2703 40.2203H15.0314V43.6903C18.2198 47.5563 23.9238 48.0943 27.7723 44.8914C28.2073 44.5294 28.6074 44.1274 28.9679 43.6903V40.2403L28.729 40.2102Z" fill="#FEDAC6"/>
<path d="M19.0132 46.4905C17.4563 45.9494 16.0786 44.9874 15.0314 43.7104V60.0004H19.0132V46.4905Z" fill="#DBDBDB"/>
<path d="M1.0957 49.0005V60.0005H5.07751V42.0906C2.61876 43.5166 1.10165 46.1485 1.0957 49.0005Z" fill="#D65B25"/>
<path d="M31.9545 22.9997H33.9455C35.595 22.9997 36.9319 21.6568 36.9319 19.9997C36.9319 18.3427 35.595 16.9998 33.9455 16.9998H32.9501" fill="#FEDAC6"/>
<path d="M12.044 22.9997H10.053C8.40352 22.9997 7.06665 21.6568 7.06665 19.9997C7.06665 18.3427 8.40352 16.9998 10.053 16.9998H11.0485" fill="#F5C4B0"/>
<path d="M32.9487 11.0003H13.0394C9.74051 11.0003 7.06665 8.31424 7.06665 5.00031H11.0485C9.39895 5.00031 8.06207 3.65734 8.06207 2.00032V1.00024H22.994C28.492 1.00024 32.9487 5.47726 32.9487 11.0003Z" fill="#FECB66"/>
<path d="M11.0494 10.9998V20.9997L11.2883 24.1197C11.796 30.0676 17.0083 34.4767 22.9293 33.9667C23.2519 33.9387 23.5724 33.8967 23.8909 33.8396C28.7956 32.8867 32.4359 28.7187 32.7405 23.7096L32.9496 20.9997V10.9998H11.0494Z" fill="#FEDAC6"/>
<path d="M15.0312 22.3497V9.99976H11.0494V20.9998L11.2883 24.1197C11.6388 28.3817 14.4739 32.0278 18.5055 33.3997L16.6539 29.2696C15.5866 27.1208 15.0312 24.7517 15.0312 22.3497Z" fill="#F5C4B0"/>
<path d="M15.0312 9.99976C15.0701 12.8868 13.5451 15.5678 11.0494 16.9997V9.99976H15.0312Z" fill="#F5AD76"/>
<path d="M32.9497 16.9997C32.9497 16.9997 28.9679 14.9997 28.9679 10.9998H32.9497V16.9997Z" fill="#FECB66"/>
<path d="M26.9765 36.0005V33.0005H17.022V36.0005C20.7548 38.0005 23.2436 38.0005 26.9765 36.0005Z" fill="#F5C4B0"/>
<path d="M7.06665 5.00073C7.29565 8.21377 9.84096 10.7707 13.0394 11.0007H31.9532C23.4907 9.77763 15.1598 7.76963 7.06665 5.00073Z" fill="#F5AD76"/>
<path d="M15.3103 40.37C15.4845 40.065 15.7304 39.8071 16.027 39.62C16.6462 39.2331 17.0224 38.552 17.0224 37.82V36H12.8813C10.7649 35.997 9.04576 37.717 9.04273 39.844C9.04168 40.612 9.26869 41.363 9.69577 42L10.9103 43.82C11.859 42.125 13.4438 40.883 15.3103 40.37Z" fill="#D65B25"/>
<path d="M32.9505 12.0002H13.0412C9.19867 12.0002 6.073 8.86017 6.073 5.00026C6.073 4.44831 6.51897 4.00031 7.06842 4.00031H7.60294C7.26254 3.41121 7.06842 2.72824 7.06842 2.00028V1.0002C7.06842 0.44825 7.5144 0.000244141 8.06384 0.000244141H22.9958C29.0333 0.000244141 33.9459 4.93522 33.9459 11.0002C33.9459 11.5522 33.501 12.0002 32.9505 12.0002ZM8.1644 6.00022C8.62624 8.27916 10.6381 10.0002 13.0412 10.0002H31.8992C31.4024 5.50628 27.5998 2.00028 22.9958 2.00028H9.05938C9.05938 3.10324 9.95227 4.00031 11.0503 4.00031C11.5998 4.00031 12.0458 4.44831 12.0458 5.00026C12.0458 5.55221 11.5998 6.00022 11.0503 6.00022H8.1644Z" fill="black"/>
<path d="M11.4944 17.8947L10.6035 16.1057L11.0495 16.9997L10.6016 16.1068C10.6354 16.0887 14.0359 14.3158 14.0359 10.9998H16.0267C16.0267 15.5647 11.6796 17.8007 11.4944 17.8947Z" fill="black"/>
<path d="M32.5049 17.8947C32.3198 17.8007 27.9726 15.5647 27.9726 10.9998H29.9636C29.9636 14.3158 33.363 16.0887 33.3979 16.1068L32.5049 17.8947Z" fill="black"/>
<path d="M22.9954 24.0006H20.009C19.6786 24.0006 19.37 23.8356 19.1847 23.5616C18.9995 23.2877 18.9618 22.9376 19.0842 22.6297L21.0752 17.6296L22.9237 18.3726L21.4792 22.0006H22.9953L22.9954 24.0006Z" fill="black"/>
<path d="M20.1779 27.9998H20.0087V25.9997H20.1779C21.7278 25.9987 23.1852 25.3927 24.2822 24.2917L25.6898 25.7068C24.2175 27.1849 22.2605 27.9988 20.1779 27.9998Z" fill="black"/>
<path d="M33.9453 23.9996H32.9498V21.9996H33.9453C35.0432 21.9996 35.9362 21.1027 35.9362 19.9996C35.9362 18.8966 35.0433 17.9995 33.9453 17.9995H32.9498V15.9995H33.9453C36.1413 15.9995 37.9271 17.7935 37.9271 19.9995C37.9271 22.2054 36.1413 23.9996 33.9453 23.9996Z" fill="black"/>
<path d="M11.0502 24.0001H10.0548C7.85876 24.0001 6.073 22.2061 6.073 20.0002C6.073 17.7943 7.85888 16.0002 10.0548 16.0002H11.0502V18.0002H10.0548C8.95684 18.0002 8.06384 18.8971 8.06384 20.0002C8.06384 21.1032 8.95673 22.0002 10.0548 22.0002H11.0502V24.0001Z" fill="black"/>
<path d="M22.0098 35.0056C16.4114 35.0056 11.444 30.9766 10.4336 25.2607C10.3719 24.9107 10.3252 24.5577 10.2953 24.2037L10.0553 21.0767L10.0533 10.9998H12.0443V20.9997L12.2802 24.0427C12.3041 24.3287 12.3429 24.6206 12.3937 24.9107C13.3355 30.2367 18.4082 33.7977 23.7161 32.8547C28.1608 31.9907 31.4688 28.2036 31.7455 23.6478L31.9556 20.9217L31.9536 10.9998H33.9444V20.9997L33.7323 23.7866C33.4019 29.2366 29.4319 33.7806 24.0793 34.8206C23.3856 34.9446 22.6927 35.0056 22.0098 35.0056Z" fill="black"/>
<path d="M16.0271 60.0004H14.0361V40.2205C14.0361 39.6675 14.4821 39.2205 15.0316 39.2205H15.2008C15.6786 39.1385 16.03 38.7196 16.0271 38.2275V33.0005H18.0181V38.2205C18.027 39.5175 17.2058 40.6474 16.0271 41.0645V60.0004Z" fill="black"/>
<path d="M2.09046 60.0002H0.0996094V49.0002C0.0996094 44.5101 3.44039 40.6752 7.87214 40.0792L8.99309 40.0022L9.12549 41.9982L8.07034 42.0682C4.68873 42.5242 2.09057 45.5072 2.09057 49.0002V60.0002H2.09046Z" fill="black"/>
<path d="M21.9996 48.0005C18.9983 48.0005 16.1792 46.6695 14.2649 44.3485L15.7979 43.0735C17.3328 44.9335 19.5936 46.0005 21.9996 46.0005C24.4057 46.0005 26.6663 44.9335 28.2014 43.0715L29.7334 44.3485C27.8191 46.6695 24.9999 48.0005 21.9996 48.0005Z" fill="black"/>
<path d="M14.2041 50.5577L8.86843 42.5577C8.33088 41.7446 8.05312 40.8037 8.0621 39.8307C8.0621 37.1717 10.2233 35.0007 12.8801 35.0007H17.0222V37.0008H12.881C11.3222 37.0008 10.0539 38.2747 10.0539 39.8408C10.0479 40.4208 10.2111 40.9738 10.5247 41.4468L15.8584 49.4438L14.2041 50.5577Z" fill="black"/>
<path d="M12.0449 58.0006C11.4954 58.0006 11.0494 57.5537 11.0494 57.0007V51.0007C11.0494 50.4477 11.4954 50.0007 12.0449 50.0007C12.5943 50.0007 13.0403 50.4477 13.0403 51.0007V57.0007C13.0403 57.5537 12.5943 58.0006 12.0449 58.0006Z" fill="black"/>
<path d="M29.9639 60.0004H27.973V41.0634C26.7934 40.6465 25.9721 39.5154 25.982 38.2114V33.0005H27.973V38.2205C27.969 38.7195 28.3214 39.1385 28.7993 39.2204H28.9685C29.519 39.2204 29.9639 39.6674 29.9639 40.2204V60.0004Z" fill="black"/>
<path d="M43.8995 60H41.9086V49C41.9086 45.507 39.3104 42.524 35.8631 42.062L34.8746 41.999L35.007 40.0029L36.0621 40.0729C40.5586 40.6739 43.8994 44.5098 43.8994 48.9998V60H43.8995Z" fill="black"/>
<path d="M29.7947 50.5571L28.1403 49.444L33.476 41.444C33.7876 40.973 33.9508 40.421 33.9448 39.85C33.9448 38.275 32.6766 37 31.1177 37H26.9765V35H31.1177C33.7745 35 35.9357 37.171 35.9357 39.8399C35.9456 40.8019 35.6669 41.7439 35.1324 42.5539L29.7947 50.5571Z" fill="black"/>
<path d="M31.9547 58.0006C31.4042 58.0006 30.9592 57.5537 30.9592 57.0007V51.0007C30.9592 50.4477 31.4042 50.0007 31.9547 50.0007C32.5052 50.0007 32.9501 50.4477 32.9501 51.0007V57.0007C32.9502 57.5537 32.5052 58.0006 31.9547 58.0006Z" fill="black"/>
</svg>
