<svg width="80" height="24" viewBox="0 0 80 24" fill="none" xmlns="http://www.w3.org/2000/svg">
<path d="M28.9928 8.52186L29.1437 8.57098H29.3023C29.3924 8.57098 29.4839 8.57889 29.5774 8.59542C29.7755 8.70699 30.1845 8.96019 30.8439 9.38942C31.6849 9.95399 32.5766 10.5173 33.5185 11.0795L34.031 10.2208L33.5185 11.0795C34.4501 11.6355 35.3324 12.1426 36.1653 12.6005C36.5817 12.8542 36.9412 13.0577 37.2356 13.2014C37.3847 13.2742 37.5332 13.3397 37.6745 13.389C37.7966 13.4316 37.995 13.4921 38.2171 13.4921C39.5203 13.4921 40.8045 13.0687 42.0559 12.2954C43.2636 11.6276 44.4928 10.861 45.7434 9.99664C47.0017 9.2108 48.2847 8.47368 49.5926 7.78525C50.8526 7.19607 52.1481 6.90536 53.4884 6.90536C54.9226 6.90536 56.2136 7.13746 57.3728 7.58795C58.63 8.12881 59.8355 8.71788 60.9896 9.35496C62.2038 10.0252 63.4203 10.6196 64.6391 11.1376C66.0038 11.747 67.4318 12.0536 68.9147 12.0536C70.518 12.0536 71.85 11.4656 72.7388 10.2147C73.547 9.19286 74.1174 8.01067 74.4571 6.68331C74.7847 5.40381 74.9756 4.0981 75.0301 2.7674C75.0581 2.11195 75.0787 1.54058 75.0918 1.05478C75.6628 1.12277 76.1416 1.25181 76.5384 1.42925C77.1644 1.75973 77.61 2.17104 77.9136 2.65297L77.9281 2.67598L77.9439 2.69817C78.3245 3.23511 78.5791 3.83349 78.7079 4.504L78.7123 4.52695L78.7177 4.54967C78.9045 5.32472 79 6.15416 79 7.04101C79 8.06924 78.7937 9.22071 78.3559 10.5035L78.3559 10.5035L78.3524 10.5139C77.9162 11.8393 77.3116 13.0669 76.5384 14.1996L76.5249 14.2195L76.5123 14.24C75.8089 15.3849 74.9245 16.3148 73.8566 17.0404L73.8361 17.0543L73.8162 17.0693C72.8902 17.7682 71.8833 18.1236 70.7698 18.1526L70.6187 18.0789H70.3876H70.3873H70.387H70.3867H70.3864H70.3861H70.3858H70.3855H70.3852H70.3849H70.3846H70.3843H70.384H70.3837H70.3834H70.3831H70.3828H70.3824H70.3821H70.3818H70.3815H70.3812H70.3809H70.3806H70.3803H70.38H70.3797H70.3794H70.3791H70.3788H70.3785H70.3782H70.3779H70.3776H70.3773H70.377H70.3767H70.3765C70.2536 18.0462 70.1215 18.0201 69.9849 18.009C69.8192 17.9625 69.4193 17.8111 68.7093 17.4875C67.9289 17.1319 67.0202 16.7262 65.9837 16.2706C64.948 15.8154 63.8355 15.3353 62.6464 14.8304C61.5143 14.3278 60.4333 13.8502 59.4034 13.3975C58.4237 12.9443 57.5463 12.5411 56.7713 12.1878L56.7462 12.1764L56.7205 12.1663C55.9337 11.859 55.4848 11.6728 55.3225 11.5935L55.1148 11.4921H54.8837H54.031C52.3666 11.4921 50.9002 11.7895 49.6818 12.444L49.6655 12.4528L49.6495 12.4621C48.5244 13.1214 47.5565 13.9252 46.7549 14.8759C45.996 15.7758 45.318 16.7294 44.7212 17.7361C44.1605 18.6819 43.6009 19.5762 43.0423 20.4193L43.0351 20.4301L43.0282 20.4412C42.5122 21.2659 41.943 21.9028 41.3292 22.3739L41.3149 22.3848L41.301 22.3964C40.8404 22.777 40.2261 23 39.3798 23C38.4239 23 37.6638 22.8235 37.0636 22.5139C36.4526 22.1709 35.9015 21.7198 35.4096 21.1526C34.9199 20.5786 34.4255 19.9272 33.9267 19.1965L33.9175 19.183L33.9079 19.1699C33.3658 18.4287 32.7706 17.7153 32.1228 17.0299C31.4768 16.342 30.718 15.7731 29.8542 15.3214C28.939 14.8144 27.8302 14.5962 26.5891 14.5962C25.3002 14.5962 24.0789 14.788 22.9324 15.1799L22.9036 15.1898L22.8755 15.2013C21.8993 15.6028 20.897 16.0044 19.8687 16.4061L19.8403 16.4172L19.8127 16.43C18.8625 16.8695 17.887 17.2604 16.8858 17.6027L16.8655 17.6096L16.8454 17.6175C15.9452 17.9691 14.9086 18.1546 13.7209 18.1546C12.247 18.1546 10.743 17.9867 9.20761 17.6481L9.19006 17.6442L9.17238 17.641C7.62993 17.3585 6.27809 16.8451 5.10368 16.111L5.09628 16.1064L5.08878 16.1019C3.86889 15.3687 2.89538 14.4378 2.15425 13.3068L2.14126 13.287L2.12734 13.2678C1.39718 12.261 1 10.9646 1 9.3123C1 8.52717 1.02509 7.74198 1.07527 6.95671C1.12056 6.29453 1.25512 5.68963 1.47308 5.13613L1.48156 5.11461L1.48903 5.09272C1.63138 4.67564 1.87583 4.33085 2.24359 4.04351C2.51611 3.83059 3.01115 3.64984 3.87597 3.64984C5.13004 3.64984 5.84787 3.86641 6.21489 4.1265C6.61137 4.44879 6.91535 4.88447 7.11562 5.47126C7.35152 6.16248 7.51723 6.87788 7.61229 7.61865C7.72592 8.55939 7.95392 9.45342 8.29942 10.297C8.68936 11.2491 9.34165 12.0105 10.2236 12.5694C11.199 13.2399 12.5791 13.4921 14.186 13.4921C15.4396 13.4921 16.6715 13.1724 17.8722 12.5624C19.0187 12.0528 20.1894 11.4935 21.3842 10.8847C22.5525 10.2894 23.7465 9.71857 24.9662 9.17227C26.0816 8.72065 27.2404 8.49527 28.4496 8.49527H28.4502H28.4508H28.4514H28.452H28.4526H28.4533H28.4539H28.4545H28.4551H28.4557H28.4563H28.4569H28.4575H28.4581H28.4588H28.4594H28.46H28.4606H28.4612H28.4618H28.4625H28.4631H28.4637H28.4643H28.4649H28.4656H28.4662H28.4668H28.4674H28.468H28.4687H28.4693H28.4699H28.4705H28.4712H28.4718H28.4724H28.4731H28.4737H28.4743H28.4749H28.4756H28.4762H28.4768H28.4775H28.4781H28.4787H28.4794H28.48H28.4806H28.4813H28.4819H28.4825H28.4832H28.4838H28.4845H28.4851H28.4857H28.4864H28.487H28.4877H28.4883H28.4889H28.4896H28.4902H28.4909H28.4915H28.4922H28.4928H28.4935H28.4941H28.4948H28.4954H28.496H28.4967H28.4973H28.498H28.4986H28.4993H28.5H28.5006H28.5013H28.5019H28.5026H28.5032H28.5039H28.5045H28.5052H28.5059H28.5065H28.5072H28.5078H28.5085H28.5092H28.5098H28.5105H28.5111H28.5118H28.5125H28.5131H28.5138H28.5145H28.5151H28.5158H28.5165H28.5171H28.5178H28.5185H28.5191H28.5198H28.5205H28.5212H28.5218H28.5225H28.5232H28.5238H28.5245H28.5252H28.5259H28.5265H28.5272H28.5279H28.5286H28.5293H28.5299H28.5306H28.5313H28.532H28.5327H28.5333H28.534H28.5347H28.5354H28.5361H28.5368H28.5374H28.5381H28.5388H28.5395H28.5402H28.5409H28.5416H28.5423H28.543H28.5436H28.5443H28.545H28.5457H28.5464H28.5471H28.5478H28.5485H28.5492H28.5499H28.5506H28.5513H28.552H28.5527H28.5534H28.5541H28.5548H28.5555H28.5562H28.5569H28.5576H28.5583H28.559H28.5597H28.5604H28.5611H28.5618H28.5625H28.5632H28.5639H28.5647H28.5654H28.5661H28.5668H28.5675H28.5682H28.5689H28.5696H28.5703H28.5711H28.5718H28.5725H28.5732H28.5739H28.5746H28.5754H28.5761H28.5768H28.5775H28.5782H28.579H28.5797H28.5804H28.5811H28.5818H28.5826H28.5833H28.584H28.5847H28.5855H28.5862H28.5869H28.5876H28.5884H28.5891H28.5898H28.5906H28.5913H28.592H28.5928H28.5935H28.5942H28.595H28.5957H28.5964H28.5972H28.5979H28.5986H28.5994H28.6001H28.6008H28.6016H28.6023H28.6031H28.6038H28.6045H28.6053H28.606H28.6068H28.6075H28.6083H28.609H28.6098H28.6105H28.6112H28.612H28.6127H28.6135H28.6142H28.615H28.6157H28.6165H28.6172H28.618H28.6187H28.6195H28.6203H28.621H28.6218H28.6225H28.6233H28.624H28.6248H28.6255H28.6263H28.6271H28.6278H28.6286H28.6293H28.6301H28.6309H28.6316H28.6324H28.6332H28.6339H28.6347H28.6355H28.6362H28.637H28.6378H28.6385H28.6393H28.6401H28.6408H28.6416H28.6424H28.6431H28.6439H28.6447H28.6455H28.6462H28.647H28.6478H28.6486H28.6493H28.6501H28.6509H28.6517H28.6524H28.6532H28.654H28.6548H28.6556H28.6563H28.6571H28.6579H28.6587H28.6595H28.6603H28.661H28.6618H28.6626H28.6634H28.6642H28.665H28.6658H28.6666H28.6674H28.6681H28.6689H28.6697H28.6705H28.6713H28.6721H28.6729H28.6737H28.6745H28.6753H28.6761H28.6769H28.6777H28.6785H28.6793H28.6801H28.6809H28.6817H28.6825H28.6833H28.6841H28.6849H28.6857H28.6865H28.6873H28.6881H28.6889H28.6897H28.6905H28.6913H28.6921H28.6929H28.6937H28.6946H28.6954H28.6962H28.697H28.6978H28.6986H28.6994H28.7002H28.7011H28.7019H28.7027H28.7035H28.7043H28.7051H28.706H28.7068H28.7076H28.7084H28.7092H28.7101H28.7109H28.7117H28.7125H28.7133H28.7142H28.715H28.7158H28.7167H28.7175H28.7183H28.7191H28.72H28.7208H28.7216H28.7225H28.7233H28.7241H28.7249H28.7258H28.7266H28.7274H28.7283H28.7291H28.7299H28.7308H28.7316H28.7325H28.7333H28.7341H28.735H28.7358H28.7366H28.7375H28.7383H28.7392H28.74H28.7409H28.7417H28.7425H28.7434H28.7442H28.7451H28.7459H28.7468H28.7476H28.7485H28.7493H28.7502H28.751H28.7519H28.7527H28.7536H28.7544H28.7553H28.7561H28.757H28.7578H28.7587H28.7596H28.7604H28.7613H28.7621H28.763H28.7638H28.7647H28.7656H28.7664H28.7673H28.7682H28.769H28.7699H28.7707H28.7716H28.7725H28.7733H28.7742H28.7751H28.7759H28.7768H28.7777H28.7785H28.7794H28.7803H28.7812H28.782H28.7829H28.7838H28.7846H28.7855H28.7864H28.7873H28.7881H28.789H28.7899H28.7908H28.7916H28.7925H28.7934H28.7943H28.7952H28.796H28.7969H28.7978H28.7987H28.7996H28.8005H28.8013H28.8022H28.8031H28.804H28.8049H28.8058H28.8067H28.8076H28.8084H28.8093H28.8102H28.8111H28.812H28.8129H28.8138H28.8147H28.8156H28.8165H28.8174H28.8183H28.8192H28.8201H28.821H28.8218H28.8228H28.8236H28.8245H28.8254H28.8264H28.8273H28.8282H28.8291H28.83H28.8309H28.8318H28.8327H28.8336H28.8345H28.8354H28.8363H28.8372C28.8818 8.49527 28.9325 8.50224 28.9928 8.52186Z" fill="black" stroke="#F3E8EA" stroke-width="2"/>
</svg>
