<svg width="86" height="120" viewBox="0 0 86 120" fill="none" xmlns="http://www.w3.org/2000/svg">
<path d="M25.4653 119.011C30.5583 118.975 32.6985 116.447 31.8841 111.633C31.5111 109.428 30.9452 107.257 30.5268 105.059C30.4516 104.664 30.0876 104.115 30.4788 103.829C30.862 103.549 31.3297 103.904 31.6969 104.179C34.1477 106.012 36.8368 107.377 39.7202 108.322C40.4935 108.575 40.6844 108.903 40.4914 109.697C40.2102 110.855 40.7208 111.732 41.6401 112.42C42.1243 112.781 42.6587 113.01 43.2183 113.157C44.8966 113.599 46.5933 113.701 48.2801 113.213C49.7048 112.801 50.7341 111.921 51.2284 110.451C51.3374 110.126 51.6275 110.109 51.9035 110.174C52.2954 110.267 52.331 110.603 52.3375 110.932C52.3602 112.08 52.3174 113.233 52.4031 114.375C52.5665 116.557 53.0055 118.548 55.4679 119.32C57.5398 119.97 59.6126 120.179 61.7418 119.838C62.4083 119.731 63.0444 119.494 63.6219 119.126C65.6464 117.837 66.0068 115.19 64.2771 113.516C63.5535 112.815 63.3635 111.997 63.1325 111.119C62.9213 110.316 63.1372 109.926 63.9935 109.852C65.529 109.719 67.1407 109.471 68.3401 108.527C70.0061 107.217 71.382 107.575 72.8552 108.664C72.9279 108.717 73.0024 108.774 73.0846 108.808C73.601 109.019 73.7807 109.35 73.7715 109.967C73.7315 112.676 75.2183 114.39 77.9323 114.768C79.6782 115.012 81.3944 114.942 83.1256 114.386C84.383 113.982 84.8204 113.186 84.9373 112.01C85.0608 110.767 84.5369 109.683 84.1372 108.563C83.8058 107.635 83.4366 106.766 84.0505 105.715C86.1956 102.04 86.4278 98.0785 85.4387 94.0018C84.256 89.1274 81.248 85.5661 77.4379 82.6197C75.527 81.142 74.1364 79.2689 73.1003 77.0881C72.218 75.2312 71.3881 73.3346 70.045 71.7627C69.5982 71.2397 69.8267 70.9259 70.0802 70.4545C72.4646 66.0215 72.7475 61.526 70.5102 56.9125C69.7406 55.3255 68.4874 54.1515 67.4838 52.7682C66.5768 51.518 66.1932 50.2845 66.9386 48.8248C67.1229 48.4637 67.2187 48.0504 67.3228 47.6522C69.6098 38.9073 66.2173 29.4849 58.8087 24.4622C57.4585 23.5468 57.2495 22.6586 57.5253 21.2C58.2656 17.2838 59.2141 13.4017 59.4764 9.39947C59.6193 7.21831 59.4495 5.08611 58.7336 3.02122C57.6449 -0.119029 55.0262 -0.907126 52.455 1.10943C51.6661 1.72816 50.9874 2.45971 50.3819 3.25911C46.723 8.08924 44.0252 13.4586 41.9513 19.1614C41.6412 20.014 41.2486 20.4068 40.3668 20.473C36.3107 20.7773 32.3623 21.623 28.558 23.1082C28.0658 23.3004 27.7036 23.2778 27.3624 22.8725C25.4695 20.6239 23.5295 18.4148 21.6904 16.1212C18.6684 12.3525 15.3676 9.00312 10.7267 7.32458C5.25956 5.34722 1.19464 7.69664 0.301253 13.56C-0.492234 18.7678 0.333947 23.8238 2.16678 28.6947C3.50326 32.2464 4.75684 35.791 5.45647 39.5574C6.6182 45.8116 9.56712 50.5265 16.3588 51.4619C17.3616 51.6001 17.3256 52.3156 17.2333 52.9824C17.1537 53.5577 16.8634 54.1034 16.6604 54.66C14.4601 60.692 11.9862 66.6238 10.6598 72.9629C9.61819 77.941 9.06929 82.9296 9.78373 87.998C10.4181 92.4987 12.6882 96.2341 15.2029 99.8469C17.3107 102.875 19.4916 105.852 21.0507 109.243C21.5967 110.43 21.8289 111.316 20.7688 112.504C18.7973 114.714 19.6673 117.439 22.4318 118.482C23.5079 118.888 24.6056 119.04 25.4653 119.011Z" fill="white"/>
<path d="M61.6124 111.853C60.5484 111.634 59.6761 111.466 58.7823 111.741C58.2337 111.91 57.8627 112.176 57.9877 112.797C58.1179 113.445 58.5591 113.501 59.1248 113.351C60.8339 112.898 62.2269 113.455 63.2838 114.86C64.1089 115.957 63.9138 117.197 62.6595 117.71C60.1826 118.724 57.6556 118.625 55.2373 117.426C54.2108 116.918 54.1468 115.783 54.0153 114.807C53.8689 113.721 53.7735 112.596 53.8842 111.512C54.4353 106.114 53.0145 100.936 52.2781 95.683C52.206 95.1687 52.0155 94.627 51.3589 94.7406C50.644 94.8642 50.6351 95.4566 50.7279 96.0348C51.1997 98.9765 51.6152 101.93 52.1725 104.855C52.8399 108.357 52.6284 108.649 49.1676 108.454C38.309 107.841 29.9459 102.789 23.8728 93.6483C23.5956 93.231 23.3415 92.7976 23.0647 92.3799C22.7184 91.8572 22.4132 91.1241 21.6209 91.6861C20.9179 92.1846 21.3836 92.738 21.6982 93.2322C23.3183 95.7773 25.0877 98.2113 27.25 100.301C28.1148 101.136 28.5188 102.019 28.696 103.233C29.1259 106.178 29.8035 109.084 30.3224 112.017C30.9507 115.569 29.8123 117.05 26.2728 117.419C25.0491 117.547 23.8325 117.501 22.7018 116.993C21.2017 116.319 20.8767 114.778 21.9358 113.492C22.9166 112.301 24.2536 111.804 25.7245 111.657C26.2474 111.605 26.75 111.606 26.7478 110.886C26.7454 110.11 26.1854 110.052 25.6257 110.015C25.4926 110.007 25.3421 109.998 25.2254 110.049C23.4933 110.816 22.8943 109.821 22.2954 108.343C20.9454 105.012 18.8323 102.117 16.686 99.3018C11.172 92.0681 9.93685 84.0355 11.8572 75.2488C13.2314 68.9605 15.2291 62.8906 17.5329 56.9116C17.5939 56.7533 17.6912 56.6096 17.866 56.2822C18.9255 59.0977 20.4643 61.3921 22.1898 63.6186C23.251 64.988 23.5746 66.8716 24.4297 68.4422C26.1326 71.5696 28.2062 74.3793 31.0101 76.5384C36.1968 80.5326 42.024 81.3259 47.3973 75.5755C48.1316 74.7898 48.6415 74.4633 49.73 75.0685C51.0667 75.8118 52.6261 75.5975 54.0901 75.2808C56.8091 74.6925 59.4762 73.8736 62.2352 73.4515C63.2964 73.2892 64.2882 72.8247 65.1773 72.1533C65.5522 71.8703 65.7837 71.1063 66.2987 71.35C67.125 71.741 68.1582 71.7041 68.7619 72.6091C69.6229 73.8997 70.5034 75.1822 71.1088 76.6168C72.4574 79.8124 74.5283 82.3966 77.1964 84.5358C79.7653 86.5955 82.0593 88.934 83.2714 92.1145C84.7642 96.0317 84.8567 100.031 83.2545 103.916C81.4564 108.276 78.113 109.495 73.908 107.478C70.8943 106.033 68.6016 103.748 66.8773 100.856C66.5508 100.309 66.2943 99.562 65.4822 100.049C64.6569 100.544 65.2183 101.138 65.5079 101.685C66.4166 103.399 67.7134 104.796 69.103 106.218C67.3685 107.575 65.4056 108.086 63.3265 108.28C62.4612 108.361 62.687 107.675 62.6634 107.256C62.4714 103.848 62.8404 100.473 63.2692 97.1009C63.7725 93.1435 64.4817 89.2074 64.5161 85.1994C64.5213 84.596 64.7354 83.7812 63.7412 83.7889C62.9044 83.7954 62.938 84.4908 62.9294 85.097C62.8435 91.1282 61.4687 97.022 61.1044 103.026C60.9283 105.927 61.1198 108.793 61.6124 111.853Z" fill="#666F80"/>
<path d="M24.9819 35.8116C22.6409 34.5434 21.3806 35.062 20.7322 37.6891C20.4169 38.9669 20.3769 40.3161 20.2189 41.6337C19.8362 44.8264 17.4748 46.2343 14.5919 44.9315C12.2676 43.8812 10.5771 42.054 9.05436 40.0338C7.11498 37.461 5.95262 34.4841 4.8838 31.4839C3.84408 28.5653 2.64871 25.6932 2.1313 22.5926C1.62135 19.5367 1.42921 16.4801 1.9634 13.4266C2.68773 9.28606 5.31664 7.62975 9.4778 8.5978C12.7217 9.35246 15.2284 11.3682 17.4474 13.7387C21.2986 17.8528 23.8988 22.7149 25.2298 28.252C25.837 30.7781 25.991 33.3164 24.9819 35.8116Z" fill="#A1A7B2"/>
<path d="M23.6516 62.3814C26.4066 62.9147 29.0744 63.1503 31.7633 62.7537C36.9397 61.9902 41.6857 60.2803 45.4479 56.356C46.4297 55.3319 46.8966 53.54 48.8462 53.9177C52.6908 51.9534 56.7829 51.4704 61.0142 51.7555C61.5386 51.7908 61.9414 51.967 62.3731 52.2352C63.0212 52.638 63.6875 53.0794 64.4061 53.2823C67.5091 54.1584 68.6885 56.5862 69.5971 59.4385C70.4929 62.2502 70.3944 64.977 69.6159 67.7376C69.345 68.6978 69.0667 69.927 68.023 70.1004C66.8669 70.2925 66.2213 69.1316 65.7941 68.2115C64.9272 66.3442 63.6471 65.0076 61.8395 64.0922C60.7901 63.5607 60.1209 62.6721 60.1614 61.3404C60.1809 60.6979 60.3147 60.2509 60.8428 59.8341C61.9148 58.9879 62.8519 58.0123 63.1795 56.5748C63.6453 54.5313 62.7546 52.8882 60.7435 52.6055C58.668 52.3138 56.6124 52.5775 54.8045 53.8338C53.4473 54.7769 53.287 55.9181 54.3343 57.1949C55.1899 58.238 56.3433 58.8849 57.4975 59.4879C58.3876 59.9529 58.6566 60.6097 58.5955 61.5758C58.5006 63.0759 57.8911 64.3019 56.8936 65.3649C55.9533 66.3669 54.8611 67.1801 53.7123 67.8946C51.3502 69.3639 49.2993 71.192 47.423 73.2546C46.6301 74.1263 45.7752 74.952 44.8738 75.7052C41.4343 78.5795 37.5464 78.9154 33.7518 76.5356C29.7673 74.0367 26.9948 70.4202 25.0901 66.0949C24.5782 64.9324 24.1678 63.7232 23.6516 62.3814ZM48.527 62.2325C48.5037 61.7653 48.2512 61.4667 47.7935 61.4493C47.2457 61.4285 46.9744 61.8261 47.0008 62.3162C47.0241 62.7498 47.3278 63.0321 47.8111 63.0366C48.3473 63.0416 48.4615 62.677 48.527 62.2325ZM48.167 65.6826C48.1277 65.2073 47.8842 64.9064 47.4162 64.8688C46.9344 64.83 46.6439 65.0926 46.6164 65.585C46.5899 66.061 46.7824 66.3886 47.307 66.3916C47.7811 66.3944 48.056 66.1397 48.167 65.6826ZM67.725 58.1271C67.7192 57.5904 67.4085 57.3152 66.9786 57.3038C66.455 57.2898 66.1479 57.6706 66.171 58.1834C66.1917 58.6434 66.5136 58.9111 66.9881 58.8908C67.4745 58.87 67.688 58.5618 67.725 58.1271ZM50.3726 59.2337C49.8731 59.2557 49.591 59.4966 49.5537 59.9776C49.5172 60.4501 49.7126 60.7768 50.2064 60.8199C50.7449 60.8668 51.0612 60.6045 51.0629 60.0425C51.0643 59.5705 50.8101 59.2927 50.3726 59.2337ZM68.7504 61.2131C68.7395 60.7939 68.4744 60.4986 68.0287 60.4623C67.5122 60.4203 67.176 60.6958 67.1744 61.2608C67.1729 61.7649 67.4712 61.9997 67.9391 62.0076C68.4095 62.0155 68.6819 61.7682 68.7504 61.2131ZM54.0656 61.5846C54.0135 61.1512 53.7674 60.8576 53.2989 60.8605C52.7358 60.864 52.521 61.2444 52.5647 61.7618C52.605 62.2377 52.9139 62.5022 53.3769 62.4496C53.8244 62.3988 54.0755 62.1036 54.0656 61.5846ZM51.2843 63.9311C51.267 63.5376 51.029 63.2655 50.5525 63.2509C49.9943 63.2339 49.7563 63.5674 49.7594 64.0939C49.7624 64.6118 50.1181 64.8146 50.5487 64.7966C50.9861 64.7783 51.2855 64.5216 51.2843 63.9311ZM65.0158 59.9204C64.677 59.9497 64.4118 60.2175 64.435 60.6986C64.4577 61.1706 64.7255 61.4365 65.2109 61.4301C65.7229 61.4234 65.9163 61.0853 65.9131 60.6385C65.9096 60.1631 65.6468 59.8909 65.0158 59.9204Z" fill="#666F80"/>
<path d="M30.5111 24.0917C34.9311 22.5816 39.2391 21.6106 43.8019 22.3333C46.6602 22.7859 49.4499 23.3928 51.9603 24.9425C56.5301 27.7636 58.6518 32.0669 59.0803 37.3561C59.3249 40.3748 58.9422 43.412 59.3156 46.436C59.4627 47.6279 59.7233 48.7654 60.2674 50.0033C58.0431 50.105 55.9227 50.0031 53.8508 50.5309C52.1531 50.9634 50.4542 51.3677 48.8075 51.9885C48.3687 52.1539 47.7481 52.5946 47.9211 51.3479C49.5055 39.9281 43.2378 29.7892 33.1171 25.4895C32.2744 25.1315 31.3537 24.9004 30.5111 24.0917ZM55.8632 48.9817C56.266 48.9817 56.6717 48.9498 57.0709 48.9887C57.7745 49.0573 58.4372 48.8334 58.4972 48.1204C58.5758 47.1862 57.7305 47.3005 57.1271 47.2653C54.873 47.1338 52.6952 47.5517 50.5586 48.2511C49.9938 48.436 49.3437 48.5945 49.62 49.4181C49.8718 50.1684 50.4928 49.9531 51.0078 49.7847C52.589 49.2674 54.1906 48.909 55.8632 48.9817Z" fill="#666F80"/>
<path d="M55.6699 22.4906C54.4295 22.0789 53.2926 21.6743 52.1384 21.3305C51.5977 21.1694 51.354 20.8201 51.1661 20.3179C49.3928 15.5788 49.0784 10.7512 50.5799 5.90772C51.2179 3.84963 52.9069 2.56218 54.7739 1.68808C55.8565 1.18126 56.5248 1.97947 56.9608 2.93607C57.8624 4.91392 57.7674 7.0503 57.7973 9.13859C57.8442 12.4215 56.8274 15.554 56.2781 18.7532C56.0691 19.971 55.8805 21.1925 55.6699 22.4906Z" fill="#A1A7B2"/>
<path d="M59.621 64.5068C61.6365 65.6663 63.4363 66.9189 64.4743 69.1133C64.9009 70.0153 64.6839 70.4814 64.0725 70.9664C63.4639 71.4491 62.7586 71.7839 61.9951 71.8962C59.0605 72.3277 56.2166 73.1746 53.331 73.83C52.1492 74.0984 50.5929 74.2508 50.077 73.3245C49.6647 72.5843 51.2022 71.8322 51.9441 71.1762C52.7192 70.4907 53.6113 69.9415 54.4631 69.3489C56.4263 67.9831 58.483 66.7254 59.621 64.5068Z" fill="#666F80"/>
<path d="M82.2708 108.126C82.6447 109.164 82.9959 110.045 83.2784 110.949C83.5919 111.952 83.2412 112.667 82.2291 112.944C80.5147 113.412 78.7901 113.483 77.0818 112.905C76.3836 112.669 75.802 112.271 75.4975 111.536C74.9722 110.269 75.3471 109.714 76.661 109.897C78.7356 110.186 80.5501 109.611 82.2708 108.126Z" fill="#666F80"/>
<path d="M49.4306 110.189C49.3753 110.918 48.8976 111.232 48.4127 111.423C46.5735 112.147 44.721 112.037 42.9102 111.306C42.2539 111.041 41.9604 110.47 42.1503 109.742C42.3709 108.897 43.0191 109.259 43.4765 109.363C45.4338 109.809 47.4418 109.884 49.4306 110.189Z" fill="#666F80"/>
<path d="M60.6922 55.0405C60.252 54.99 59.6126 55.0348 59.5868 54.5155C59.5595 53.9659 60.1839 53.9523 60.6245 53.9615C61.0518 53.9705 61.6621 53.9181 61.6581 54.5088C61.6552 54.9509 61.1002 55.009 60.6922 55.0405Z" fill="#FDFDFD"/>
<path d="M65.3091 46.8306C65.6601 46.9066 65.8391 47.1314 65.8305 47.4943C65.8221 47.8482 65.6685 48.1371 65.2972 48.1424C64.9104 48.148 64.7807 47.8018 64.7632 47.4898C64.744 47.1461 64.9475 46.901 65.3091 46.8306Z" fill="#FDFDFD"/>
<path d="M48.5263 62.2322C48.4607 62.6768 48.3466 63.0414 47.8104 63.0364C47.327 63.0319 47.0233 62.7496 47 62.316C46.9737 61.8259 47.245 61.4282 47.7927 61.449C48.2504 61.4664 48.503 61.7651 48.5263 62.2322Z" fill="black"/>
<path d="M48.166 65.682C48.0543 66.1395 47.7793 66.3942 47.3053 66.3914C46.7807 66.3883 46.5882 66.0607 46.6147 65.5848C46.6421 65.0923 46.9327 64.8298 47.4145 64.8685C47.8824 64.9061 48.126 65.2071 48.166 65.682Z" fill="black"/>
<path d="M67.7244 58.127C67.6873 58.5617 67.4739 58.8699 66.9875 58.8906C66.513 58.9109 66.1911 58.6433 66.1704 58.1833C66.1473 57.6704 66.4544 57.2897 66.9779 57.3036C67.4079 57.315 67.7186 57.5902 67.7244 58.127Z" fill="black"/>
<path d="M50.3715 59.2334C50.809 59.2924 51.0632 59.5702 51.0618 60.0421C51.0601 60.6042 50.7438 60.8664 50.2053 60.8195C49.7115 60.7765 49.5161 60.4497 49.5526 59.9773C49.5899 59.4962 49.872 59.2554 50.3715 59.2334Z" fill="black"/>
<path d="M68.7503 61.213C68.6817 61.7681 68.4094 62.0154 67.9389 62.0075C67.471 61.9996 67.1727 61.7647 67.1742 61.2606C67.1759 60.6956 67.512 60.4202 68.0286 60.4622C68.4742 60.4984 68.7393 60.7937 68.7503 61.213Z" fill="black"/>
<path d="M54.0653 61.5844C54.0752 62.1035 53.8241 62.3987 53.3766 62.4495C52.9136 62.502 52.6047 62.2376 52.5645 61.7617C52.5207 61.2443 52.7355 60.8638 53.2986 60.8604C53.7671 60.8575 54.0132 61.1511 54.0653 61.5844Z" fill="black"/>
<path d="M51.2838 63.9313C51.285 64.5218 50.9856 64.7785 50.5481 64.7968C50.1176 64.8148 49.7619 64.612 49.7588 64.0941C49.7557 63.5675 49.9937 63.234 50.5519 63.2511C51.0285 63.2657 51.2664 63.5378 51.2838 63.9313Z" fill="black"/>
<path d="M65.0155 59.9201C65.6465 59.8906 65.9093 60.1629 65.9127 60.6382C65.916 61.0851 65.7225 61.4231 65.2106 61.4298C64.7251 61.4362 64.4574 61.1703 64.4346 60.6983C64.4115 60.2172 64.6766 59.9494 65.0155 59.9201Z" fill="black"/>
<path d="M25.4653 119.011C24.6056 119.04 23.5079 118.888 22.4318 118.482C19.6673 117.439 18.7973 114.714 20.7688 112.504C21.8289 111.316 21.5967 110.43 21.0507 109.243C19.4916 105.852 17.3107 102.875 15.2029 99.8469C12.6882 96.2341 10.4181 92.4987 9.78373 87.998C9.06929 82.9296 9.61819 77.941 10.6598 72.9629C11.9862 66.6238 14.4601 60.692 16.6604 54.66C16.8634 54.1034 17.1537 53.5577 17.2333 52.9823C17.3256 52.3156 17.3616 51.6001 16.3588 51.4619C9.56711 50.5265 6.6182 45.8116 5.45647 39.5574C4.75684 35.791 3.50326 32.2464 2.16678 28.6947C0.333946 23.8238 -0.492234 18.7678 0.301253 13.56C1.19464 7.69664 5.25956 5.34722 10.7267 7.32458C15.3676 9.00312 18.6684 12.3525 21.6904 16.1212C23.5295 18.4148 25.4695 20.6239 27.3624 22.8725C27.7036 23.2778 28.0658 23.3004 28.558 23.1082C32.3623 21.623 36.3107 20.7773 40.3668 20.473C41.2486 20.4068 41.6412 20.014 41.9513 19.1614C44.0252 13.4586 46.723 8.08924 50.3819 3.25911C50.9874 2.45971 51.6661 1.72816 52.455 1.10943C55.0262 -0.907126 57.6449 -0.11903 58.7336 3.02122C59.4495 5.08611 59.6193 7.21831 59.4764 9.39947C59.2141 13.4017 58.2656 17.2838 57.5253 21.2C57.2495 22.6586 57.4585 23.5468 58.8087 24.4622C66.2173 29.4849 69.6098 38.9073 67.3228 47.6522C67.2187 48.0504 67.1229 48.4637 66.9386 48.8248C66.1932 50.2845 66.5768 51.518 67.4837 52.7682C68.4874 54.1515 69.7406 55.3255 70.5102 56.9125C72.7475 61.526 72.4646 66.0215 70.0802 70.4545C69.8267 70.9259 69.5982 71.2397 70.045 71.7627C71.3881 73.3346 72.218 75.2312 73.1003 77.0881C74.1364 79.2689 75.527 81.142 77.4379 82.6197C81.248 85.5661 84.256 89.1274 85.4387 94.0018C86.4277 98.0785 86.1956 102.04 84.0505 105.715C83.4366 106.766 83.8058 107.635 84.1372 108.563C84.537 109.683 85.0608 110.767 84.9373 112.01C84.8204 113.186 84.383 113.982 83.1256 114.386C81.3944 114.942 79.6782 115.012 77.9323 114.768C75.2183 114.39 73.7315 112.676 73.7715 109.967C73.7807 109.35 73.601 109.019 73.0846 108.808C73.0024 108.774 72.9279 108.717 72.8552 108.664C71.382 107.575 70.0061 107.217 68.3401 108.527C67.1407 109.471 65.529 109.719 63.9935 109.852C63.1372 109.926 62.9213 110.316 63.1325 111.119C63.3635 111.997 63.5535 112.815 64.2771 113.516C66.0068 115.19 65.6464 117.837 63.6219 119.126C63.0444 119.494 62.4083 119.731 61.7417 119.838C59.6126 120.179 57.5398 119.97 55.4679 119.32C53.0055 118.548 52.5665 116.557 52.4031 114.375C52.3174 113.233 52.3602 112.08 52.3375 110.932C52.331 110.603 52.2954 110.267 51.9035 110.174C51.6275 110.109 51.3374 110.126 51.2284 110.451C50.7341 111.921 49.7048 112.801 48.2801 113.213C46.5933 113.701 44.8966 113.599 43.2183 113.157C42.6587 113.01 42.1243 112.781 41.6401 112.42C40.7208 111.732 40.2102 110.855 40.4914 109.697C40.6844 108.903 40.4935 108.575 39.7202 108.322C36.8368 107.377 34.1477 106.012 31.6969 104.179C31.3297 103.904 30.862 103.549 30.4788 103.829C30.0876 104.115 30.4516 104.664 30.5268 105.059C30.9452 107.257 31.5111 109.428 31.8841 111.633C32.6985 116.447 30.5583 118.975 25.4653 119.011ZM61.6124 111.853C61.1198 108.793 60.9283 105.927 61.1043 103.026C61.4686 97.0219 62.8435 91.1281 62.9294 85.097C62.938 84.4908 62.9043 83.7954 63.7412 83.7889C64.7354 83.7812 64.5213 84.596 64.5161 85.1993C64.4817 89.2074 63.7724 93.1434 63.2692 97.1009C62.8404 100.473 62.4714 103.848 62.6634 107.256C62.687 107.675 62.4611 108.361 63.3265 108.28C65.4056 108.086 67.3685 107.575 69.103 106.218C67.7134 104.796 66.4166 103.399 65.5079 101.685C65.2183 101.138 64.6568 100.544 65.4821 100.049C66.2943 99.562 66.5508 100.309 66.8772 100.856C68.6016 103.748 70.8942 106.033 73.908 107.478C78.1129 109.495 81.4564 108.276 83.2545 103.916C84.8567 100.031 84.7642 96.0317 83.2713 92.1144C82.0592 88.9339 79.7653 86.5955 77.1964 84.5358C74.5282 82.3965 72.4574 79.8124 71.1088 76.6168C70.5034 75.1822 69.6229 73.8997 68.7619 72.6091C68.1581 71.7041 67.125 71.741 66.2987 71.35C65.7836 71.1062 65.5522 71.8703 65.1773 72.1533C64.2881 72.8246 63.2964 73.2892 62.2352 73.4515C59.4762 73.8735 56.809 74.6924 54.0901 75.2807C52.6261 75.5975 51.0666 75.8117 49.7299 75.0685C48.6415 74.4633 48.1315 74.7898 47.3973 75.5755C42.024 81.3259 36.1968 80.5325 31.0101 76.5384C28.2062 74.3792 26.1326 71.5695 24.4297 68.4421C23.5745 66.8715 23.251 64.988 22.1898 63.6186C20.4642 61.3921 18.9254 59.0976 17.8659 56.2822C17.6912 56.6095 17.5939 56.7532 17.5329 56.9115C15.229 62.8906 13.2314 68.9605 11.8571 75.2487C9.93683 84.0355 11.172 92.0681 16.686 99.3018C18.8323 102.117 20.9454 105.012 22.2954 108.343C22.8943 109.821 23.4933 110.816 25.2253 110.049C25.3421 109.998 25.4926 110.007 25.6256 110.015C26.1854 110.052 26.7453 110.11 26.7477 110.886C26.75 111.606 26.2474 111.605 25.7245 111.657C24.2536 111.804 22.9166 112.301 21.9358 113.492C20.8767 114.778 21.2017 116.319 22.7018 116.993C23.8324 117.501 25.0491 117.547 26.2728 117.419C29.8123 117.05 30.9507 115.569 30.3223 112.017C29.8035 109.084 29.1258 106.178 28.696 103.233C28.5188 102.019 28.1148 101.136 27.25 100.301C25.0877 98.2113 23.3183 95.7773 21.6982 93.2322C21.3836 92.738 20.9179 92.1846 21.6208 91.686C22.4132 91.124 22.7183 91.8572 23.0647 92.3798C23.3414 92.7975 23.5955 93.231 23.8728 93.6483C29.9459 102.789 38.309 107.841 49.1676 108.454C52.6283 108.649 52.8399 108.357 52.1725 104.854C51.6152 101.93 51.1997 98.9765 50.7278 96.0348C50.6351 95.4566 50.644 94.8641 51.3589 94.7405C52.0155 94.627 52.206 95.1687 52.278 95.683C53.0145 100.936 54.4353 106.114 53.8841 111.512C53.7735 112.595 53.8689 113.721 54.0153 114.807C54.1468 115.783 54.2107 116.918 55.2373 117.426C57.6555 118.625 60.1826 118.724 62.6594 117.71C63.9138 117.197 64.1089 115.957 63.2838 114.86C62.2269 113.455 60.8339 112.898 59.1248 113.351C58.5591 113.501 58.1179 113.445 57.9877 112.797C57.8627 112.176 58.2337 111.91 58.7823 111.741C59.6761 111.466 60.5483 111.634 61.6124 111.853ZM24.9814 35.8113C25.9906 33.3161 25.8366 30.7778 25.2294 28.2517C23.8984 22.7146 21.2981 17.8525 17.447 13.7384C15.228 11.3679 12.7213 9.35215 9.47737 8.59749C5.3162 7.62945 2.6873 9.28575 1.96297 13.4262C1.42878 16.4798 1.62092 19.5364 2.13086 22.5923C2.64827 25.6929 3.84365 28.565 4.88337 31.4836C5.95219 34.4838 7.11455 37.4607 9.05393 40.0335C10.5767 42.0537 12.2672 43.8809 14.5915 44.9312C17.4743 46.234 19.8357 44.8261 20.2185 41.6334C20.3764 40.3158 20.4165 38.9666 20.7318 37.6888C21.3802 35.0617 22.6405 34.5431 24.9814 35.8113ZM23.6509 62.3812C24.1671 63.7229 24.5774 64.9322 25.0894 66.0947C26.9941 70.42 29.7666 74.0364 33.7511 76.5354C37.5456 78.9152 41.4336 78.5793 44.873 75.705C45.7744 74.9517 46.6294 74.126 47.4223 73.2544C49.2986 71.1918 51.3495 69.3637 53.7116 67.8944C54.8604 67.1798 55.9526 66.3666 56.8929 65.3647C57.8904 64.3017 58.4998 63.0757 58.5947 61.5755C58.6558 60.6095 58.3869 59.9526 57.4968 59.4876C56.3426 58.8847 55.1891 58.2378 54.3336 57.1947C53.2863 55.9179 53.4466 54.7767 54.8038 53.8336C56.6117 52.5773 58.6673 52.3136 60.7428 52.6053C62.7539 52.8879 63.6446 54.531 63.1788 56.5745C62.8511 58.0121 61.9141 58.9877 60.842 59.8339C60.314 60.2506 60.1802 60.6976 60.1607 61.3402C60.1202 62.6718 60.7894 63.5605 61.8388 64.0919C63.6464 65.0073 64.9264 66.344 65.7934 68.2113C66.2205 69.1314 66.8662 70.2922 68.0223 70.1002C69.066 69.9268 69.3443 68.6976 69.6151 67.7374C70.3937 64.9768 70.4921 62.25 69.5964 59.4383C68.6877 56.586 67.5083 54.1582 64.4054 53.2821C63.6868 53.0791 63.0204 52.6378 62.3724 52.235C61.9407 51.9667 61.5378 51.7906 61.0135 51.7552C56.7821 51.4702 52.6901 51.9532 48.8454 53.9174C46.8958 53.5397 46.429 55.3317 45.4472 56.3558C41.685 60.2801 36.939 61.99 31.7626 62.7535C29.0737 63.1501 26.4058 62.9145 23.6509 62.3812ZM30.5114 24.0917C31.3541 24.9005 32.2747 25.1315 33.1174 25.4895C43.2381 29.7892 49.5059 39.9282 47.9214 51.348C47.7484 52.5946 48.369 52.154 48.8078 51.9885C50.4545 51.3678 52.1534 50.9635 53.8511 50.531C55.923 50.0032 58.0435 50.1051 60.2678 50.0034C59.7236 48.7655 59.463 47.628 59.3159 46.4361C58.9425 43.412 59.3252 40.3748 59.0806 37.3562C58.6521 32.067 56.5304 27.7636 51.9607 24.9426C49.4502 23.3929 46.6605 22.786 43.8022 22.3333C39.2394 21.6107 34.9314 22.5817 30.5114 24.0917ZM55.6695 22.4904C55.8801 21.1923 56.0686 19.9708 56.2777 18.753C56.827 15.5539 57.8438 12.4214 57.7969 9.13846C57.767 7.05018 57.8619 4.91379 56.9604 2.93594C56.5244 1.97934 55.8561 1.18113 54.7735 1.68795C52.9065 2.56205 51.2175 3.8495 50.5795 5.9076C49.078 10.751 49.3924 15.5786 51.1656 20.3178C51.3536 20.82 51.5973 21.1693 52.138 21.3304C53.2922 21.6742 54.4291 22.0787 55.6695 22.4904ZM59.621 64.5068C58.4829 66.7254 56.4263 67.983 54.4631 69.3488C53.6113 69.9414 52.7192 70.4907 51.944 71.1761C51.2022 71.8321 49.6647 72.5842 50.077 73.3245C50.5929 74.2508 52.1492 74.0983 53.331 73.8299C56.2166 73.1746 59.0605 72.3276 61.9951 71.8961C62.7586 71.7839 63.4639 71.4491 64.0725 70.9663C64.6839 70.4813 64.9009 70.0152 64.4742 69.1133C63.4363 66.9188 61.6365 65.6663 59.621 64.5068ZM38.9235 56.0857C40.8891 55.9894 42.433 55.4781 43.7785 54.3782C44.323 53.933 44.5807 53.373 44.4467 52.6914C43.9591 50.2103 42.7134 48.2862 40.37 47.2796C37.9359 46.2339 35.3034 47.6881 34.2479 50.6009C33.4843 52.7082 34.6454 54.8261 37.0837 55.6769C37.7536 55.9106 38.4753 55.9895 38.9235 56.0857ZM82.271 108.126C80.5503 109.611 78.7359 110.186 76.6613 109.897C75.3474 109.714 74.9724 110.269 75.4977 111.537C75.8023 112.272 76.3839 112.669 77.0821 112.906C78.7904 113.484 80.5149 113.412 82.2294 112.944C83.2414 112.668 83.5921 111.952 83.2786 110.949C82.9961 110.046 82.6449 109.165 82.271 108.126ZM49.4306 110.189C47.4418 109.884 45.4338 109.808 43.4766 109.363C43.0191 109.258 42.3709 108.896 42.1503 109.742C41.9604 110.469 42.2539 111.041 42.9103 111.306C44.7211 112.037 46.5735 112.147 48.4127 111.423C48.8976 111.232 49.3754 110.917 49.4306 110.189ZM61.0129 48.2579C60.9844 49.9894 63.0853 52.2839 64.7712 52.3728C64.9494 52.3822 65.1643 52.4466 65.2117 52.2295C65.2451 52.0767 65.1577 51.8831 65.0897 51.723C64.9236 51.3317 64.5014 51.3544 64.2001 51.1805C62.9976 50.4865 61.8689 49.7315 61.9884 48.069C62.0882 46.6805 63.3898 45.2694 64.9232 44.8556C65.2257 44.7739 65.5378 44.7291 65.8404 44.6473C66.1558 44.562 66.2473 44.3104 66.2075 44.0121C66.1646 43.6914 65.9087 43.7547 65.6921 43.7412C63.6438 43.6142 61.0481 46.1176 61.0129 48.2579ZM60.6918 55.0403C61.0998 55.0088 61.6548 54.9507 61.6577 54.5086C61.6617 53.9179 61.0514 53.9703 60.6241 53.9613C60.1835 53.9521 59.5591 53.9657 59.5864 54.5153C59.6122 55.0346 60.2516 54.9897 60.6918 55.0403ZM65.3091 46.8305C64.9475 46.901 64.7439 47.1461 64.7632 47.4897C64.7807 47.8017 64.9104 48.1479 65.2971 48.1424C65.6685 48.1371 65.8221 47.8482 65.8305 47.4943C65.8391 47.1314 65.6601 46.9066 65.3091 46.8305Z" fill="#666F80"/>
<path d="M30.3442 103.449C30.6667 105.148 30.9968 106.731 31.2621 108.325C31.5838 110.258 32.237 112.149 32.0415 114.151C31.8163 116.458 30.6241 118.016 28.4156 118.57C26.307 119.098 24.218 119.143 22.095 118.29C19.0447 117.064 19.2071 114.426 20.6493 112.697C21.8422 111.268 21.5957 110.238 20.9081 108.836C19.4321 105.824 17.6707 102.979 15.5989 100.403C9.32815 92.6052 8.44494 83.7893 10.3804 74.3095C11.7996 67.3579 14.3383 60.7942 16.8353 54.2103C17.0428 53.6633 17.3542 53.1506 17.2859 52.5132C17.2204 51.9021 17.0467 51.538 16.3421 51.4381C10.8076 50.6534 7.37624 47.3089 6.10229 41.9072C4.80706 36.4153 2.97223 31.1221 1.26079 25.7715C-0.00264561 21.8214 -0.328479 17.6803 0.337405 13.5264C1.26907 7.71454 5.31924 5.35433 10.7869 7.33539C14.8209 8.79701 17.8663 11.5845 20.6142 14.7789C22.8361 17.3617 25.0025 19.9947 27.167 22.6282C27.6 23.155 27.9975 23.3519 28.6662 23.0886C32.3799 21.6266 36.2314 20.7595 40.2009 20.4926C41.188 20.4262 41.6174 20.0137 41.9829 19.0587C44.2769 13.064 46.9856 7.28612 51.1634 2.37196C52.4331 0.878471 53.961 -0.431025 56.0503 0.134352C58.1553 0.703945 58.7414 2.65937 59.176 4.57869C59.8594 7.59653 59.4766 10.6096 58.9958 13.6007C58.5379 16.4491 57.9927 19.2839 57.432 22.1135C57.2541 23.0115 57.5166 23.5246 58.2571 24.0308C66.7762 29.8537 69.9805 39.4197 66.7245 49.2695C66.3753 50.326 66.5006 51.2656 67.1206 52.1294C67.7829 53.0519 68.4976 53.936 69.2051 54.8238C72.5089 58.9692 72.9902 65.6607 70.2155 70.1962C69.7367 70.9789 69.7942 71.4196 70.3432 72.067C71.3495 73.254 72.0252 74.671 72.6501 76.0908C73.8915 78.9112 75.6623 81.2548 78.0981 83.1271C81.632 85.8436 84.2523 89.268 85.3844 93.7212C86.3904 97.6784 86.254 101.565 84.2973 105.206C83.6625 106.387 83.6586 107.423 84.1194 108.579C84.3054 109.046 84.4713 109.522 84.6244 110.001C85.4303 112.522 84.7717 113.912 82.2743 114.546C80.2394 115.063 78.1694 115.058 76.2051 114.129C74.5372 113.341 73.5942 112.009 73.7595 110.106C73.8371 109.213 73.3936 108.976 72.8042 108.564C71.3292 107.533 70.0311 107.197 68.4069 108.438C67.1559 109.394 65.5124 109.662 63.9308 109.792C63.2059 109.852 62.9959 110.16 63.1292 110.854C63.3101 111.797 63.5272 112.646 64.2608 113.399C66.2138 115.403 65.5591 118.449 62.9467 119.403C60.0017 120.48 57.0711 120.016 54.3167 118.681C52.8022 117.947 52.6018 116.293 52.4579 114.776C52.3413 113.546 52.387 112.3 52.3561 111.062C52.3461 110.661 52.4421 110.199 51.8645 110.093C51.3916 110.006 51.2539 110.336 51.1029 110.689C50.1983 112.805 48.429 113.403 46.3782 113.385C45.1211 113.373 43.8647 113.198 42.6555 112.812C40.9705 112.274 40.3393 111.298 40.533 109.501C40.589 108.981 40.7351 108.6 40.0196 108.359C36.7608 107.26 33.7299 105.686 30.9707 103.585C30.8769 103.513 30.7213 103.526 30.3442 103.449ZM33.2593 76.1827C36.9235 78.9031 42.0792 78.4962 45.5728 75.0369C48.6367 72.0031 51.6321 68.935 55.3305 66.6503C56.8985 65.6816 58.1228 64.22 58.5009 62.2105C58.7368 60.9568 58.6433 60.0059 57.3413 59.3767C56.3782 58.9112 55.4795 58.2587 54.6473 57.5697C53.3432 56.49 53.4077 54.901 54.752 53.8921C56.1327 52.8558 57.7387 52.3296 59.4181 52.3769C60.8454 52.417 62.4359 52.6478 63.0726 54.2233C63.7295 55.8487 63.1131 57.3623 62.0817 58.6847C61.8312 59.0059 61.525 59.2835 61.2332 59.5692C59.8041 60.9687 59.7992 62.7718 61.5299 63.747C63.6794 64.9582 65.1513 66.6629 66.2744 68.8056C66.6144 69.4542 67.0794 70.1537 67.9034 70.0416C68.8057 69.9189 69.1875 69.1348 69.4437 68.3109C70.045 66.3769 70.269 64.4653 70.047 62.3843C69.8032 60.0994 69.5066 57.9527 68.0429 56.1258C67.5346 55.4913 67.041 54.8444 66.5407 54.2032C65.6122 53.317 65.6116 51.7472 64.2411 51.1461C62.6714 50.4577 61.8261 49.1946 61.9631 48.061C62.1421 46.5802 63.4377 45.1104 65.068 44.8401C66.0437 44.6784 66.3127 44.225 66.345 43.3263C66.5836 36.6875 64.4385 31.0755 59.376 26.8043C55.7947 23.7828 51.4882 22.4989 46.9601 22.0189C41.246 21.4132 35.6755 22.2387 30.272 24.204C29.9357 24.3264 29.1741 24.2524 29.3433 24.8802C29.5051 25.4809 29.4792 25.8867 28.9539 26.1325C28.3168 26.4305 27.9918 25.84 27.5912 25.5049C26.8969 24.9239 26.545 23.9429 25.2955 23.5198C26.4289 25.7931 26.9532 27.9835 27.2192 30.2339C27.527 32.8389 27.3033 35.3749 25.9169 37.6645C25.2246 38.8079 24.6799 38.7556 24.0172 37.5947C23.8163 37.2427 23.6654 36.7735 23.1709 36.8313C22.7032 36.8859 22.5777 37.3575 22.4417 37.7345C21.908 39.2149 21.8614 40.7854 21.6654 42.3278C21.2609 45.509 18.4331 47.5293 15.3498 46.8595C12.6721 46.2778 10.6801 44.6252 8.88202 42.6406C8.57984 42.3071 8.41913 41.7075 7.74741 41.8381C8.74456 45.5146 10.8056 48.1564 14.4494 49.3185C16.0012 49.8135 17.5926 50.0579 19.218 50.0804C19.7806 50.0882 20.3683 50.1612 20.4468 50.8622C20.5304 51.6087 20.0167 51.7721 19.399 51.7344C18.9386 51.7062 18.7858 51.8869 18.8489 52.3914C19.2128 55.3002 19.942 58.092 21.8749 60.3334C23.2053 61.8761 24.1363 63.5729 24.9054 65.4604C26.5859 69.5849 29.0834 73.1218 32.7021 75.7426C32.7021 75.7426 32.9613 75.9503 33.2593 76.1827ZM23.6117 117.233C23.6865 117.243 23.7613 117.253 23.8361 117.264C24.3337 117.38 24.5906 117.409 25.2625 117.409C25.8 117.409 26.0935 117.386 26.6063 117.273C29.6965 116.59 30.9342 115.924 30.3487 112.304C29.8598 109.28 29.1567 106.29 28.7395 103.258C28.5646 101.987 28.1294 101.09 27.2293 100.221C25.0361 98.101 23.2149 95.6521 21.6201 93.0319C21.328 92.552 20.9895 92.0359 21.6262 91.6027C22.3273 91.1256 22.6815 91.6704 23.0061 92.2C23.1253 92.3945 23.2413 92.591 23.3641 92.783C29.6419 102.603 38.3932 108.039 49.9868 108.41C52.6683 108.495 52.697 108.46 52.2856 105.731C51.8077 102.56 51.273 99.398 50.7667 96.2316C50.6648 95.594 50.4783 94.853 51.3754 94.6919C52.2704 94.5311 52.2413 95.3746 52.3139 95.8931C53.0303 101.003 54.4908 106.03 53.8789 111.294C53.7382 112.504 53.9251 113.769 54.0751 114.994C54.211 116.105 54.5591 117.175 55.7218 117.639C57.9379 118.523 60.2064 118.57 62.4295 117.765C63.9098 117.229 64.1825 115.936 63.2001 114.686C62.1512 113.351 60.7951 112.809 59.1416 113.247C58.5872 113.394 58.1348 113.411 58.0045 112.729C57.8891 112.125 58.1953 111.813 58.7758 111.67C59.4005 111.515 60.0181 111.423 60.6374 111.609C61.3975 111.836 61.7043 111.701 61.509 110.796C61.0912 108.861 61.0264 106.889 61.0515 104.911C61.1385 98.0594 62.8977 91.3711 62.96 84.5167C62.9653 83.9342 63.3816 83.6809 63.8563 83.713C64.2928 83.7425 64.5448 84.0955 64.5345 84.5865C64.5257 84.9992 64.5532 85.4131 64.5362 85.8253C64.3859 89.4516 63.8441 93.0334 63.3271 96.6166C62.8217 100.119 62.5137 103.631 62.6798 107.173C62.703 107.669 62.5254 108.284 63.4616 108.224C65.535 108.09 67.4109 107.499 69.0803 106.162C68.0956 105.026 67.0368 104.032 66.2464 102.804C65.8545 102.194 65.3638 101.639 65.2558 100.878C65.2024 100.502 65.2033 100.105 65.5815 99.9215C66.0094 99.7142 66.3673 99.9133 66.6144 100.303C66.8333 100.649 67.025 101.013 67.2498 101.355C69.1215 104.199 71.4734 106.459 74.6674 107.691C78.5482 109.188 81.7329 107.89 83.1775 103.941C85.3406 98.0283 84.6209 92.5142 80.5018 87.6232C79.3224 86.2228 77.9335 85.0597 76.536 83.9076C74.2199 81.9984 72.4534 79.6767 71.2828 76.8738C70.5931 75.2221 69.6854 73.6944 68.5134 72.3472C67.872 71.6098 66.1861 71.1495 65.7281 71.6008C64.5803 72.732 63.1861 73.2821 61.6473 73.5382C59.4331 73.9067 57.2632 74.4706 55.0898 75.0331C53.3881 75.4736 51.5545 75.9327 49.9375 75.0977C48.6124 74.4134 47.9258 74.8689 47.1582 75.7912C46.9272 76.0689 46.6392 76.2984 46.3698 76.5413C42.5054 80.0257 38.4146 80.6345 33.8112 78.2583C28.3805 75.4552 25.2126 70.647 22.9512 65.0952C22.64 64.3312 22.3742 63.5717 21.7907 62.9576C20.1704 61.2523 19.0616 59.2242 18.2589 57.0071C18.1633 56.743 18.2341 56.3159 17.7492 56.317C15.5119 62.2578 13.4489 68.2463 12.045 74.4761C10.0576 83.2955 10.8543 91.4684 16.4578 98.8514C18.7076 101.816 20.8911 104.877 22.4068 108.322C23.0133 109.701 23.4704 110.767 25.2039 109.985C25.4902 109.856 25.9105 109.981 26.2548 110.056C26.627 110.137 26.7006 110.479 26.6974 110.813C26.6941 111.16 26.5479 111.444 26.1979 111.544C26.0296 111.592 25.8432 111.588 25.6654 111.585C24.9743 111.572 24.3452 111.826 23.7193 112.069C22.3248 112.612 21.2733 113.909 21.3224 115.083C21.3838 116.548 22.6015 116.789 23.6117 117.233ZM1.69321 18.178C1.75608 19.3764 1.8336 21.2907 2.2384 23.1873C3.18146 27.6061 4.98826 31.7138 6.66706 35.851C8.0212 39.1882 10.1282 42.069 13.1362 44.1198C17.0323 46.7762 19.9497 45.3463 20.3619 40.6116C20.4295 39.8349 20.4914 39.0565 20.5971 38.2848C20.7235 37.3619 21.0497 36.5164 21.6657 35.8064C22.2301 35.1558 22.9158 35.0267 23.7416 35.1632C24.2341 35.2446 24.5722 36.165 25.0699 35.5866C25.4171 35.1831 25.4811 34.4889 25.5792 33.9083C25.6855 33.2798 25.7815 32.6218 25.7156 31.9948C24.695 22.2804 20.302 14.6744 12.0715 9.5375C10.552 8.58911 8.8084 8.30079 7.01117 8.41123C4.46127 8.56792 3.06099 9.64933 2.2805 12.15C1.74175 13.8762 1.63931 15.6585 1.69321 18.178ZM49.6531 11.5747C49.68 14.9712 50.0619 17.6702 51.1224 20.2408C51.33 20.7437 51.4976 21.2181 52.148 21.3766C53.1026 21.6091 54.0429 21.9336 54.9545 22.3073C55.4903 22.527 55.7672 22.5663 55.8369 21.8729C56.1946 18.3156 57.2907 14.8912 57.6979 11.3468C57.9965 8.74792 58.0289 6.12575 57.256 3.58877C56.5934 1.41381 55.4499 1.04667 53.6297 2.30882C51.65 3.68149 50.3158 5.46311 50.0105 7.96919C49.8388 9.37796 49.6276 10.7786 49.6531 11.5747ZM52.145 73.7802C53.0172 73.7922 53.7199 73.7133 54.426 73.5263C56.7246 72.9178 59.0018 72.2123 61.3799 71.9529C62.4641 71.8347 63.4705 71.4775 64.2814 70.6534C64.7278 70.1997 64.851 69.793 64.5013 69.2105C63.867 68.1539 63.2951 67.0419 62.3004 66.2889C61.5147 65.6941 60.713 64.927 59.8169 64.738C59.0531 64.5769 58.9204 65.8441 58.3511 66.3339C58.2142 66.4518 58.0559 66.5452 57.9262 66.6701C55.9911 68.5339 53.5718 69.735 51.5748 71.5088C50.9991 72.0202 49.9014 72.4425 50.1976 73.2931C50.4563 74.0359 51.5502 73.732 52.145 73.7802ZM43.284 20.2365C45.0837 20.4701 46.8302 20.1783 48.5043 20.8088C49.0274 21.0058 49.6882 20.8264 49.3117 19.8539C49.002 19.0539 48.852 18.1891 48.6355 17.3519C48.0213 14.9766 48.0651 12.5365 48.0811 9.72749C46.1635 13.3488 44.4976 16.645 43.284 20.2365ZM82.2692 108.015C80.5882 109.574 78.7481 110.079 76.6767 109.834C76.2662 109.786 75.7019 109.382 75.4453 109.843C75.1664 110.345 75.2663 110.995 75.5348 111.56C75.8944 112.316 76.5353 112.771 77.2766 112.955C78.9533 113.372 80.6541 113.365 82.3139 112.837C83.2197 112.549 83.6122 111.908 83.272 110.925C82.9597 110.023 82.6499 109.12 82.2692 108.015ZM49.5739 110.096C47.3442 109.858 45.2474 109.687 43.1867 109.254C42.8533 109.184 42.4481 108.981 42.252 109.455C42.0735 109.887 42.0139 110.377 42.3427 110.756C42.6357 111.093 43.0022 111.355 43.4589 111.483C44.7356 111.84 46.0368 111.9 47.3274 111.71C48.2027 111.581 49.0531 111.259 49.5739 110.096ZM60.7303 55.0372C61.1665 54.9892 61.7549 54.9464 61.693 54.3897C61.6358 53.8754 61.0317 53.9103 60.5951 53.91C60.152 53.9097 59.531 53.9661 59.558 54.4542C59.5895 55.0213 60.2496 54.9918 60.7303 55.0372ZM65.8904 47.4813C65.8808 47.1186 65.7169 46.8384 65.358 46.8202C64.884 46.7961 64.783 47.1731 64.7868 47.5597C64.7904 47.9248 64.9718 48.1762 65.3634 48.1382C65.7332 48.1022 65.8901 47.8466 65.8904 47.4813Z" fill="black"/>
<path d="M61.7423 51.6636C58.9724 51.7621 56.1933 51.5742 53.4481 52.2342C51.5179 52.6982 49.7618 53.6336 47.8641 54.1634C46.9133 53.5504 46.989 53.0028 47.9623 52.5069C52.0256 50.4364 56.3472 49.7773 60.8349 50.0971C61.7664 50.1635 62.4447 50.536 61.7423 51.6636Z" fill="black"/>
<path d="M55.8631 48.9827C54.1905 48.909 52.5889 49.2674 51.0076 49.7846C50.4927 49.9531 49.8717 50.1683 49.6199 49.4181C49.3435 48.5945 49.9937 48.4359 50.5585 48.2511C52.695 47.5517 54.8728 47.1338 57.127 47.2653C57.7304 47.3005 58.5756 47.1862 58.497 48.1204C58.437 48.8334 57.7743 49.0572 57.0707 48.9887C56.6716 48.9498 56.2658 48.9816 55.8631 48.9827Z" fill="black"/>
<path d="M39.0412 55.0833C38.9144 55.0747 38.5946 55.0885 38.2897 55.0263C36.8232 54.7273 35.4791 54.1702 35.0471 52.5417C34.6326 50.979 35.4714 49.7848 36.5137 48.7938C37.6992 47.6668 38.9604 47.5841 40.4839 48.3707C40.643 48.4528 40.8022 48.537 40.9523 48.6347C42.449 49.6081 43.8001 52.055 43.4893 53.2231C43.2677 54.0559 40.9444 55.0694 39.0412 55.0833ZM41.718 51.1087C41.7177 50.744 41.5352 50.498 41.1933 50.4464C40.8154 50.3894 40.6081 50.671 40.5752 50.9964C40.5374 51.3711 40.6604 51.7271 41.13 51.7275C41.5126 51.7277 41.6347 51.4297 41.718 51.1087Z" fill="black"/>
<path d="M41.7175 51.1093C41.6352 51.4296 41.5132 51.7277 41.1306 51.7274C40.661 51.7271 40.5379 51.3711 40.5757 50.9963C40.6086 50.6709 40.8159 50.3893 41.1938 50.4464C41.5357 50.4979 41.7183 50.744 41.7175 51.1093Z" fill="#FDFDFD"/>
<path d="M43.2844 20.2365C44.498 16.6451 46.1639 13.3488 48.0815 9.72754C48.0656 12.5365 48.0217 14.9766 48.6359 17.3519C48.8524 18.1892 49.0024 19.054 49.3121 19.854C49.6886 20.8264 49.0278 21.0058 48.5047 20.8088C46.8306 20.1783 45.0841 20.4701 43.2844 20.2365Z" fill="#666F80"/>
</svg>
