<svg width="124" height="170" viewBox="0 0 124 170" fill="none" xmlns="http://www.w3.org/2000/svg">
<path d="M43.7522 146.552C44.2171 148.959 44.6931 151.202 45.0756 153.461C45.5394 156.199 46.4812 158.878 46.1994 161.715C45.8747 164.982 44.1556 167.189 40.9713 167.974C37.9311 168.722 34.919 168.786 31.8579 167.578C27.4597 165.841 27.694 162.103 29.7735 159.655C31.4934 157.63 31.1379 156.171 30.1466 154.184C28.0184 149.918 25.4787 145.887 22.4915 142.237C13.4499 131.191 12.1764 118.702 14.9671 105.272C17.0134 95.4237 20.6738 86.1251 24.2742 76.7979C24.5733 76.023 25.0223 75.2967 24.9239 74.3937C24.8295 73.528 24.579 73.0121 23.563 72.8706C15.5831 71.759 10.6355 67.0209 8.79865 59.3685C6.93111 51.5883 4.28554 44.0897 1.81789 36.5096C-0.00381467 30.9137 -0.473621 25.047 0.48649 19.1624C1.82983 10.9289 7.6696 7.5853 15.5531 10.3918C21.3696 12.4624 25.7607 16.4113 29.7228 20.9368C32.9265 24.5958 36.0502 28.3259 39.1711 32.0566C39.7953 32.8029 40.3685 33.0818 41.3327 32.7089C46.6872 30.6377 52.2406 29.4094 57.964 29.0311C59.3874 28.9371 60.0065 28.3528 60.5334 26.9998C63.8411 18.5074 67.7467 10.322 73.7705 3.36028C75.6013 1.2445 77.8042 -0.610619 80.8168 0.190332C83.8518 0.997255 84.6969 3.76744 85.3236 6.48648C86.3089 10.7618 85.757 15.0302 85.0637 19.2677C84.4035 23.3029 83.6174 27.3188 82.809 31.3274C82.5524 32.5997 82.9309 33.3266 83.9986 34.0436C96.2819 42.2928 100.902 55.8445 96.2075 69.7984C95.7039 71.2951 95.8845 72.6263 96.7786 73.85C97.7335 75.1569 98.7639 76.4094 99.7841 77.6671C104.548 83.5397 105.242 93.0193 101.241 99.4447C100.551 100.553 100.634 101.178 101.425 102.095C102.876 103.776 103.85 105.784 104.751 107.795C106.541 111.791 109.094 115.111 112.607 117.763C117.702 121.612 121.48 126.463 123.112 132.772C124.563 138.378 124.366 143.884 121.545 149.042C120.63 150.715 120.624 152.182 121.289 153.82C121.557 154.482 121.796 155.156 122.017 155.834C123.179 159.406 122.229 161.376 118.628 162.274C115.694 163.006 112.709 162.998 109.877 161.683C107.472 160.566 106.113 158.679 106.351 155.984C106.463 154.719 105.823 154.383 104.973 153.799C102.847 152.338 100.975 151.862 98.6331 153.62C96.8295 154.975 94.4597 155.355 92.1794 155.539C91.1341 155.623 90.8313 156.061 91.0234 157.044C91.2844 158.38 91.5974 159.582 92.6551 160.649C95.4711 163.487 94.527 167.802 90.7604 169.155C86.514 170.68 82.2885 170.022 78.3171 168.131C76.1335 167.091 75.8444 164.748 75.637 162.599C75.4688 160.857 75.5348 159.092 75.4902 157.338C75.4758 156.77 75.6141 156.116 74.7814 155.965C74.0995 155.841 73.901 156.31 73.6833 156.81C72.379 159.808 69.8279 160.655 66.8709 160.628C65.0584 160.612 63.2468 160.363 61.5033 159.817C59.0737 159.055 58.1637 157.672 58.4429 155.126C58.5237 154.39 58.7343 153.85 57.7027 153.508C53.004 151.951 48.6337 149.721 44.6554 146.745C44.5202 146.644 44.2958 146.663 43.7522 146.552ZM47.9553 107.926C53.2386 111.779 60.6723 111.203 65.7096 106.302C70.1273 102.004 74.4463 97.6579 79.7789 94.4212C82.0398 93.049 83.805 90.9783 84.3502 88.1315C84.6903 86.3555 84.5555 85.0084 82.6782 84.1169C81.2895 83.4575 79.9938 82.5332 78.7938 81.5571C76.9135 80.0276 77.0065 77.7764 78.9447 76.3471C80.9355 74.8791 83.2512 74.1336 85.6726 74.2006C87.7306 74.2575 90.0239 74.5844 90.9419 76.8164C91.889 79.119 91.0002 81.2633 89.5132 83.1367C89.152 83.5917 88.7105 83.985 88.2898 84.3898C86.2292 86.3723 86.2221 88.9268 88.7175 90.3083C91.8168 92.0241 93.9391 94.4391 95.5584 97.4746C96.0486 98.3935 96.7191 99.3844 97.9072 99.2256C99.2082 99.0518 99.7587 97.941 100.128 96.7737C100.995 94.0339 101.318 91.3259 100.998 88.3778C100.646 85.1408 100.219 82.0997 98.1084 79.5116C97.3754 78.6127 96.6638 77.6962 95.9424 76.7878C94.6036 75.5324 94.6028 73.3085 92.6267 72.457C90.3634 71.4817 89.1446 69.6923 89.3422 68.0864C89.6002 65.9885 91.4683 63.9063 93.819 63.5235C95.2258 63.2944 95.6137 62.6521 95.6603 61.3789C96.0042 51.974 92.9113 44.0237 85.6119 37.9728C80.4481 33.6923 74.2387 31.8734 67.7099 31.1935C59.4709 30.3354 51.4391 31.5048 43.648 34.2891C43.163 34.4624 42.065 34.3575 42.3089 35.247C42.5422 36.0979 42.5049 36.6729 41.7475 37.021C40.8289 37.4433 40.3603 36.6067 39.7827 36.1319C38.7816 35.3089 38.2742 33.919 36.4726 33.3197C38.1068 36.5402 38.8628 39.6433 39.2462 42.8313C39.6902 46.5217 39.3676 50.1145 37.3686 53.358C36.3703 54.9778 35.585 54.9038 34.6295 53.2591C34.3398 52.7605 34.1222 52.0958 33.4092 52.1776C32.7349 52.255 32.5538 52.9231 32.3578 53.4573C31.5882 55.5545 31.5211 57.7794 31.2384 59.9643C30.6553 64.4711 26.578 67.3332 22.1323 66.3843C18.2714 65.5602 15.3993 63.219 12.8066 60.4076C12.3709 59.9351 12.1392 59.0856 11.1707 59.2707C12.6084 64.479 15.5802 68.2215 20.834 69.8679C23.0715 70.5691 25.3661 70.9154 27.7097 70.9472C28.5209 70.9582 29.3683 71.0617 29.4814 72.0548C29.6019 73.1124 28.8613 73.3438 27.9707 73.2903C27.3069 73.2505 27.0865 73.5065 27.1775 74.2212C27.7021 78.342 28.7535 82.297 31.5406 85.4723C33.4588 87.6578 34.8012 90.0616 35.9101 92.7355C38.3332 98.5786 41.9342 103.589 47.1519 107.302C47.1519 107.302 47.5256 107.596 47.9553 107.926ZM34.0447 166.08C34.1526 166.094 34.2605 166.109 34.3684 166.123C35.0857 166.288 35.4562 166.33 36.425 166.33C37.2 166.33 37.6231 166.297 38.3625 166.136C42.8182 165.169 44.6028 164.226 43.7586 159.097C43.0536 154.813 42.04 150.578 41.4383 146.282C41.1862 144.482 40.5587 143.211 39.2609 141.979C36.0985 138.976 33.4727 135.507 31.1732 131.795C30.7521 131.115 30.2639 130.384 31.1819 129.77C32.1928 129.095 32.7035 129.866 33.1716 130.617C33.3434 130.892 33.5107 131.171 33.6877 131.443C42.7395 145.355 55.3576 153.055 72.074 153.58C75.9403 153.702 75.9818 153.652 75.3886 149.785C74.6994 145.293 73.9285 140.814 73.1986 136.328C73.0516 135.425 72.7827 134.375 74.0761 134.147C75.3665 133.919 75.3246 135.114 75.4294 135.848C76.4623 143.088 78.5682 150.209 77.6858 157.667C77.483 159.381 77.7524 161.173 77.9687 162.909C78.1648 164.482 78.6667 165.998 80.343 166.655C83.5383 167.908 86.8092 167.974 90.0147 166.834C92.149 166.074 92.5422 164.243 91.1257 162.472C89.6133 160.581 87.658 159.812 85.274 160.433C84.4746 160.641 83.8223 160.666 83.6344 159.7C83.4679 158.844 83.9095 158.402 84.7465 158.198C85.6472 157.979 86.5377 157.85 87.4307 158.112C88.5266 158.435 88.969 158.243 88.6875 156.961C88.085 154.22 87.9915 151.426 88.0277 148.625C88.1532 138.918 90.6897 129.442 90.7796 119.732C90.7872 118.907 91.3874 118.548 92.0719 118.593C92.7012 118.635 93.0646 119.135 93.0497 119.831C93.0371 120.416 93.0767 121.002 93.0521 121.586C92.8355 126.723 92.0543 131.797 91.3088 136.873C90.5802 141.835 90.1361 146.81 90.3755 151.828C90.409 152.531 90.1529 153.403 91.5027 153.317C94.4924 153.128 97.1971 152.29 99.6042 150.397C98.1843 148.786 96.6577 147.378 95.5181 145.638C94.9529 144.776 94.2454 143.988 94.0897 142.911C94.0127 142.378 94.0141 141.815 94.5593 141.555C95.1763 141.262 95.6924 141.544 96.0486 142.097C96.3643 142.586 96.6407 143.102 96.9648 143.586C99.6635 147.615 103.055 150.817 107.66 152.562C113.256 154.683 117.847 152.844 119.93 147.25C123.049 138.873 122.012 131.062 116.072 124.133C114.372 122.149 112.369 120.501 110.354 118.869C107.015 116.164 104.468 112.875 102.78 108.905C101.785 106.565 100.477 104.4 98.7868 102.492C97.862 101.447 95.4311 100.795 94.7707 101.435C93.1157 103.037 91.1055 103.816 88.8868 104.179C85.6942 104.701 82.5655 105.5 79.4319 106.297C76.9782 106.921 74.3343 107.571 72.003 106.388C70.0922 105.419 69.1023 106.064 67.9956 107.371C67.6625 107.764 67.2472 108.089 66.8588 108.433C61.2869 113.37 55.3885 114.232 48.751 110.866C40.9206 106.895 36.3531 100.083 33.0924 92.2182C32.6437 91.1359 32.2604 90.0598 31.4191 89.1899C29.0829 86.7742 27.4842 83.9009 26.3268 80.76C26.1889 80.3859 26.291 79.7809 25.5918 79.7824C22.3661 88.1985 19.3914 96.6822 17.3672 105.508C14.5017 118.002 15.6504 129.58 23.7299 140.039C26.9738 144.239 30.1221 148.576 32.3074 153.456C33.182 155.409 33.841 156.92 36.3404 155.812C36.7533 155.629 37.3593 155.806 37.8557 155.913C38.3924 156.028 38.4986 156.512 38.494 156.985C38.4892 157.477 38.2783 157.879 37.7737 158.021C37.531 158.089 37.2623 158.083 37.0059 158.078C36.0094 158.061 35.1023 158.42 34.2 158.765C32.1892 159.534 30.6731 161.371 30.744 163.034C30.8325 165.11 32.5882 165.45 34.0447 166.08ZM2.44137 25.7522C2.53203 27.4499 2.6438 30.1618 3.22746 32.8487C4.58722 39.1086 7.19237 44.9278 9.61297 50.7889C11.5654 55.5166 14.6035 59.5977 18.9406 62.5031C24.5582 66.2662 28.7646 64.2406 29.359 57.5331C29.4565 56.4328 29.5457 55.33 29.6981 54.2368C29.8804 52.9294 30.3507 51.7315 31.2388 50.7258C32.0527 49.8041 33.0414 49.6211 34.2321 49.8145C34.9422 49.9299 35.4297 51.2338 36.1473 50.4144C36.6479 49.8427 36.7402 48.8593 36.8817 48.0368C37.0348 47.1464 37.1733 46.2141 37.0783 45.326C35.6068 31.5639 29.2727 20.7888 17.4055 13.5115C15.2145 12.1679 12.7005 11.7595 10.1091 11.9159C6.43253 12.1379 4.41352 13.6699 3.28816 17.2125C2.51136 19.6579 2.36366 22.1828 2.44137 25.7522ZM71.5929 16.3975C71.6316 21.2092 72.1822 25.0328 73.7114 28.6744C74.0106 29.387 74.2523 30.059 75.1901 30.2835C76.5665 30.6129 77.9223 31.0726 79.2368 31.602C80.0093 31.9132 80.4085 31.9689 80.509 30.9865C81.0248 25.9471 82.6052 21.0958 83.1923 16.0747C83.6228 12.3929 83.6695 8.67814 82.5551 5.08408C81.5998 2.00289 79.951 1.48278 77.3265 3.27083C74.4721 5.21545 72.5484 7.73941 72.1081 11.2897C71.8606 13.2854 71.5561 15.2696 71.5929 16.3975ZM75.1858 104.522C76.4434 104.539 77.4566 104.427 78.4747 104.162C81.789 103.3 85.0723 102.301 88.5013 101.933C90.0645 101.766 91.5157 101.26 92.6848 100.092C93.3285 99.4496 93.5061 98.8734 93.0019 98.0482C92.0873 96.5513 91.2627 94.976 89.8286 93.9093C88.6957 93.0666 87.5396 91.9799 86.2476 91.7121C85.1463 91.4839 84.955 93.2792 84.1341 93.9731C83.9367 94.14 83.7085 94.2724 83.5214 94.4493C80.7314 97.0897 77.243 98.7912 74.3636 101.304C73.5336 102.029 71.9509 102.627 72.378 103.832C72.751 104.884 74.3281 104.454 75.1858 104.522ZM62.4095 28.6684C65.0044 28.9993 67.5227 28.5859 69.9365 29.4791C70.6907 29.7582 71.6434 29.504 71.1006 28.1264C70.654 26.9931 70.4378 25.7679 70.1256 24.5818C69.24 21.2169 69.3032 17.76 69.3263 13.7806C66.5613 18.9108 64.1594 23.5805 62.4095 28.6684ZM118.621 153.021C116.197 155.23 113.544 155.945 110.557 155.598C109.965 155.53 109.152 154.957 108.782 155.611C108.379 156.322 108.524 157.243 108.911 158.043C109.429 159.114 110.353 159.758 111.422 160.02C113.84 160.61 116.292 160.601 118.685 159.853C119.991 159.444 120.557 158.536 120.067 157.144C119.616 155.866 119.17 154.586 118.621 153.021ZM71.4786 155.97C68.2637 155.632 65.2404 155.39 62.2692 154.776C61.7885 154.677 61.2043 154.39 60.9215 155.062C60.6641 155.673 60.5781 156.368 61.0523 156.904C61.4747 157.381 62.0032 157.754 62.6616 157.934C64.5026 158.44 66.3786 158.525 68.2396 158.256C69.5016 158.074 70.7277 157.617 71.4786 155.97ZM87.5646 77.9694C88.1936 77.9014 89.0419 77.8407 88.9527 77.052C88.8702 76.3235 87.9993 76.3729 87.3697 76.3725C86.7308 76.3721 85.8354 76.452 85.8744 77.1435C85.9197 77.9469 86.8715 77.9051 87.5646 77.9694ZM95.0048 67.2651C94.9909 66.7513 94.7545 66.3544 94.237 66.3286C93.5537 66.2945 93.4081 66.8285 93.4135 67.3762C93.4187 67.8935 93.6803 68.2497 94.2449 68.1957C94.778 68.1448 95.0044 67.7827 95.0048 67.2651Z" fill="black"/>
<path d="M36.4252 166.33C35.6502 166.33 35.0859 166.289 34.3686 166.124C34.2538 166.098 34.2388 166.124 34.0449 166.081C32.4966 165.731 30.8326 165.111 30.7441 163.035C30.6732 161.371 32.1894 159.535 34.2001 158.766C35.1025 158.42 36.0096 158.061 37.006 158.079C37.2624 158.084 37.5312 158.089 37.7739 158.021C38.2785 157.88 38.4893 157.478 38.4941 156.986C38.4987 156.513 38.3925 156.028 37.8558 155.913C37.3595 155.807 36.7534 155.63 36.3406 155.813C33.8412 156.921 33.1822 155.41 32.3076 153.457C30.1222 148.577 26.9739 144.24 23.7301 140.04C15.6505 129.581 14.5018 118.003 17.3674 105.509C19.3915 96.683 22.3662 88.1993 25.592 79.7832C26.2911 79.7817 26.1891 80.3867 26.3269 80.7608C27.4843 83.9017 29.0831 86.775 31.4193 89.1907C32.2606 90.0607 32.6439 91.1367 33.0926 92.219C36.3532 100.084 40.9208 106.896 48.7511 110.867C55.3887 114.233 61.287 113.371 66.859 108.434C67.2474 108.09 67.6626 107.765 67.9958 107.372C69.1025 106.065 70.0924 105.42 72.0031 106.389C74.3345 107.572 76.9784 106.922 79.432 106.298C82.5657 105.501 85.6944 104.702 88.887 104.18C91.1057 103.817 93.1159 103.038 94.7709 101.435C95.4312 100.796 97.8621 101.448 98.787 102.493C100.477 104.401 101.786 106.565 102.78 108.905C104.468 112.876 107.015 116.165 110.354 118.87C112.369 120.502 114.372 122.15 116.073 124.134C122.012 131.063 123.049 138.874 119.931 147.251C117.848 152.845 113.256 154.683 107.66 152.563C103.055 150.818 99.6637 147.616 96.965 143.587C96.6409 143.103 96.3645 142.587 96.0488 142.097C95.6926 141.545 95.1765 141.263 94.5595 141.556C94.0143 141.816 94.0129 142.379 94.0899 142.912C94.2456 143.989 94.9531 144.776 95.5183 145.639C96.6579 147.379 98.1845 148.787 99.6044 150.398C97.1973 152.291 94.4925 153.128 91.5029 153.318C90.1531 153.404 90.4092 152.532 90.3757 151.829C90.1363 146.811 90.5804 141.835 91.309 136.874C92.0545 131.798 92.8357 126.724 93.0523 121.587C93.0769 121.003 93.0373 120.416 93.0499 119.832C93.0648 119.136 92.7014 118.636 92.0721 118.594C91.3876 118.549 90.7874 118.908 90.7798 119.733C90.6899 129.443 88.1534 138.918 88.0279 148.625C87.9917 151.427 88.0852 154.221 88.6876 156.962C88.9691 158.243 88.5268 158.435 87.4309 158.113C86.5379 157.851 85.6474 157.98 84.7467 158.199C83.9097 158.403 83.4681 158.845 83.6345 159.701C83.8224 160.667 84.4747 160.642 85.2742 160.434C87.6582 159.813 89.6135 160.582 91.1259 162.473C92.5424 164.244 92.1492 166.075 90.0148 166.834C86.8094 167.974 83.5385 167.909 80.3432 166.656C78.6668 165.999 78.1649 164.483 77.9689 162.909C77.7526 161.174 77.4831 159.382 77.686 157.667C78.5684 150.21 76.4625 143.089 75.4296 135.849C75.3248 135.115 75.3667 133.92 74.0763 134.148C72.7829 134.376 73.0518 135.426 73.1987 136.329C73.9287 140.815 74.6996 145.294 75.3888 149.786C75.9819 153.652 75.9405 153.702 72.0742 153.581C55.3578 153.056 42.7396 145.355 33.6879 131.443C33.5109 131.171 33.3436 130.893 33.1718 130.618C32.7037 129.867 32.193 129.095 31.1821 129.771C30.2641 130.385 30.7522 131.116 31.1734 131.796C33.4728 135.508 36.0987 138.977 39.261 141.98C40.5589 143.212 41.1863 144.483 41.4385 146.283C42.0401 150.579 43.0538 154.814 43.7587 159.098C44.6029 164.227 42.8184 165.157 38.3627 166.124C37.5225 166.355 37.2002 166.33 36.4252 166.33Z" fill="#A1A4B2"/>
<path d="M47.1529 107.305C41.9352 103.593 38.3342 98.582 35.9111 92.7389C34.8022 90.065 33.4598 87.6612 31.5415 85.4757C28.7545 82.3004 27.7031 78.3454 27.1785 74.2246C27.0875 73.5099 27.3078 73.2539 27.9716 73.2937C28.8623 73.3472 29.6029 73.1158 29.4824 72.0582C29.3693 71.065 28.5219 70.9616 27.7106 70.9506C25.3671 70.9187 23.0724 70.5725 20.835 69.8713C15.5811 68.2249 12.6094 64.4824 11.1716 59.274C12.1402 59.0889 12.3719 59.9385 12.8076 60.4109C15.4002 63.2224 18.2723 65.5636 22.1332 66.3877C26.579 67.3366 30.6563 64.4744 31.2394 59.9677C31.5221 57.7827 31.5892 55.5578 32.3588 53.4606C32.5548 52.9265 32.7358 52.2584 33.4101 52.181C34.1232 52.0991 34.3408 52.7638 34.6305 53.2625C35.586 54.9072 36.3713 54.9812 37.3696 53.3614C39.3686 50.1178 39.6911 46.5251 39.2472 42.8346C38.8638 39.6467 38.1078 36.5435 36.4736 33.3231C38.2751 33.9224 38.7826 35.3123 39.7837 36.1352C40.3613 36.61 40.8299 37.4466 41.7485 37.0244C42.5059 36.6762 42.5432 36.1013 42.3099 35.2503C42.0659 34.3609 43.164 34.4657 43.649 34.2924C51.4401 31.5081 59.472 30.3388 67.7109 31.1968C74.2398 31.8768 80.4492 33.6957 85.6129 37.9762C92.9124 44.027 96.0053 51.9774 95.6613 61.3823C95.6148 62.6554 95.2269 63.2978 93.8201 63.5269C91.4694 63.9097 89.6012 65.9919 89.3432 68.0897C89.1457 69.6957 90.3644 71.4851 92.6278 72.4604C94.6038 73.3119 94.6047 75.5358 95.9435 76.7912C93.1733 76.4919 91.3547 74.3498 89.0258 73.1961C90.0386 71.5987 89.0606 71.0709 87.7174 70.9769C81.2469 70.5238 75.0157 71.4576 69.157 74.3908C67.7537 75.0933 67.6444 75.8692 69.0154 76.7375C65.3391 80.1704 61.7938 83.7793 56.8818 85.4986C55.2837 86.058 53.869 86.9687 52.5076 87.9726C46.0019 92.7696 44.2309 99.0428 47.2825 106.537C47.3785 106.773 48.0553 107.929 47.9563 107.929C47.9028 107.929 47.7274 107.847 47.1529 107.305ZM56.8027 78.0252C58.8667 77.8941 61.2143 77.4297 62.6395 75.3919C63.5042 74.1556 61.2332 70.3115 59.1323 68.9246C58.9178 68.7829 58.6915 68.659 58.4696 68.5288C56.5187 67.3835 54.6539 67.5431 52.8909 68.9304C51.0121 70.4088 49.9808 72.8076 50.5656 74.5071C51.3373 76.7503 53.209 77.5429 55.3287 77.9365C55.7066 78.0067 56.1013 77.9863 56.8027 78.0252ZM80.8901 69.2455C81.47 69.2455 82.0509 69.2236 82.6295 69.2508C83.4284 69.2883 84.3371 69.3572 84.4103 68.2985C84.4839 67.233 83.7007 66.9606 82.7341 66.9253C79.2819 66.7993 75.9329 67.2512 72.6834 68.4651C71.865 68.7709 71.2233 69.0933 71.5675 70.0982C71.9003 71.0695 72.6126 70.8013 73.3191 70.577C75.7823 69.7954 78.2905 69.256 80.8901 69.2455Z" fill="#A1A4B2"/>
<path d="M2.44222 25.7536C2.36451 22.1842 2.51221 19.6593 3.28901 17.2139C4.41437 13.6713 6.43338 12.1393 10.11 11.9173C12.7013 11.7609 15.2154 12.1693 17.4063 13.5129C29.2736 20.7902 35.6076 31.5653 37.0792 45.3274C37.1742 46.2156 37.0357 47.1478 36.8825 48.0382C36.741 48.8607 36.6488 49.8441 36.1481 50.4158C35.4305 51.2352 34.9431 49.9313 34.2329 49.816C33.0422 49.6225 32.0536 49.8055 31.2397 50.7272C30.3516 51.7329 29.8812 52.9308 29.699 54.2382C29.5466 55.3314 29.4573 56.4342 29.3598 57.5345C28.7655 64.242 24.559 66.2677 18.9414 62.5045C14.6044 59.5991 11.5663 55.518 9.61382 50.7903C7.19322 44.9292 4.58808 39.1101 3.22831 32.8501C2.64465 30.1632 2.53288 27.4513 2.44222 25.7536Z" fill="#E5DADC"/>
<path d="M47.2812 106.532C44.2296 99.0376 46.0006 92.7644 52.5063 87.9674C53.8678 86.9635 55.2825 86.0528 56.8806 85.4934C61.7925 83.7741 65.3379 80.1652 69.0141 76.7323C71.7504 75.9817 74.2825 74.6566 77.0655 73.9992C81.0238 73.0642 85.0308 73.3305 89.0246 73.1909C91.3535 74.3446 93.1721 76.4866 95.9422 76.786C96.6636 77.6944 97.3752 78.6109 98.1082 79.5098C100.219 82.0979 100.646 85.1389 100.998 88.3759C101.318 91.3241 100.995 94.0321 100.128 96.7719C99.7586 97.9392 99.208 99.05 97.907 99.2238C96.719 99.3826 96.0484 98.3917 95.5582 97.4728C93.9389 94.4373 91.8166 92.0223 88.7173 90.3064C86.2219 88.9249 86.229 86.3705 88.2895 84.3879C88.7103 83.9831 89.1518 83.5899 89.513 83.1348C91 81.2614 91.8888 79.1172 90.9417 76.8146C90.0237 74.5826 87.7304 74.2556 85.6724 74.1987C83.251 74.1318 80.9353 74.8772 78.9445 76.3453C77.0062 77.7746 76.9132 80.0257 78.7936 81.5553C79.9935 82.5314 81.2893 83.4556 82.678 84.1151C84.5553 85.0065 84.6901 86.3537 84.35 88.1297C83.8048 90.9764 82.0395 93.0472 79.7787 94.4194C74.4461 97.6561 70.127 102.003 65.7093 106.3C60.672 111.201 53.2383 111.778 47.9551 107.924C47.6104 107.582 47.3942 106.809 47.2812 106.532ZM68.9037 87.0038C68.1898 87.056 67.8248 87.4698 67.841 88.1404C67.8577 88.8267 68.28 89.2124 68.9713 89.1802C69.6504 89.1486 70.0523 88.758 70.0263 88.0588C70.0004 87.3612 69.577 87.0266 68.9037 87.0038ZM97.6369 82.2422C97.5069 81.6252 97.2241 81.1487 96.5077 81.1601C95.7979 81.1713 95.4453 81.5918 95.4649 82.2734C95.4846 82.959 95.8908 83.3436 96.5753 83.3405C97.2681 83.3374 97.6293 82.9532 97.6369 82.2422ZM73.5828 84.864C73.5175 84.3728 73.2877 83.8949 72.6605 83.9203C71.9355 83.9497 71.426 84.3708 71.4964 85.1462C71.5464 85.6975 71.9287 86.075 72.5455 86.0593C73.2628 86.041 73.5554 85.6105 73.5828 84.864ZM77.9182 87.2205C77.8046 86.5583 77.4655 86.1602 76.7679 86.207C76.0653 86.254 75.7358 86.723 75.7832 87.3574C75.8314 88.0026 76.2955 88.4045 76.9407 88.3772C77.6206 88.3485 77.9036 87.8626 77.9182 87.2205ZM72.935 91.7907C73.4463 91.6325 73.9153 91.3306 73.9287 90.6487C73.9407 90.0441 73.5579 89.6938 72.9858 89.6385C72.3146 89.5735 71.8377 89.9145 71.806 90.5977C71.7757 91.25 72.1809 91.6519 72.935 91.7907ZM69.3448 92.988C69.3268 92.2848 68.9492 91.9501 68.2654 91.9592C67.5922 91.9682 67.167 92.2945 67.196 92.9987C67.2209 93.5992 67.6359 93.8948 68.2007 93.9315C68.8523 93.9738 69.313 93.73 69.3448 92.988ZM98.0726 87.7116C98.6723 87.6193 99.0213 87.2225 98.95 86.5233C98.8922 85.9564 98.634 85.4753 97.9793 85.5563C97.3318 85.6364 96.9133 86.0408 96.9668 86.7525C97.0121 87.3566 97.3603 87.6886 98.0726 87.7116ZM93.9217 86.9179C94.5532 86.8588 94.9835 86.5334 94.9815 85.837C94.9797 85.2035 94.562 84.943 93.9745 84.9337C93.2597 84.9223 92.9091 85.3547 92.8894 86.0055C92.8704 86.6343 93.3064 86.8873 93.9217 86.9179Z" fill="#8A8D99"/>
<path d="M71.5923 16.3978C71.5555 15.27 71.86 13.2858 72.1075 11.29C72.5478 7.73976 74.4715 5.2158 77.3259 3.27118C79.9504 1.48314 81.5992 2.00325 82.5546 5.08444C83.6689 8.6785 83.6222 12.3932 83.1917 16.075C82.6046 21.0962 81.0242 25.9474 80.5084 30.9869C80.4079 31.9693 80.0087 31.9135 79.2362 31.6024C77.9217 31.073 76.5659 30.6133 75.1895 30.2838C74.2517 30.0593 74.01 29.3873 73.7108 28.6748C72.1816 25.0331 71.631 21.2095 71.5923 16.3978Z" fill="#E5DADC"/>
<path d="M75.186 104.519C74.3284 104.451 72.7512 104.881 72.3782 103.829C71.9511 102.624 73.5338 102.026 74.3639 101.301C77.2433 98.7885 80.7316 97.087 83.5217 94.4466C83.7087 94.2696 83.9369 94.1373 84.1344 93.9703C84.9552 93.2764 85.1465 91.4811 86.2478 91.7094C87.5399 91.9771 88.6959 93.0639 89.8288 93.9065C91.263 94.9733 92.0875 96.5486 93.0021 98.0454C93.5064 98.8707 93.3288 99.4468 92.6851 100.09C91.5159 101.257 90.0648 101.763 88.5016 101.931C85.0726 102.298 81.7892 103.297 78.4749 104.16C77.4568 104.424 76.4437 104.536 75.186 104.519Z" fill="#8A8D99"/>
<path d="M62.4106 28.6685C64.1605 23.5806 66.5624 18.9109 69.3274 13.7808C69.3044 17.7602 69.2412 21.217 70.1267 24.5819C70.4389 25.768 70.6551 26.9932 71.1017 28.1265C71.6445 29.5041 70.6918 29.7583 69.9376 29.4793C67.5238 28.586 65.0055 28.9994 62.4106 28.6685Z" fill="#A1A4B2"/>
<path d="M118.619 153.023C119.168 154.589 119.614 155.868 120.064 157.146C120.555 158.539 119.989 159.447 118.683 159.855C116.29 160.604 113.838 160.613 111.42 160.022C110.351 159.761 109.427 159.117 108.909 158.046C108.521 157.246 108.377 156.325 108.78 155.614C109.15 154.96 109.963 155.532 110.555 155.601C113.542 155.948 116.195 155.232 118.619 153.023Z" fill="#A1A4B2"/>
<path d="M71.4786 155.968C70.7277 157.616 69.5016 158.072 68.2396 158.255C66.3786 158.524 64.5025 158.439 62.6616 157.933C62.0031 157.752 61.4747 157.38 61.0523 156.903C60.5781 156.366 60.6641 155.672 60.9215 155.06C61.2043 154.389 61.7885 154.675 62.2691 154.775C65.2404 155.389 68.2637 155.63 71.4786 155.968Z" fill="#A1A4B2"/>
<path d="M87.5646 77.97C86.8715 77.9057 85.9197 77.9475 85.8744 77.1441C85.8354 76.4526 86.7309 76.3727 87.3697 76.3731C87.9993 76.3735 88.8702 76.3242 88.9527 77.0526C89.042 77.8413 88.1936 77.902 87.5646 77.97Z" fill="white"/>
<path d="M95.0062 67.2652C95.0049 67.7828 94.7786 68.1449 94.2454 68.1958C93.6808 68.2498 93.4193 67.8936 93.4141 67.3764C93.4086 66.8286 93.5542 66.2946 94.2376 66.3287C94.7551 66.3545 94.9914 66.7514 95.0062 67.2652Z" fill="white"/>
<path d="M56.8009 78.025C56.0995 77.9861 55.7049 78.0065 55.3269 77.9363C53.2073 77.5427 51.3356 76.7502 50.5638 74.507C49.9791 72.8074 51.0104 70.4086 52.8892 68.9302C54.6522 67.543 56.517 67.3833 58.4679 68.5286C58.6898 68.6589 58.916 68.7827 59.1306 68.9244C61.2314 70.3113 63.5025 74.1554 62.6378 75.3918C61.2126 77.4295 58.865 77.8939 56.8009 78.025ZM59.329 71.3562C58.889 71.3902 58.559 71.6615 58.485 72.1665C58.4013 72.738 58.5718 73.2184 59.2279 73.2873C59.7515 73.3424 60.0926 73.0536 60.1598 72.5247C60.2333 71.9462 60.0415 71.5089 59.329 71.3562Z" fill="black"/>
<path d="M89.0233 73.19C85.0296 73.3296 81.0226 73.0633 77.0643 73.9983C74.2813 74.6557 71.7492 75.9808 69.0129 76.7314C67.642 75.863 67.7512 75.0872 69.1545 74.3847C75.0133 71.4515 81.2444 70.5177 87.715 70.9708C89.0581 71.0648 90.0361 71.5926 89.0233 73.19Z" fill="black"/>
<path d="M80.8892 69.2419C78.2897 69.2525 75.7815 69.7918 73.3183 70.5735C72.6117 70.7977 71.8994 71.0659 71.5667 70.0946C71.2224 69.0897 71.8641 68.7673 72.6826 68.4615C75.9321 67.2476 79.2811 66.7957 82.7332 66.9218C83.6999 66.9571 84.4831 67.2294 84.4094 68.295C84.3362 69.3536 83.4275 69.2847 82.6287 69.2472C82.05 69.22 81.4691 69.2419 80.8892 69.2419Z" fill="black"/>
<path d="M68.9025 87.0068C69.5758 87.0297 69.9993 87.3642 70.0251 88.0618C70.0511 88.761 69.6492 89.1517 68.9702 89.1833C68.2789 89.2154 67.8565 88.8298 67.8399 88.1434C67.8236 87.4728 68.1886 87.0591 68.9025 87.0068Z" fill="black"/>
<path d="M97.6392 82.242C97.6316 82.953 97.2703 83.3371 96.5776 83.3403C95.8931 83.3434 95.4869 82.9588 95.4672 82.2732C95.4476 81.5916 95.8001 81.1711 96.51 81.1599C97.2264 81.1485 97.5092 81.625 97.6392 82.242Z" fill="black"/>
<path d="M73.5851 84.8661C73.5577 85.6125 73.2651 86.0431 72.5478 86.0613C71.931 86.077 71.5487 85.6996 71.4987 85.1483C71.4283 84.3729 71.9378 83.9518 72.6628 83.9224C73.29 83.8969 73.5198 84.3749 73.5851 84.8661Z" fill="black"/>
<path d="M77.92 87.2218C77.9055 87.8639 77.6225 88.3498 76.9426 88.3786C76.2974 88.4058 75.8333 88.0039 75.7851 87.3588C75.7377 86.7243 76.0671 86.2554 76.7698 86.2083C77.4674 86.1616 77.8064 86.5597 77.92 87.2218Z" fill="black"/>
<path d="M72.9351 91.791C72.181 91.6521 71.7757 91.2502 71.806 90.5979C71.8378 89.9148 72.3147 89.5738 72.9858 89.6387C73.558 89.694 73.9408 90.0443 73.9288 90.6489C73.9153 91.3309 73.4464 91.6327 72.9351 91.791Z" fill="black"/>
<path d="M69.3466 92.99C69.3146 93.7309 68.8539 93.9747 68.2024 93.9324C67.6376 93.8956 67.2225 93.6001 67.1977 92.9996C67.1686 92.2954 67.5939 91.9691 68.267 91.9601C68.9509 91.951 69.3284 92.2857 69.3466 92.99Z" fill="black"/>
<path d="M98.0746 87.7106C97.3624 87.6876 97.0142 87.3556 96.9688 86.7515C96.9154 86.0398 97.3339 85.6354 97.9814 85.5553C98.636 85.4743 98.8942 85.9554 98.952 86.5223C99.0233 87.2215 98.6743 87.6184 98.0746 87.7106Z" fill="black"/>
<path d="M93.9208 86.922C93.3055 86.8914 92.8695 86.6383 92.8885 86.0096C92.9082 85.3587 93.2588 84.9263 93.9736 84.9377C94.5611 84.9471 94.9788 85.2076 94.9806 85.8411C94.9826 86.5374 94.5523 86.8628 93.9208 86.922Z" fill="black"/>
<path d="M59.3283 71.3496C60.0408 71.5023 60.2326 71.9396 60.1591 72.5182C60.0919 73.0471 59.7508 73.3358 59.2272 73.2808C58.5711 73.2119 58.4006 72.7314 58.4843 72.16C58.5583 71.6549 58.8883 71.3836 59.3283 71.3496Z" fill="white"/>
</svg>
