<svg width="86" height="120" viewBox="0 0 86 120" fill="none" xmlns="http://www.w3.org/2000/svg">
<path d="M30.3442 103.449C30.6667 105.148 30.9968 106.731 31.2621 108.325C31.5838 110.258 32.237 112.149 32.0415 114.151C31.8163 116.458 30.6241 118.016 28.4156 118.57C26.307 119.098 24.218 119.143 22.095 118.29C19.0447 117.064 19.2071 114.426 20.6493 112.697C21.8422 111.268 21.5957 110.238 20.9081 108.836C19.4321 105.824 17.6707 102.979 15.5989 100.403C9.32815 92.6052 8.44494 83.7893 10.3804 74.3095C11.7996 67.3579 14.3383 60.7942 16.8353 54.2103C17.0428 53.6633 17.3542 53.1506 17.2859 52.5132C17.2204 51.9021 17.0467 51.538 16.3421 51.4381C10.8076 50.6534 7.37624 47.3089 6.10229 41.9072C4.80706 36.4153 2.97223 31.1221 1.26079 25.7715C-0.00264566 21.8214 -0.328479 17.6803 0.337405 13.5264C1.26907 7.71454 5.31924 5.35433 10.7869 7.33539C14.8209 8.79701 17.8663 11.5845 20.6142 14.7789C22.8361 17.3617 25.0025 19.9947 27.167 22.6282C27.6 23.155 27.9975 23.3519 28.6662 23.0886C32.3799 21.6266 36.2314 20.7595 40.2009 20.4926C41.188 20.4262 41.6174 20.0137 41.9829 19.0587C44.2769 13.064 46.9856 7.28612 51.1634 2.37196C52.4331 0.878471 53.961 -0.431025 56.0503 0.134352C58.1553 0.703945 58.7414 2.65937 59.176 4.57869C59.8594 7.59653 59.4766 10.6096 58.9958 13.6007C58.5379 16.4491 57.9927 19.2839 57.432 22.1135C57.2541 23.0115 57.5166 23.5246 58.2571 24.0308C66.7762 29.8537 69.9805 39.4197 66.7245 49.2695C66.3753 50.326 66.5006 51.2656 67.1206 52.1294C67.7829 53.0519 68.4976 53.936 69.2051 54.8238C72.5089 58.9692 72.9902 65.6607 70.2155 70.1962C69.7367 70.9789 69.7942 71.4196 70.3432 72.067C71.3495 73.254 72.0252 74.671 72.6501 76.0908C73.8915 78.9112 75.6623 81.2548 78.0981 83.1271C81.632 85.8436 84.2523 89.268 85.3844 93.7212C86.3904 97.6785 86.254 101.565 84.2974 105.206C83.6625 106.387 83.6587 107.423 84.1195 108.579C84.3054 109.046 84.4713 109.522 84.6244 110.001C85.4303 112.522 84.7717 113.912 82.2743 114.546C80.2394 115.063 78.1694 115.058 76.2051 114.129C74.5372 113.341 73.5942 112.009 73.7595 110.106C73.8371 109.213 73.3936 108.976 72.8042 108.564C71.3292 107.533 70.0311 107.197 68.4069 108.438C67.1559 109.394 65.5124 109.662 63.9308 109.792C63.2059 109.852 62.9959 110.16 63.1292 110.854C63.3101 111.797 63.5272 112.646 64.2608 113.399C66.2138 115.403 65.5591 118.449 62.9467 119.403C60.0017 120.48 57.0711 120.016 54.3167 118.681C52.8023 117.947 52.6018 116.293 52.4579 114.776C52.3413 113.546 52.387 112.3 52.3561 111.062C52.3461 110.661 52.4421 110.199 51.8645 110.093C51.3916 110.006 51.2539 110.336 51.1029 110.689C50.1983 112.805 48.429 113.403 46.3782 113.385C45.1211 113.373 43.8647 113.198 42.6555 112.812C40.9705 112.274 40.3393 111.298 40.533 109.501C40.589 108.981 40.7351 108.6 40.0197 108.359C36.7608 107.26 33.7299 105.686 30.9707 103.585C30.8769 103.513 30.7213 103.526 30.3442 103.449ZM33.2593 76.1827C36.9235 78.9032 42.0792 78.4962 45.5728 75.0369C48.6367 72.0031 51.6321 68.935 55.3305 66.6503C56.8985 65.6817 58.1228 64.22 58.5009 62.2105C58.7368 60.9568 58.6433 60.0059 57.3413 59.3767C56.3782 58.9112 55.4795 58.2587 54.6473 57.5698C53.3432 56.49 53.4077 54.901 54.752 53.8921C56.1327 52.8558 57.7387 52.3296 59.4181 52.3769C60.8454 52.417 62.4359 52.6478 63.0726 54.2233C63.7295 55.8487 63.1131 57.3623 62.0818 58.6847C61.8312 59.0059 61.525 59.2835 61.2332 59.5692C59.8041 60.9687 59.7992 62.7718 61.5299 63.747C63.6794 64.9582 65.1513 66.6629 66.2744 68.8056C66.6144 69.4542 67.0794 70.1537 67.9034 70.0416C68.8057 69.9189 69.1875 69.1348 69.4437 68.3109C70.045 66.3769 70.269 64.4653 70.047 62.3843C69.8032 60.0994 69.5066 57.9527 68.0429 56.1258C67.5346 55.4913 67.041 54.8444 66.5407 54.2032C65.6122 53.317 65.6116 51.7472 64.2411 51.1461C62.6714 50.4577 61.8261 49.1946 61.9631 48.061C62.1421 46.5802 63.4377 45.1104 65.068 44.8401C66.0437 44.6784 66.3127 44.225 66.345 43.3263C66.5836 36.6875 64.4385 31.0755 59.376 26.8043C55.7947 23.7828 51.4882 22.4989 46.9601 22.0189C41.246 21.4132 35.6755 22.2387 30.272 24.204C29.9357 24.3264 29.1741 24.2524 29.3433 24.8802C29.5051 25.4809 29.4792 25.8867 28.9539 26.1325C28.3168 26.4305 27.9918 25.84 27.5912 25.5049C26.8969 24.924 26.545 23.9429 25.2955 23.5198C26.4289 25.7931 26.9532 27.9835 27.2192 30.2339C27.5271 32.8389 27.3033 35.3749 25.9169 37.6645C25.2246 38.8079 24.6799 38.7556 24.0172 37.5947C23.8163 37.2427 23.6654 36.7735 23.1709 36.8313C22.7032 36.8859 22.5777 37.3575 22.4417 37.7345C21.908 39.2149 21.8614 40.7854 21.6654 42.3278C21.2609 45.509 18.4331 47.5293 15.3498 46.8595C12.6721 46.2778 10.6801 44.6252 8.88202 42.6406C8.57984 42.3071 8.41913 41.7074 7.74741 41.8381C8.74456 45.5146 10.8056 48.1564 14.4494 49.3185C16.0012 49.8135 17.5926 50.0579 19.218 50.0804C19.7806 50.0882 20.3683 50.1612 20.4468 50.8622C20.5304 51.6087 20.0167 51.7721 19.399 51.7344C18.9386 51.7062 18.7858 51.8869 18.8489 52.3914C19.2128 55.3002 19.942 58.092 21.8749 60.3334C23.2053 61.8761 24.1363 63.5729 24.9054 65.4604C26.5859 69.5849 29.0834 73.1218 32.7021 75.7426C32.7021 75.7426 32.9613 75.9503 33.2593 76.1827ZM23.6117 117.233C23.6865 117.243 23.7613 117.253 23.8361 117.264C24.3337 117.38 24.5906 117.409 25.2625 117.409C25.8 117.409 26.0935 117.386 26.6063 117.273C29.6965 116.59 30.9342 115.924 30.3487 112.304C29.8598 109.28 29.1567 106.29 28.7395 103.258C28.5646 101.987 28.1294 101.09 27.2293 100.221C25.0361 98.101 23.2149 95.6521 21.6201 93.0319C21.328 92.552 20.9895 92.0359 21.6262 91.6027C22.3273 91.1256 22.6815 91.6704 23.0061 92.2C23.1253 92.3945 23.2413 92.591 23.3641 92.783C29.6419 102.603 38.3932 108.039 49.9868 108.41C52.6683 108.495 52.697 108.46 52.2856 105.731C51.8077 102.56 51.273 99.398 50.7667 96.2316C50.6648 95.594 50.4783 94.853 51.3754 94.6919C52.2704 94.5311 52.2413 95.3746 52.3139 95.8931C53.0303 101.003 54.4908 106.03 53.8789 111.294C53.7382 112.504 53.9251 113.769 54.0751 114.994C54.211 116.105 54.5591 117.175 55.7218 117.639C57.9379 118.523 60.2064 118.57 62.4295 117.765C63.9098 117.229 64.1825 115.936 63.2001 114.686C62.1512 113.351 60.7951 112.809 59.1416 113.247C58.5872 113.394 58.1348 113.411 58.0045 112.729C57.8891 112.125 58.1953 111.813 58.7758 111.67C59.4005 111.515 60.0181 111.423 60.6374 111.609C61.3975 111.836 61.7043 111.701 61.509 110.796C61.0912 108.861 61.0264 106.889 61.0515 104.911C61.1385 98.0594 62.8977 91.3711 62.96 84.5167C62.9653 83.9342 63.3816 83.6809 63.8563 83.713C64.2928 83.7425 64.5448 84.0955 64.5345 84.5865C64.5257 84.9992 64.5532 85.4131 64.5362 85.8253C64.3859 89.4516 63.8441 93.0334 63.3271 96.6166C62.8217 100.119 62.5137 103.631 62.6798 107.173C62.703 107.669 62.5254 108.284 63.4616 108.224C65.535 108.09 67.4109 107.499 69.0803 106.162C68.0956 105.026 67.0368 104.032 66.2464 102.804C65.8545 102.194 65.3638 101.639 65.2558 100.878C65.2024 100.502 65.2033 100.105 65.5815 99.9215C66.0094 99.7142 66.3673 99.9133 66.6144 100.303C66.8333 100.649 67.025 101.013 67.2498 101.355C69.1215 104.199 71.4734 106.459 74.6675 107.691C78.5482 109.188 81.7329 107.89 83.1775 103.941C85.3406 98.0283 84.6209 92.5142 80.5018 87.6232C79.3224 86.2228 77.9335 85.0597 76.536 83.9077C74.2199 81.9985 72.4534 79.6767 71.2828 76.8738C70.5931 75.2221 69.6854 73.6944 68.5134 72.3472C67.872 71.6098 66.1861 71.1495 65.7281 71.6008C64.5803 72.732 63.1861 73.2821 61.6473 73.5382C59.4331 73.9067 57.2632 74.4706 55.0898 75.0331C53.3881 75.4736 51.5545 75.9327 49.9376 75.0977C48.6124 74.4134 47.9258 74.869 47.1582 75.7912C46.9272 76.0689 46.6392 76.2984 46.3698 76.5413C42.5054 80.0257 38.4146 80.6345 33.8112 78.2583C28.3805 75.4552 25.2126 70.647 22.9512 65.0952C22.64 64.3312 22.3742 63.5717 21.7907 62.9576C20.1704 61.2523 19.0616 59.2242 18.2589 57.0071C18.1633 56.743 18.2341 56.3159 17.7492 56.317C15.5119 62.2578 13.4489 68.2463 12.045 74.4761C10.0576 83.2955 10.8543 91.4684 16.4578 98.8514C18.7076 101.816 20.8911 104.877 22.4068 108.322C23.0133 109.701 23.4704 110.767 25.2039 109.985C25.4902 109.856 25.9105 109.981 26.2548 110.056C26.627 110.137 26.7006 110.479 26.6974 110.813C26.6941 111.16 26.5479 111.444 26.1979 111.544C26.0296 111.592 25.8432 111.588 25.6654 111.585C24.9743 111.572 24.3452 111.826 23.7193 112.069C22.3248 112.612 21.2733 113.909 21.3224 115.083C21.3838 116.548 22.6015 116.789 23.6117 117.233ZM1.69321 18.178C1.75608 19.3764 1.8336 21.2907 2.2384 23.1873C3.18146 27.6061 4.98826 31.7138 6.66706 35.851C8.0212 39.1882 10.1282 42.069 13.1362 44.1198C17.0323 46.7762 19.9497 45.3463 20.3619 40.6116C20.4295 39.8349 20.4914 39.0565 20.5971 38.2848C20.7235 37.3619 21.0497 36.5164 21.6657 35.8064C22.2301 35.1558 22.9158 35.0267 23.7416 35.1632C24.2341 35.2447 24.5722 36.165 25.0699 35.5866C25.4171 35.1831 25.4811 34.4889 25.5792 33.9083C25.6855 33.2798 25.7815 32.6218 25.7156 31.9948C24.695 22.2804 20.302 14.6744 12.0715 9.5375C10.552 8.58911 8.8084 8.30079 7.01117 8.41123C4.46127 8.56792 3.06099 9.64933 2.2805 12.15C1.74175 13.8762 1.63931 15.6585 1.69321 18.178ZM49.6531 11.5747C49.68 14.9712 50.0619 17.6702 51.1224 20.2408C51.33 20.7437 51.4976 21.2181 52.148 21.3766C53.1026 21.6091 54.0429 21.9336 54.9545 22.3073C55.4903 22.527 55.7672 22.5663 55.8369 21.8729C56.1946 18.3156 57.2907 14.8912 57.6979 11.3468C57.9965 8.74792 58.0289 6.12575 57.256 3.58877C56.5934 1.41381 55.4499 1.04667 53.6297 2.30882C51.65 3.68149 50.3158 5.46311 50.0105 7.96919C49.8388 9.37797 49.6276 10.7786 49.6531 11.5747ZM52.145 73.7802C53.0172 73.7922 53.7199 73.7133 54.426 73.5263C56.7246 72.9178 59.0018 72.2123 61.3799 71.953C62.4641 71.8347 63.4705 71.4775 64.2814 70.6534C64.7278 70.1997 64.851 69.793 64.5013 69.2105C63.867 68.1539 63.2951 67.0419 62.3005 66.2889C61.5147 65.6941 60.713 64.927 59.8169 64.738C59.0531 64.5769 58.9204 65.8441 58.3511 66.3339C58.2142 66.4518 58.0559 66.5452 57.9262 66.6701C55.9911 68.5339 53.5718 69.735 51.5748 71.5088C50.9991 72.0202 49.9014 72.4425 50.1976 73.2931C50.4563 74.0359 51.5502 73.7321 52.145 73.7802ZM43.284 20.2365C45.0837 20.4701 46.8302 20.1783 48.5043 20.8088C49.0274 21.0058 49.6882 20.8264 49.3117 19.8539C49.002 19.0539 48.852 18.1891 48.6355 17.3519C48.0213 14.9766 48.0652 12.5365 48.0811 9.72749C46.1635 13.3488 44.4976 16.645 43.284 20.2365ZM82.2693 108.015C80.5882 109.574 78.7481 110.079 76.6767 109.834C76.2662 109.786 75.7019 109.382 75.4453 109.843C75.1664 110.345 75.2663 110.995 75.5348 111.56C75.8944 112.316 76.5353 112.771 77.2766 112.955C78.9533 113.372 80.6541 113.365 82.3139 112.837C83.2198 112.549 83.6122 111.908 83.272 110.925C82.9597 110.023 82.6499 109.12 82.2693 108.015ZM49.5739 110.096C47.3442 109.858 45.2474 109.687 43.1867 109.254C42.8533 109.184 42.4481 108.981 42.252 109.455C42.0735 109.887 42.0139 110.377 42.3428 110.756C42.6357 111.093 43.0022 111.355 43.4589 111.483C44.7356 111.84 46.0368 111.9 47.3274 111.71C48.2027 111.581 49.0531 111.259 49.5739 110.096ZM60.7303 55.0372C61.1665 54.9892 61.7549 54.9464 61.693 54.3897C61.6358 53.8754 61.0318 53.9103 60.5951 53.91C60.152 53.9097 59.531 53.9661 59.5581 54.4542C59.5895 55.0213 60.2496 54.9918 60.7303 55.0372ZM65.8904 47.4813C65.8808 47.1186 65.7169 46.8384 65.358 46.8202C64.884 46.7961 64.783 47.1731 64.7868 47.5597C64.7904 47.9248 64.9718 48.1762 65.3634 48.1382C65.7332 48.1022 65.8901 47.8466 65.8904 47.4813Z" fill="black"/>
<path d="M25.2633 117.41C24.7258 117.41 24.3344 117.38 23.837 117.264C23.7573 117.245 23.7469 117.264 23.6125 117.233C22.5387 116.987 21.3846 116.549 21.3232 115.083C21.274 113.909 22.3256 112.613 23.7201 112.07C24.346 111.826 24.9751 111.573 25.6662 111.585C25.844 111.588 26.0304 111.592 26.1987 111.544C26.5487 111.445 26.6949 111.161 26.6982 110.813C26.7014 110.479 26.6277 110.138 26.2555 110.056C25.9113 109.981 25.491 109.856 25.2047 109.985C23.4712 110.768 23.0141 109.701 22.4076 108.323C20.8919 104.878 18.7084 101.816 16.4586 98.8518C10.8551 91.4688 10.0584 83.2959 12.0458 74.4765C13.4497 68.2466 15.5127 62.2581 17.7499 56.3174C18.2349 56.3163 18.1641 56.7434 18.2597 57.0075C19.0624 59.2246 20.1712 61.2527 21.7915 62.958C22.375 63.5721 22.6408 64.3316 22.952 65.0956C25.2134 70.6474 28.3812 75.4556 33.812 78.2587C38.4154 80.6349 42.5062 80.0261 46.3706 76.5416C46.64 76.2988 46.928 76.0693 47.159 75.7916C47.9266 74.8694 48.6132 74.4138 49.9383 75.0981C51.5553 75.9331 53.3889 75.474 55.0906 75.0335C57.264 74.471 59.4339 73.9071 61.6481 73.5386C63.1869 73.2825 64.581 72.7324 65.7289 71.6012C66.1869 71.1499 67.8728 71.6102 68.5142 72.3476C69.6862 73.6948 70.5939 75.2225 71.2836 76.8742C72.4542 79.6771 74.2207 81.9989 76.5368 83.9081C77.9343 85.0601 79.3232 86.2232 80.5027 87.6236C84.6217 92.5146 85.3414 98.0287 83.1783 103.942C81.7337 107.89 78.549 109.188 74.6683 107.691C71.4742 106.459 69.1223 104.199 67.2506 101.355C67.0258 101.014 66.8341 100.65 66.6152 100.304C66.3681 99.9137 66.0102 99.7146 65.5823 99.9219C65.2041 100.105 65.2032 100.503 65.2566 100.879C65.3646 101.639 65.8553 102.195 66.2472 102.804C67.0376 104.032 68.0964 105.026 69.0811 106.163C67.4117 107.5 65.5358 108.091 63.4624 108.224C62.5262 108.285 62.7039 107.67 62.6806 107.173C62.5145 103.631 62.8225 100.119 63.3279 96.617C63.8449 93.0338 64.3867 89.452 64.537 85.8257C64.554 85.4135 64.5265 84.9996 64.5353 84.5869C64.5456 84.0959 64.2936 83.7429 63.8571 83.7134C63.3824 83.6813 62.9661 83.9346 62.9608 84.5171C62.8985 91.3715 61.1393 98.0598 61.0523 104.912C61.0272 106.889 61.092 108.862 61.5098 110.797C61.7051 111.701 61.3983 111.837 60.6382 111.609C60.0189 111.424 59.4013 111.515 58.7766 111.67C58.1961 111.814 57.8899 112.125 58.0053 112.73C58.1356 113.412 58.588 113.394 59.1424 113.247C60.7959 112.809 62.152 113.352 63.2009 114.686C64.1833 115.937 63.9106 117.229 62.4303 117.765C60.2072 118.57 57.9387 118.524 55.7226 117.639C54.5599 117.175 54.2118 116.105 54.0759 114.995C53.9259 113.77 53.739 112.504 53.8797 111.294C54.4916 106.03 53.0311 101.004 52.3147 95.8935C52.2421 95.375 52.2712 94.5315 51.3762 94.6923C50.4791 94.8535 50.6656 95.5944 50.7675 96.232C51.2738 99.3984 51.8085 102.56 52.2864 105.731C52.6978 108.46 52.6691 108.496 49.9876 108.41C38.394 108.04 29.6427 102.604 23.3649 92.7834C23.2421 92.5914 23.1261 92.3949 23.0069 92.2005C22.6823 91.6708 22.3281 91.1261 21.6269 91.6031C20.9903 92.0363 21.3288 92.5524 21.6209 93.0323C23.2157 95.6525 25.0368 98.1014 27.2301 100.221C28.1302 101.091 28.5654 101.988 28.7403 103.259C29.1575 106.291 29.8606 109.28 30.3495 112.304C30.935 115.925 29.6973 116.581 26.6071 117.264C26.0243 117.427 25.8008 117.41 25.2633 117.41Z" fill="#E5D6CF"/>
<path d="M32.703 75.745C29.0843 73.1242 26.5868 69.5873 24.9063 65.4628C24.1372 63.5753 23.2062 61.8785 21.8758 60.3358C19.9429 58.0944 19.2137 55.3026 18.8498 52.3938C18.7867 51.8893 18.9395 51.7086 19.3999 51.7367C20.0176 51.7745 20.5313 51.6111 20.4477 50.8646C20.3692 50.1635 19.7815 50.0906 19.2189 50.0828C17.5935 50.0603 16.0021 49.8159 14.4503 49.3209C10.8065 48.1587 8.74545 45.517 7.74829 41.8405C8.42001 41.7098 8.58072 42.3095 8.8829 42.643C10.681 44.6276 12.673 46.2802 15.3507 46.8619C18.434 47.5317 21.2618 45.5114 21.6663 42.3301C21.8623 40.7878 21.9089 39.2173 22.4426 37.7369C22.5786 37.3599 22.7041 36.8883 23.1718 36.8336C23.6663 36.7759 23.8172 37.2451 24.0181 37.5971C24.6808 38.758 25.2255 38.8102 25.9179 37.6669C27.3043 35.3773 27.528 32.8412 27.2201 30.2362C26.9541 27.9859 26.4298 25.7954 25.2964 23.5222C26.5459 23.9452 26.8978 24.9263 27.5921 25.5072C27.9927 25.8424 28.3177 26.4329 28.9548 26.1349C29.4801 25.8891 29.506 25.4833 29.3442 24.8826C29.175 24.2547 29.9366 24.3287 30.2729 24.2064C35.6764 22.241 41.2469 21.4156 46.961 22.0213C51.4891 22.5013 55.7956 23.7852 59.3769 26.8067C64.4395 31.0779 66.5845 36.6899 66.346 43.3287C66.3137 44.2274 66.0447 44.6808 65.069 44.8425C63.4387 45.1127 62.143 46.5825 61.9641 48.0633C61.8271 49.1969 62.6723 50.46 64.2421 51.1485C65.6126 51.7496 65.6132 53.3194 66.5417 54.2055C64.6204 53.9942 63.3592 52.4822 61.7439 51.6679C62.4463 50.5402 61.7681 50.1677 60.8365 50.1013C56.3489 49.7815 52.0273 50.4407 47.9639 52.5112C46.9907 53.0071 46.9149 53.5547 47.8657 54.1676C45.3161 56.5909 42.8572 59.1384 39.4505 60.352C38.3422 60.7468 37.361 61.3897 36.4168 62.0983C31.9048 65.4844 30.6765 69.9126 32.7929 75.2027C32.8595 75.3692 33.3289 76.1851 33.2603 76.1851C33.2231 76.1851 33.1015 76.1276 32.703 75.745ZM39.3956 55.0766C40.8271 54.9841 42.4553 54.6563 43.4438 53.2178C44.0435 52.3451 42.4684 49.6317 41.0113 48.6526C40.8625 48.5527 40.7056 48.4652 40.5517 48.3732C39.1987 47.5648 37.9053 47.6775 36.6826 48.6567C35.3796 49.7003 34.6643 51.3936 35.0699 52.5933C35.6051 54.1767 36.9032 54.7362 38.3733 55.014C38.6355 55.0635 38.9092 55.0492 39.3956 55.0766ZM56.1014 48.8791C56.5036 48.8791 56.9065 48.8637 57.3078 48.8829C57.8618 48.9094 58.4921 48.958 58.5428 48.2107C58.5939 47.4586 58.0507 47.2663 57.3803 47.2414C54.9861 47.1524 52.6634 47.4714 50.4097 48.3283C49.842 48.5441 49.397 48.7717 49.6358 49.4811C49.8665 50.1667 50.3606 49.9774 50.8506 49.8191C52.5589 49.2673 54.2985 48.8866 56.1014 48.8791Z" fill="#E5D6CF"/>
<path d="M1.69379 18.1787C1.63989 15.6592 1.74233 13.8769 2.28107 12.1507C3.06157 9.65004 4.46185 8.56862 7.01175 8.41194C8.80898 8.3015 10.5526 8.58982 12.0721 9.5382C20.3026 14.6751 24.6956 22.2811 25.7162 31.9955C25.7821 32.6225 25.686 33.2805 25.5798 33.909C25.4817 34.4897 25.4177 35.1838 25.0705 35.5873C24.5728 36.1657 24.2347 35.2454 23.7422 35.1639C22.9164 35.0274 22.2307 35.1565 21.6662 35.8071C21.0503 36.5171 20.7241 37.3626 20.5977 38.2855C20.492 39.0572 20.4301 39.8356 20.3625 40.6123C19.9502 45.347 17.0329 46.7769 13.1368 44.1205C10.1288 42.0697 8.02178 39.1889 6.66764 35.8517C4.98883 31.7145 3.18204 27.6068 2.23897 23.1881C1.83418 21.2914 1.75666 19.3771 1.69379 18.1787Z" fill="#E5DADC"/>
<path d="M32.7909 75.1989C30.6745 69.9088 31.9028 65.4806 36.4148 62.0945C37.359 61.3859 38.3401 60.743 39.4485 60.3482C42.8552 59.1346 45.3141 56.5871 47.8637 54.1638C49.7614 53.634 51.5176 52.6987 53.4477 52.2346C56.193 51.5746 58.9721 51.7626 61.7419 51.6641C63.3572 52.4784 64.6184 53.9905 66.5397 54.2017C67.04 54.843 67.5335 55.4899 68.0419 56.1244C69.5056 57.9513 69.8022 60.0979 70.0459 62.3829C70.268 64.4639 70.044 66.3755 69.4427 68.3095C69.1865 69.1334 68.8046 69.9175 67.9023 70.0402C67.0784 70.1523 66.6133 69.4528 66.2733 68.8042C65.1502 66.6615 63.6784 64.9568 61.5288 63.7456C59.7981 62.7704 59.803 60.9673 61.2322 59.5678C61.524 59.2821 61.8302 59.0045 62.0807 58.6833C63.112 57.3609 63.7284 55.8473 63.0716 54.2219C62.4349 52.6464 60.8443 52.4156 59.417 52.3754C57.7377 52.3282 56.1316 52.8544 54.7509 53.8907C53.4066 54.8996 53.3421 56.4886 54.6463 57.5683C55.4785 58.2573 56.3771 58.9098 57.3403 59.3752C58.6423 60.0045 58.7358 60.9554 58.4999 62.2091C58.1218 64.2185 56.8975 65.6802 55.3295 66.6489C51.6311 68.9336 48.6356 72.0017 45.5717 75.0355C42.0781 78.4948 36.9224 78.9017 33.2582 76.1813C33.0192 75.9403 32.8693 75.3947 32.7909 75.1989ZM47.7871 61.4143C47.292 61.4512 47.0388 61.7432 47.0501 62.2166C47.0617 62.7011 47.3546 62.9733 47.8341 62.9506C48.305 62.9283 48.5837 62.6526 48.5657 62.159C48.5478 61.6666 48.2541 61.4304 47.7871 61.4143ZM67.715 58.0532C67.6249 57.6177 67.4287 57.2813 66.9318 57.2893C66.4395 57.2973 66.195 57.5941 66.2086 58.0753C66.2223 58.5592 66.504 58.8307 66.9787 58.8285C67.4592 58.8263 67.7098 58.5551 67.715 58.0532ZM51.0323 59.9039C50.987 59.5571 50.8276 59.2198 50.3927 59.2377C49.8898 59.2585 49.5365 59.5557 49.5853 60.1031C49.62 60.4923 49.8851 60.7587 50.3129 60.7476C50.8104 60.7347 51.0133 60.4308 51.0323 59.9039ZM54.0391 61.5673C53.9603 61.0999 53.7252 60.8189 53.2413 60.8519C52.754 60.8851 52.5255 61.2161 52.5584 61.664C52.5918 62.1193 52.9137 62.403 53.3612 62.3838C53.8328 62.3635 54.029 62.0205 54.0391 61.5673ZM50.5831 64.7933C50.9376 64.6817 51.2629 64.4686 51.2722 63.9872C51.2805 63.5604 51.0151 63.3132 50.6182 63.2741C50.1528 63.2283 49.822 63.469 49.8 63.9512C49.779 64.4116 50.06 64.6953 50.5831 64.7933ZM48.0931 65.6385C48.0806 65.1421 47.8187 64.9059 47.3444 64.9123C46.8776 64.9186 46.5826 65.1489 46.6028 65.646C46.62 66.0699 46.9079 66.2785 47.2996 66.3044C47.7515 66.3344 48.071 66.1623 48.0931 65.6385ZM68.0172 61.914C68.4331 61.8488 68.6751 61.5687 68.6257 61.0751C68.5856 60.675 68.4065 60.3354 67.9525 60.3926C67.5034 60.4491 67.2132 60.7346 67.2502 61.2369C67.2817 61.6633 67.5232 61.8977 68.0172 61.914ZM65.1383 61.3537C65.5763 61.312 65.8747 61.0823 65.8734 60.5907C65.8721 60.1435 65.5824 59.9597 65.175 59.9531C64.6792 59.945 64.4361 60.2503 64.4224 60.7097C64.4092 61.1535 64.7116 61.3321 65.1383 61.3537Z" fill="#FFF7F2"/>
<path d="M49.652 11.5751C49.6265 10.7789 49.8377 9.37833 50.0094 7.96956C50.3147 5.46348 51.6489 3.68186 53.6285 2.30919C55.4488 1.04704 56.5923 1.41417 57.2549 3.58913C58.0278 6.12611 57.9954 8.74828 57.6968 11.3472C57.2896 14.8915 56.1935 18.3159 55.8358 21.8732C55.7661 22.5667 55.4892 22.5273 54.9534 22.3077C54.0418 21.934 53.1015 21.6095 52.1469 21.3769C51.4965 21.2185 51.3288 20.7441 51.1213 20.2411C50.0608 17.6706 49.6789 14.9716 49.652 11.5751Z" fill="#E5DADC"/>
<path d="M52.1456 73.778C51.5508 73.7298 50.4569 74.0336 50.1982 73.2909C49.902 72.4403 50.9997 72.0179 51.5754 71.5066C53.5724 69.7327 55.9917 68.5317 57.9268 66.6679C58.0565 66.543 58.2148 66.4495 58.3517 66.3317C58.921 65.8419 59.0537 64.5746 59.8175 64.7357C60.7136 64.9248 61.5153 65.6918 62.3011 66.2867C63.2957 67.0397 63.8676 68.1516 64.5019 69.2082C64.8516 69.7908 64.7285 70.1975 64.282 70.6512C63.4712 71.4753 62.4647 71.8325 61.3806 71.9507C59.0024 72.2101 56.7252 72.9156 54.4266 73.5241C53.7205 73.711 53.0178 73.79 52.1456 73.778Z" fill="#FFF7F2"/>
<path d="M43.2839 20.2365C44.4975 16.6451 46.1634 13.3488 48.081 9.72754C48.0651 12.5365 48.0212 14.9766 48.6354 17.3519C48.8519 18.1892 49.0019 19.054 49.3116 19.854C49.6881 20.8264 49.0273 21.0058 48.5043 20.8088C46.8302 20.1783 45.0836 20.4701 43.2839 20.2365Z" fill="#E5D6CF"/>
<path d="M82.2673 108.017C82.648 109.122 82.9578 110.025 83.27 110.927C83.6103 111.91 83.2178 112.551 82.312 112.839C80.6522 113.367 78.9514 113.374 77.2747 112.957C76.5334 112.773 75.8925 112.318 75.5329 111.562C75.2644 110.997 75.1645 110.347 75.4434 109.845C75.7 109.384 76.2642 109.788 76.6748 109.836C78.7462 110.081 80.5862 109.576 82.2673 108.017Z" fill="#E5D6CF"/>
<path d="M49.5732 110.095C49.0524 111.258 48.202 111.58 47.3267 111.709C46.036 111.899 44.7349 111.839 43.4582 111.482C43.0015 111.354 42.635 111.092 42.342 110.755C42.0131 110.376 42.0728 109.886 42.2513 109.454C42.4474 108.98 42.8526 109.183 43.186 109.253C45.2467 109.686 47.3434 109.857 49.5732 110.095Z" fill="#E5D6CF"/>
<path d="M60.7306 55.0378C60.2499 54.9924 59.5898 55.0219 59.5583 54.4548C59.5313 53.9667 60.1523 53.9103 60.5954 53.9106C61.0321 53.9109 61.6361 53.876 61.6933 54.3902C61.7552 54.9469 61.1668 54.9898 60.7306 55.0378Z" fill="white"/>
<path d="M65.8914 47.4815C65.8905 47.8469 65.7336 48.1025 65.3638 48.1384C64.9722 48.1765 64.7908 47.9251 64.7872 47.56C64.7834 47.1733 64.8844 46.7964 65.3583 46.8204C65.7173 46.8386 65.8812 47.1188 65.8914 47.4815Z" fill="white"/>
<path d="M39.3936 55.0766C38.9072 55.0492 38.6335 55.0635 38.3714 55.014C36.9013 54.7362 35.6032 54.1767 35.0679 52.5933C34.6624 51.3936 35.3776 49.7003 36.6807 48.6568C37.9034 47.6775 39.1967 47.5648 40.5498 48.3733C40.7037 48.4652 40.8606 48.5527 41.0094 48.6526C42.4664 49.6317 44.0415 52.3451 43.4418 53.2179C42.4533 54.6563 40.8252 54.9841 39.3936 55.0766ZM41.147 50.3692C40.8418 50.3932 40.613 50.5847 40.5617 50.9412C40.5036 51.3446 40.6218 51.6837 41.0768 51.7324C41.44 51.7712 41.6766 51.5674 41.7232 51.1941C41.7741 50.7857 41.6411 50.477 41.147 50.3692Z" fill="black"/>
<path d="M61.7418 51.6636C58.972 51.7621 56.1929 51.5742 53.4476 52.2342C51.5174 52.6982 49.7613 53.6336 47.8636 54.1634C46.9128 53.5504 46.9886 53.0028 47.9618 52.5069C52.0251 50.4364 56.3467 49.7773 60.8344 50.0971C61.7659 50.1635 62.4442 50.536 61.7418 51.6636Z" fill="black"/>
<path d="M56.1016 48.8767C54.2987 48.8842 52.5591 49.2649 50.8508 49.8167C50.3608 49.9749 49.8667 50.1643 49.636 49.4787C49.3972 48.7693 49.8422 48.5417 50.4099 48.3259C52.6636 47.469 54.9863 47.15 57.3805 47.239C58.0509 47.2639 58.5941 47.4562 58.543 48.2083C58.4923 48.9556 57.862 48.907 57.308 48.8805C56.9067 48.8613 56.5038 48.8767 56.1016 48.8767Z" fill="black"/>
<path d="M47.7869 61.4165C48.2539 61.4326 48.5476 61.6688 48.5655 62.1612C48.5835 62.6548 48.3048 62.9305 47.8338 62.9528C47.3544 62.9755 47.0615 62.7033 47.0499 62.2188C47.0386 61.7454 47.2918 61.4534 47.7869 61.4165Z" fill="black"/>
<path d="M67.7176 58.053C67.7123 58.5549 67.4618 58.8261 66.9813 58.8283C66.5066 58.8305 66.2249 58.559 66.2112 58.0751C66.1976 57.5939 66.4421 57.2971 66.9344 57.2892C67.4313 57.2812 67.6275 57.6175 67.7176 58.053Z" fill="black"/>
<path d="M51.0352 59.9056C51.0161 60.4325 50.8132 60.7365 50.3157 60.7493C49.888 60.7604 49.6228 60.494 49.5881 60.1048C49.5393 59.5575 49.8926 59.2602 50.3955 59.2395C50.8305 59.2215 50.9898 59.5589 51.0352 59.9056Z" fill="black"/>
<path d="M54.0404 61.5686C54.0304 62.0219 53.8341 62.3649 53.3625 62.3851C52.915 62.4044 52.5932 62.1207 52.5597 61.6653C52.5269 61.2174 52.7553 60.8864 53.2427 60.8532C53.7265 60.8202 53.9616 61.1012 54.0404 61.5686Z" fill="black"/>
<path d="M50.5839 64.7933C50.0608 64.6953 49.7798 64.4116 49.8008 63.9512C49.8228 63.469 50.1536 63.2282 50.619 63.2741C51.0159 63.3131 51.2813 63.5604 51.273 63.9872C51.2637 64.4686 50.9384 64.6816 50.5839 64.7933Z" fill="black"/>
<path d="M48.0951 65.6402C48.0729 66.1632 47.7534 66.3353 47.3015 66.3054C46.9098 66.2795 46.6219 66.0708 46.6047 65.6469C46.5846 65.1499 46.8795 64.9196 47.3464 64.9132C47.8207 64.9068 48.0825 65.143 48.0951 65.6402Z" fill="black"/>
<path d="M68.0193 61.9135C67.5253 61.8972 67.2838 61.6628 67.2523 61.2364C67.2153 60.734 67.5055 60.4486 67.9546 60.3921C68.4086 60.3349 68.5877 60.6745 68.6278 61.0746C68.6772 61.5682 68.4352 61.8483 68.0193 61.9135Z" fill="black"/>
<path d="M65.1393 61.3569C64.7126 61.3353 64.4102 61.1566 64.4234 60.7128C64.4371 60.2534 64.6802 59.9482 65.176 59.9562C65.5834 59.9628 65.8731 60.1467 65.8743 60.5939C65.8757 61.0854 65.5773 61.3151 65.1393 61.3569Z" fill="black"/>
<path d="M41.1471 50.3643C41.6413 50.472 41.7743 50.7808 41.7233 51.1891C41.6767 51.5625 41.4401 51.7663 41.077 51.7274C40.622 51.6788 40.5037 51.3397 40.5618 50.9363C40.6131 50.5798 40.842 50.3883 41.1471 50.3643Z" fill="white"/>
</svg>
