<svg width="63" height="22" viewBox="0 0 63 22" fill="none" xmlns="http://www.w3.org/2000/svg">
<path d="M12.61 11.2C13.83 11.46 14.81 12.07 15.55 13.03C16.29 13.97 16.5 15.28 16.5 16.5C16.5 18.26 16.04 19.43 14.8 20.47C13.58 21.49 11.87 22 9.66999 22L0 22V0.940002H9.33999C11.48 0.940002 13.15 1.43 14.35 2.41C15.57 3.39 16 4.82 16 6.5C16 7.74 15.85 8.67 15.19 9.49C14.55 10.31 13.69 10.88 12.61 11.2ZM4.98999 9.49H8.34999C9.18999 9.49 9.82999 9.3 10.27 8.92C10.73 8.54 10.96 7.99 10.96 7.27C10.96 6.53 10.73 5.97 10.27 5.59C9.82999 5.19 9.18999 4.99 8.34999 4.99H4.98999V9.49ZM9 18C9.86 18 10.29 17.72 10.75 17.32C11.23 16.92 11.47 16.34 11.47 15.58C11.47 14.84 11.22 14.26 10.72 13.84C10.24 13.4 9.36 13 8.5 13H4.98999L5 18H9Z" fill="black"/>
<path d="M39 5V22H34.0354V19.72C33.5154 20.46 32.8054 21.06 31.9054 21.52C31.0254 21.96 30.08 22 29 22C27.72 22 26.5554 21.9 25.5754 21.34C24.5954 20.76 24.04 20.08 23.5 19C22.96 17.92 23 16.46 23 15V5H28V14.35C28 15.47 27.8754 16.34 28.4554 16.96C29.0354 17.58 29.52 18 30.5 18C31.5 18 32.5854 17.58 33.1654 16.96C33.7454 16.34 34.0354 15.47 34.0354 14.35V5H39Z" fill="black"/>
<path d="M58 1H63V22H58V1Z" fill="black"/>
<path d="M46 1H51V22H46V1Z" fill="black"/>
</svg>
