<svg width="40" height="40" viewBox="0 0 40 40" fill="none" xmlns="http://www.w3.org/2000/svg">
<path d="M33.6725 23.8441C32.7995 22.9391 31.7464 22.4552 30.6303 22.4552C29.5232 22.4552 28.4611 22.9301 27.5521 23.8351L24.7079 26.6577C24.4738 26.5323 24.2398 26.4158 24.0148 26.2993C23.6908 26.138 23.3848 25.9857 23.1237 25.8244C20.4596 24.1398 18.0384 21.9444 15.7162 19.1039C14.5911 17.6882 13.8351 16.4964 13.286 15.2867C14.0241 14.6147 14.7081 13.9158 15.3742 13.2437C15.6262 12.9928 15.8782 12.733 16.1302 12.4821C18.0204 10.6004 18.0204 8.16308 16.1302 6.28136L13.673 3.83513C13.394 3.55735 13.106 3.27061 12.836 2.98387C12.2959 2.42832 11.7289 1.85484 11.1439 1.3172C10.2708 0.456989 9.22672 0 8.12864 0C7.03055 0 5.96848 0.456989 5.06841 1.3172C5.05941 1.32616 5.05941 1.32616 5.05041 1.33513L1.99018 4.4086C0.838096 5.55556 0.181047 6.95341 0.0370364 8.57527C-0.17898 11.1918 0.595078 13.629 1.18912 15.224C2.64723 19.1398 4.82539 22.7688 8.07463 26.6577C12.0169 31.3441 16.7603 35.0448 22.1787 37.6523C24.2488 38.629 27.012 39.7849 30.0993 39.9821C30.2883 39.991 30.4863 40 30.6663 40C32.7455 40 34.4916 39.2563 35.8597 37.7778C35.8687 37.7599 35.8867 37.7509 35.8957 37.733C36.3637 37.1685 36.9038 36.6577 37.4708 36.1111C37.8578 35.7437 38.2539 35.3584 38.6409 34.9552C39.532 34.0323 40 32.957 40 31.8548C40 30.7437 39.523 29.6774 38.6139 28.7814L33.6725 23.8441ZM36.8948 33.2796C36.8858 33.2796 36.8858 33.2885 36.8948 33.2796C36.5437 33.6559 36.1837 33.9964 35.7967 34.3728C35.2116 34.9283 34.6176 35.5108 34.0596 36.1649C33.1505 37.1326 32.0794 37.5896 30.6753 37.5896C30.5403 37.5896 30.3963 37.5896 30.2613 37.5806C27.5881 37.4104 25.1039 36.371 23.2408 35.4839C18.1464 33.0287 13.673 29.543 9.95577 25.1254C6.88654 21.4427 4.83439 18.0376 3.47529 14.3817C2.63823 12.1505 2.33221 10.4122 2.46722 8.7724C2.55722 7.72401 2.96225 6.85484 3.70931 6.11111L6.77854 3.05556C7.21957 2.64337 7.6876 2.41935 8.14664 2.41935C8.71368 2.41935 9.17271 2.75986 9.46074 3.04659C9.46974 3.05556 9.47874 3.06452 9.48774 3.07348C10.0368 3.58423 10.5588 4.1129 11.1079 4.67742C11.3869 4.96416 11.6749 5.2509 11.9629 5.5466L14.4201 7.99283C15.3742 8.94265 15.3742 9.82079 14.4201 10.7706C14.1591 11.0305 13.9071 11.2903 13.646 11.5412C12.89 12.3118 12.1699 13.0287 11.3869 13.7276C11.3689 13.7455 11.3509 13.7545 11.3419 13.7724C10.5678 14.543 10.7118 15.2957 10.8738 15.8065C10.8828 15.8333 10.8918 15.8602 10.9008 15.8871C11.5399 17.4283 12.44 18.8799 13.8081 20.6093L13.8171 20.6183C16.3012 23.6649 18.9204 26.0394 21.8097 27.8584C22.1787 28.0914 22.5567 28.2796 22.9167 28.4588C23.2408 28.6201 23.5468 28.7724 23.8078 28.9337C23.8438 28.9516 23.8798 28.9785 23.9158 28.9964C24.2218 29.1487 24.5098 29.2204 24.8069 29.2204C25.5539 29.2204 26.022 28.7545 26.175 28.6021L29.2532 25.5376C29.5592 25.233 30.0453 24.8656 30.6123 24.8656C31.1703 24.8656 31.6294 25.2151 31.9084 25.5197C31.9174 25.5287 31.9174 25.5287 31.9264 25.5376L36.8858 30.4749C37.8128 31.3889 37.8128 32.3298 36.8948 33.2796Z" fill="black"/>
</svg>
