<svg width="50" height="38" viewBox="0 0 50 38" fill="none" xmlns="http://www.w3.org/2000/svg">
<path d="M43.8961 0H6.11421C2.74157 0 0 2.7379 0 6.10604V31.894C0 35.2621 2.74157 38 6.11421 38H43.8858C47.2584 38 50 35.2621 50 31.894V6.11637C50.0103 2.74823 47.2688 0 43.8961 0ZM47.217 31.894C47.217 33.7227 45.7273 35.2104 43.8961 35.2104H6.11421C4.28305 35.2104 2.79329 33.7227 2.79329 31.894V6.11637C2.79329 4.28766 4.28305 2.79989 6.11421 2.79989H43.8858C45.7169 2.79989 47.2067 4.28766 47.2067 6.11637V31.894H47.217Z" fill="black"/>
<path d="M31.5309 18.6805L43.7594 7.72885C44.3284 7.21226 44.3801 6.33407 43.8628 5.75549C43.3455 5.18725 42.4662 5.13559 41.8868 5.65217L25.0236 20.7675L21.7337 17.8333C21.7234 17.8229 21.713 17.8126 21.713 17.8023C21.6406 17.7299 21.5682 17.6679 21.4854 17.606L8.0983 5.64184C7.51895 5.12526 6.63958 5.17692 6.1223 5.75549C5.60502 6.33407 5.65675 7.21226 6.2361 7.72885L18.6094 18.7734L6.28783 30.2933C5.72917 30.8202 5.69813 31.6984 6.22576 32.2666C6.50508 32.5559 6.87752 32.7109 7.24996 32.7109C7.59137 32.7109 7.93277 32.5869 8.20175 32.339L20.7095 20.6538L24.1028 23.681C24.3718 23.9186 24.7029 24.0323 25.0339 24.0323C25.365 24.0323 25.7064 23.9083 25.965 23.6707L29.4515 20.5505L41.8868 32.3493C42.1558 32.6076 42.5075 32.7316 42.8489 32.7316C43.2214 32.7316 43.5835 32.5869 43.8628 32.2976C44.3904 31.7397 44.3697 30.8512 43.8111 30.3243L31.5309 18.6805Z" fill="black"/>
</svg>
