<svg width="71" height="22" viewBox="0 0 71 22" fill="none" xmlns="http://www.w3.org/2000/svg">
<path d="M8.43999 0.939995C10.66 0.939995 12.6 1.37999 14.26 2.25999C15.92 3.13999 17.2 4.38 18.1 5.97999C19.02 7.56 19.48 9.39 19.48 11.47C19.48 13.53 19.02 15.36 18.1 16.96C17.2 18.56 15.91 19.8 14.23 20.68C12.57 21.56 10.64 22 8.43999 22L0 22V0.999992L8.43999 0.939995ZM8 18C9.94 18 11.56 17.08 12.64 16C13.72 14.92 14.26 13.41 14.26 11.47C14.26 9.52999 13.72 8.02 12.64 6.93999C11.56 5.85999 9.94 4.99999 8 4.99999H5V18H8Z" fill="#804D6F"/>
<path d="M44 22L39 22L30 9V22H25V1H30L39.0569 13.99L39 1H44V22Z" fill="#804D6F"/>
<path d="M64 18H56L54.5 22L49 22L57 1H63L71 22L65.5 22L64 18ZM63 14L60 6.5L57 14H63Z" fill="#804D6F"/>
</svg>
