<svg width="112" height="100" viewBox="0 0 112 100" fill="none" xmlns="http://www.w3.org/2000/svg">
<path d="M92.8774 71.9248C92.5668 58.7651 88.159 21.363 56.0022 21.363C23.8453 21.363 19.4373 58.7651 19.1267 71.9248C-24.8954 25.7625 24.3176 -18.997 56.0019 11.7873C87.6865 -18.997 136.9 25.7625 92.8774 71.9248Z" fill="#FC7C81"/>
<path d="M77.0742 28.8664C80.5364 26.6624 84.9298 25 88.9804 26.5931C92.5397 27.993 94.4503 31.3499 95.8842 34.6756C97.2877 37.9306 100.294 41.0505 100.635 44.6445C100.955 48.0289 98.2471 52.6279 94.3455 51.9537C92.0044 51.5492 90.0273 49.4097 88.7264 47.5565L77.0742 28.8664Z" fill="#FFBA4D"/>
<path d="M92.8736 71.9251V71.9273C84.3487 80.868 72.3239 89.8607 55.9983 98.3686C39.6727 89.8607 27.6478 80.868 19.123 71.9273V71.9251C19.4337 58.7654 23.8415 21.3633 55.9983 21.3633C88.1551 21.3633 92.563 58.7654 92.8736 71.9251Z" fill="#FFE182"/>
<path d="M54.7248 21.3867C23.7256 22.3625 19.4295 58.9435 19.123 71.9273V71.9294C20.8803 73.7723 22.7889 75.6174 24.8506 77.4601C25.3889 63.218 29.8497 30.2 54.7248 21.3867Z" fill="#FFBA4D"/>
<path d="M34.9261 28.8693C31.464 26.6654 27.0706 25.003 23.0199 26.596C19.4607 27.9959 17.5501 31.3529 16.1162 34.6785C14.7127 37.9335 11.7059 41.0534 11.3656 44.6474C11.0451 48.0318 13.7532 52.6308 17.6549 51.9566C19.9959 51.5521 21.973 49.4126 23.2739 47.5595L34.9261 28.8693Z" fill="#FFBA4D"/>
<path d="M17.9092 73.022C17.9175 73.0311 17.9249 73.0409 17.9332 73.0498C27.1431 82.7088 39.6939 91.7133 55.2375 99.8136C55.4759 99.938 55.7375 100 55.9992 100C56.2608 100 56.5224 99.9378 56.7608 99.8136C66.1765 94.9067 74.5691 89.6203 81.7059 84.1011C82.4212 83.5481 82.5498 82.5233 81.9935 81.8122C81.4373 81.101 80.4063 80.9732 79.6912 81.5262C72.9005 86.7778 64.9336 91.8216 55.9994 96.5254C41.3905 88.835 29.5495 80.3508 20.7835 71.2935C20.7857 71.2256 20.7881 71.1569 20.7905 71.0871C20.8328 69.9097 20.8938 68.7314 20.9905 67.557C21.5247 61.0773 22.6943 54.3055 24.8495 48.0146C26.9941 41.7482 30.1789 35.6627 35.0054 31.0194C37.7785 28.3514 41.0786 26.2421 44.6974 24.9018C48.1263 23.6321 51.8963 22.9947 55.9994 22.9947C64.005 22.9947 70.7406 25.4268 76.1507 30.2402C81.4456 34.9512 84.8887 41.4039 87.1513 48.0206C89.6581 55.3516 90.9002 63.1231 91.1992 70.8479C91.2049 70.9964 91.21 71.145 91.215 71.2933C89.216 73.3584 87.0323 75.4173 84.715 77.4209C84.0314 78.012 83.9592 79.0424 84.554 79.722C85.1486 80.4016 86.185 80.4734 86.8686 79.8821C89.4473 77.6523 91.8684 75.3533 94.0653 73.0494C94.0738 73.0405 94.0811 73.0309 94.0892 73.022C105.131 61.4344 111.305 48.8834 111.944 36.7245C112.503 26.0842 108.841 16.3364 101.631 9.27628C95.6169 3.38766 87.7933 0.0946195 79.6006 0.00414917C71.1352 -0.0902358 62.9979 3.20323 55.9989 9.54551C50.0301 4.14513 43.1298 0.91168 35.9548 0.168997C28.8754 -0.564335 21.9033 1.09828 15.793 4.97502C15.0291 5.45977 14.8051 6.468 15.2925 7.22743C15.7801 7.98686 16.7942 8.20955 17.5581 7.72501C23.0367 4.24886 29.2807 2.75806 35.6151 3.41353C42.5108 4.12729 49.1632 7.42642 54.8527 12.9542C55.4901 13.5738 56.5086 13.5738 57.1461 12.9542C63.7609 6.52758 71.5086 3.17387 79.5643 3.26608C86.9034 3.3472 93.9225 6.30685 99.328 11.6004C105.86 17.9967 109.177 26.8588 108.667 36.5546C108.121 46.9463 103.179 57.7214 94.3232 67.9069C94.2736 67.2038 94.2149 66.5014 94.1491 65.7996C93.7558 61.6088 93.1256 57.4141 92.0981 53.3284C92.0589 53.1664 92.0202 53.0043 91.9797 52.8419C92.6325 53.1822 93.3283 53.4356 94.0631 53.5624C96.2318 53.9369 98.3898 53.0367 99.8707 51.4194C101.551 49.5845 102.491 46.8661 102.267 44.4936C102.014 41.8256 100.603 39.5467 99.2379 37.3427C98.5254 36.1925 97.8525 35.1062 97.3908 34.0351C95.8796 30.5305 93.7702 26.7257 89.5827 25.0784C88.3231 24.5829 86.9721 24.3318 85.5668 24.3318C82.951 24.3318 80.1517 25.1849 77.2318 26.8645C76.7461 26.4693 76.25 26.0872 75.7414 25.7217C70.0239 21.6118 63.0049 19.733 55.9996 19.733C48.3558 19.733 40.7308 22.0122 34.7674 26.8645C31.8477 25.1847 29.0482 24.3318 26.4321 24.3318C25.0269 24.3318 23.6756 24.5829 22.4163 25.0784C18.229 26.7253 16.1193 30.5301 14.6082 34.0351C14.1462 35.1064 13.4735 36.1927 12.7611 37.343C11.3961 39.5469 9.98468 41.8256 9.73224 44.4936C9.50759 46.8654 10.448 49.5834 12.1278 51.4185C13.5934 53.0196 15.7551 53.9395 17.9358 53.5624C18.6704 53.4356 19.3665 53.182 20.0192 52.8417C19.9785 53.0059 19.9394 53.1692 19.8998 53.3327C19.2273 56.1151 18.6282 58.9667 18.3099 61.8135C18.0334 63.8373 17.8206 65.8696 17.6757 67.9072C8.82158 57.7238 3.88044 46.9517 3.3329 36.5624C2.82212 26.8693 6.1362 18.008 12.6648 11.6102C13.3101 10.9778 13.3176 9.94523 12.6814 9.30368C12.0453 8.6619 11.0065 8.65473 10.3614 9.28693C3.1555 16.3482 -0.504423 26.0955 0.0560164 36.7329C0.696082 48.889 6.87011 61.437 17.9092 73.022ZM85.5666 27.5935C86.5569 27.5935 87.5019 27.7677 88.3754 28.1113C91.4434 29.3181 93.1297 32.4323 94.3748 35.3198C94.9318 36.6116 95.7005 37.8525 96.4438 39.0526C97.6653 41.0248 98.819 42.8878 99.0001 44.7985C99.1377 46.2528 98.4981 48.072 97.4446 49.2224C96.7238 50.0097 95.7149 50.5355 94.6251 50.3476C93.2428 50.1089 91.6785 48.8562 90.2046 46.8123C90.1998 46.7986 90.1947 46.7852 90.1899 46.7715C90.174 46.7254 90.1578 46.679 90.1416 46.6329C89.4405 44.6184 88.6368 42.6392 87.7176 40.7132C85.7972 36.6892 83.3498 32.8827 80.249 29.6532C80.0994 29.4971 79.9511 29.3385 79.7993 29.1858C81.8577 28.1398 83.8241 27.5935 85.5666 27.5935ZM17.3737 50.3483C16.279 50.5369 15.2774 50.0123 14.5542 49.2224C13.5007 48.0718 12.8613 46.2528 12.9989 44.7989C13.1798 42.8882 14.3335 41.0253 15.555 39.053C16.2983 37.8529 17.0667 36.612 17.6239 35.32C18.869 32.4326 20.5554 29.3183 23.6234 28.1115C24.4968 27.7679 25.4418 27.5937 26.4321 27.5937C28.1747 27.5937 30.1411 28.14 32.1995 29.1865C30.0844 31.3104 28.2574 33.7128 26.6933 36.2621C24.6686 39.5619 23.078 43.1196 21.8097 46.7695C21.8047 46.7841 21.7992 46.7982 21.7942 46.8128C20.3202 48.8566 18.7559 50.1095 17.3737 50.3483Z" fill="black"/>
<path d="M38.9883 45.3655V48.1307C38.9883 49.0315 39.7228 49.7617 40.6289 49.7617C41.535 49.7617 42.2695 49.0315 42.2695 48.1307V45.3655C42.2695 44.4647 41.535 43.7344 40.6289 43.7344C39.7228 43.7344 38.9883 44.4647 38.9883 45.3655Z" fill="black"/>
<path d="M69.7266 45.3655V48.1307C69.7266 49.0315 70.4611 49.7617 71.3672 49.7617C72.2733 49.7617 73.0078 49.0315 73.0078 48.1307V45.3655C73.0078 44.4647 72.2733 43.7344 71.3672 43.7344C70.4613 43.7344 69.7266 44.4647 69.7266 45.3655Z" fill="black"/>
<path d="M55.998 50.0274C57.4886 50.0274 58.9024 49.724 60.1707 49.1808C61.502 48.6105 61.0962 46.6367 59.6466 46.6367H52.3492C50.8998 46.6367 50.4938 48.6105 51.8251 49.1808C53.0934 49.724 54.5074 50.0274 55.998 50.0274Z" fill="black"/>
<path d="M50.4346 52.2452C49.8383 51.5671 48.8018 51.4975 48.1195 52.0908C47.4373 52.6836 47.3677 53.714 47.964 54.3923C49.1114 55.6972 50.801 56.4455 52.5998 56.4455C53.8307 56.4455 55.0104 56.0947 56.0003 55.4551C56.9901 56.0945 58.1698 56.4455 59.4007 56.4455C61.1995 56.4455 62.8894 55.6972 64.0365 54.3923C64.6328 53.714 64.5633 52.6836 63.881 52.0908C63.1987 51.4979 62.1623 51.5671 61.5659 52.2454C61.0418 52.8415 60.2526 53.1834 59.4007 53.1834C58.5489 53.1834 57.7597 52.8415 57.2356 52.2454C56.9289 51.8965 56.4677 51.6893 56.002 51.6893C55.5337 51.6893 55.0732 51.8946 54.765 52.2454C54.2409 52.8415 53.4516 53.1834 52.5996 53.1834C51.748 53.1834 50.9587 52.8413 50.4346 52.2452Z" fill="black"/>
</svg>
