<svg width="351" height="350" viewBox="0 0 351 350" fill="none" xmlns="http://www.w3.org/2000/svg">
<path d="M174.002 0V82.0301H245.779V71.7764C245.779 32.1979 213.581 0 174.002 0Z" fill="#AACEF2"/>
<path d="M329.461 215.334L146.816 162.284L174.16 350H350.001L329.461 215.334Z" fill="#AACEF2"/>
<path d="M92.4854 134.38C92.4774 134.385 0 145.384 0 145.384V195.504C0 235.083 32.1983 267.281 71.7773 267.281H102.224C119.186 267.281 132.986 281.081 132.986 298.042V349.994H174.159V162.278L92.4854 134.38Z" fill="white"/>
<path d="M316.618 131.099C315.152 121.496 312.023 112.34 307.304 103.838V71.7763C307.304 32.1979 275.106 0 235.527 0V61.5226H174.161L153.653 138.426L174.161 215.329H329.462L316.618 131.099Z" fill="#79B6F2"/>
<path d="M174.001 61.5212C132.241 61.5212 97.682 92.8887 92.6191 133.298L92.7046 153.805C97.6954 188.542 127.651 215.328 163.748 215.328H174.159V61.5212H174.001Z" fill="#91C2F2"/>
<path d="M0 175V145L30 142C30 142 29 156.5 23 164.5C17 172.5 0 175 0 175Z" fill="black"/>
</svg>
