<svg width="100" height="100" viewBox="0 0 100 100" fill="none" xmlns="http://www.w3.org/2000/svg">
<path d="M10.4492 40.6033V92.3611H89.5546V40.6033V32.1349L50.0018 9.16406L10.4492 33.4862V40.6033Z" fill="#FFBA4D"/>
<path d="M10.4492 33.4864V40.6035V46.783C11.6025 46.5791 12.7086 46.1609 13.7093 45.5445L50.0018 23.1811L86.2945 45.5443C87.2949 46.1607 88.4013 46.5787 89.5546 46.7828V40.6033V32.1353L50.0018 9.16406L10.4492 33.4864Z" fill="#FAA330"/>
<path d="M97.0716 29.2086L53.7599 2.52039C51.4671 1.10769 48.5349 1.10788 46.2423 2.52039L2.9306 29.2086C1.50591 30.0865 1.08733 31.9147 1.99583 33.2914L6.22343 39.6985C7.13193 41.0752 9.02372 41.4797 10.4484 40.6018L50.001 16.2298L89.5538 40.602C90.9785 41.4799 92.8702 41.0754 93.7787 39.6987L98.0063 33.2916C98.9148 31.9145 98.4963 30.0865 97.0716 29.2086Z" fill="#FC7C81"/>
<path d="M58.5062 27.5H41.4951C40.7869 27.5 40.2129 28.0547 40.2129 28.7391V33.5959C40.2129 34.2803 40.7869 34.835 41.4951 34.835H58.5062C59.2144 34.835 59.7884 34.2803 59.7884 33.5959V28.7391C59.7886 28.0547 59.2146 27.5 58.5062 27.5Z" fill="#F0F0F0"/>
<path d="M58.5024 27.5039H57.0098L59.7848 29.2137V28.743C59.7848 28.0586 59.2108 27.5039 58.5024 27.5039Z" fill="#D9D9D9"/>
<path d="M42.9855 27.5039H41.4931C40.7849 27.5039 40.2109 28.0586 40.2109 28.743V29.2137L42.9855 27.5039Z" fill="#D9D9D9"/>
<path d="M50.0015 39.8555C35.7903 39.8555 26.2676 50.9881 26.2676 64.7212V92.3602H73.7355V64.721C73.7355 50.9881 64.2127 39.8555 50.0015 39.8555Z" fill="#3B484A"/>
<path d="M33.4006 61.3303C26.6296 56.7157 25.6974 62.5065 20.9035 65.595C16.1096 68.6835 22.1101 74.5577 29.0309 69.8833L33.4006 61.3303Z" fill="#886A5E"/>
<path d="M66.5996 61.3298C73.3706 56.7152 74.3028 62.506 79.0967 65.5945C83.8906 68.683 77.8901 74.5572 70.9693 69.8828L66.5996 61.3298Z" fill="#886A5E"/>
<path d="M79.0156 82.4036C77.8498 79.5382 75.0845 77.8097 73.397 75.2833C71.8096 72.9067 71.0663 70.1458 70.2034 67.4743C67.9289 60.4324 61.6403 56.1992 53.9966 56.1992H46.0066C38.3629 56.1992 32.0742 60.4324 29.7998 67.4743C28.937 70.1458 28.1936 72.9067 26.6062 75.2833C24.9189 77.8097 22.1534 79.5382 20.9876 82.4036C20.4981 83.607 20.2754 84.8927 20.2754 86.1837L50.002 92.3609L79.7284 86.1837C79.728 84.8927 79.5053 83.607 79.0156 82.4036Z" fill="#F0F0F0"/>
<path d="M25.1224 86.1837C25.1224 84.8929 25.3451 83.6072 25.8347 82.4036C27.0004 79.5382 29.7658 77.8097 31.4532 75.2833C33.0406 72.9067 33.784 70.1458 34.6468 67.4745C36.9214 60.4324 43.2099 56.1992 50.8537 56.1992H46.0027C38.359 56.1992 32.0703 60.4324 29.7959 67.4745C28.9331 70.146 28.1897 72.9069 26.6023 75.2833C24.915 77.8097 22.1495 79.5382 20.9837 82.4036C20.4942 83.607 20.2715 84.8927 20.2715 86.1837L49.9979 92.3609L52.4235 91.8568L25.1224 86.1837Z" fill="#D9D9D9"/>
<path d="M51.9011 78.6562H48.0949C43.7926 78.6562 40.3047 82.0268 40.3047 86.1844H59.6916C59.6914 82.0268 56.2035 78.6562 51.9011 78.6562Z" fill="#886A5E"/>
<path d="M95.2511 86.1836H4.75V98.5377H95.2511V86.1836Z" fill="#7EDEE6"/>
<path d="M58.5046 26.0352H41.4936C39.9508 26.0352 38.6953 27.2482 38.6953 28.7393V33.5961C38.6953 35.087 39.9504 36.3002 41.4936 36.3002H58.5046C60.0476 36.3002 61.3029 35.0871 61.3029 33.5961V28.7393C61.3029 27.2482 60.0476 26.0352 58.5046 26.0352ZM58.271 33.3703H41.7272V28.9651H58.271V33.3703Z" fill="black"/>
<path d="M39.9006 75.8426C39.2702 75.3102 38.3128 75.3723 37.7614 75.9813C37.5465 76.2186 37.2173 76.3549 36.8577 76.3549C36.4984 76.3549 36.1689 76.2188 35.9543 75.9813C35.4033 75.3721 34.4457 75.31 33.8151 75.8426C33.1847 76.3752 33.1205 77.3004 33.6716 77.9098C34.4621 78.7836 35.6236 79.2848 36.8577 79.2848C38.0921 79.2848 39.2536 78.7836 40.0441 77.9098C40.5952 77.3006 40.531 76.375 39.9006 75.8426Z" fill="black"/>
<path d="M66.1857 75.8426C65.5555 75.3102 64.5979 75.3723 64.0466 75.9813C63.8317 76.2186 63.5025 76.3549 63.1431 76.3549C62.7835 76.3549 62.4543 76.2188 62.2395 75.9813C61.6885 75.3721 60.7307 75.31 60.1003 75.8426C59.4699 76.3752 59.4056 77.3004 59.9568 77.9098C60.7473 78.7836 61.9088 79.2848 63.1431 79.2848C64.3772 79.2848 65.5388 78.7836 66.3292 77.9098C66.8806 77.3006 66.8163 76.375 66.1857 75.8426Z" fill="black"/>
<path d="M92.1865 42.4248C93.3797 42.1695 94.399 41.4806 95.0561 40.4845L99.2837 34.0774C100.64 32.0218 100.013 29.2829 97.8857 27.9718L54.5738 1.28394C51.7953 -0.42798 48.2046 -0.42798 45.4263 1.28394L14.2562 20.4905C13.5502 20.9254 13.3428 21.8311 13.793 22.5133C14.2431 23.1956 15.1803 23.3958 15.8862 22.961L47.0562 3.75426C48.8445 2.65231 51.1556 2.65231 52.9437 3.75426C52.9437 3.75426 96.2198 30.4206 96.2554 30.4425C96.9664 30.8806 97.1813 31.8138 96.7271 32.5026C96.7271 32.5026 92.5048 38.9019 92.4997 38.9097C92.046 39.5972 91.0811 39.8048 90.3678 39.3656L50.8153 14.9934C50.3183 14.6871 49.6824 14.6871 49.1854 14.9934L9.63245 39.3654C8.91495 39.8077 7.95855 39.6031 7.50056 38.9095C7.50056 38.9095 3.2776 32.5093 3.27295 32.5024C2.82164 31.8185 3.03931 30.877 3.74448 30.4423L10.6329 26.1977C11.3389 25.7628 11.5463 24.8571 11.0962 24.1749C10.646 23.4926 9.70865 23.2924 9.00287 23.7272L2.11444 27.9718C-0.0130045 29.2825 -0.640162 32.0216 0.716422 34.0774L4.94403 40.4845C5.83899 41.8408 7.37727 42.5658 8.93132 42.5257V84.7163H4.7498C3.91264 84.7163 3.23395 85.3722 3.23395 86.1812V98.5351C3.23395 99.3441 3.91264 100 4.7498 100H79.9252C80.7624 100 81.4411 99.3441 81.4411 98.5351C81.4411 97.7262 80.7624 97.0703 79.9252 97.0703H6.26585V87.646H93.7346V97.0703H85.9891C85.1519 97.0703 84.4732 97.7262 84.4732 98.5351C84.4732 99.3441 85.1519 100 85.9891 100H95.2505C96.0876 100 96.7663 99.3441 96.7663 98.5351V86.1812C96.7663 85.3722 96.0876 84.7163 95.2505 84.7163H91.0688V42.5265C91.1088 42.5277 91.8548 42.4956 92.1865 42.4248ZM46.1871 80.4062C47.0547 81.5284 48.4388 82.2566 50.0001 82.2566C51.5615 82.2566 52.9455 81.5286 53.8132 80.4062C55.8689 81.0425 57.467 82.6765 57.9925 84.7163H42.0078C42.5333 82.6763 44.1314 81.0427 46.1871 80.4062ZM61.084 84.7165C60.3578 80.4523 56.5185 77.1882 51.9032 77.1882H48.097C43.482 77.1882 39.6424 80.4523 38.9162 84.7165H21.9038C22.0034 84.0945 22.1683 83.4997 22.3969 82.9376C22.983 81.4968 24.1086 80.3308 25.3003 79.0964C26.0873 78.2812 26.8729 77.4585 27.5443 76.5493C28.6226 75.0891 29.3773 73.4231 29.9899 71.7376C30.8663 69.3259 31.4193 66.7624 32.8017 64.5526C34.3315 62.1067 36.5295 60.224 39.1838 59.0494C40.6631 58.3947 42.2513 57.9791 43.8652 57.7883C44.575 57.7043 45.2903 57.6623 46.0056 57.6623H53.9955C56.3366 57.6623 58.6841 58.1068 60.8172 59.0496C63.4708 60.2239 65.668 62.1059 67.1982 64.5506C68.0517 65.9145 68.6077 67.4323 69.092 68.9665C70.3034 72.805 71.8367 76.13 74.7006 79.0966C75.8923 80.3308 77.0178 81.4968 77.604 82.9376C77.8328 83.4999 77.9975 84.0947 78.0971 84.7165H61.084ZM28.5816 58.1604C31.1351 47.9855 39.4682 41.3183 50.0001 41.3183C60.5321 41.3183 68.8652 47.9855 71.4187 58.1604C69.9069 58.0342 68.4379 58.557 67.1392 59.2617C67.0332 59.3192 66.9263 59.3789 66.8188 59.4408C64.1465 56.9992 60.6978 55.4191 56.779 54.9119C55.8562 54.7924 54.9265 54.7318 53.9951 54.7318H46.0052C45.1092 54.7318 43.2548 54.9076 43.2217 54.9119C39.3027 55.4191 35.8538 56.9994 33.1815 59.4408C32.3306 58.9502 31.4211 58.5322 30.4532 58.3104C29.8422 58.1703 29.2085 58.1086 28.5816 58.1604ZM74.2089 69.8485C74.2069 69.8479 74.2048 69.8467 74.2028 69.8462C73.5346 69.6282 72.9038 69.3352 72.3048 68.9755C72.2886 68.9657 72.2724 68.9559 72.2563 68.9462C72.1671 68.6676 72.079 68.3889 71.9911 68.1108C71.5668 66.7682 71.0955 65.3993 70.4277 64.1323C69.9857 63.2934 69.4572 62.4571 68.8705 61.6869C68.8846 61.6797 68.8988 61.6725 68.9129 61.6655C69.7731 61.2344 70.8095 60.8668 71.7675 61.2196C72.8927 61.6344 73.7557 62.6979 74.5442 63.5293C75.5604 64.6008 76.7127 65.8159 78.257 66.8108C78.8433 67.1885 79.4931 67.7965 79.2577 68.5479C79.007 69.3477 77.8487 70.1571 76.1195 70.1571C75.5002 70.1567 74.8585 70.0522 74.2089 69.8485ZM25.4563 63.5287C26.2514 62.6905 26.8784 62.0487 27.4738 61.6305C28.0187 61.2487 28.6731 61.0151 29.3531 61.0906C29.9491 61.1569 30.515 61.3819 31.0449 61.6444C31.0722 61.6578 31.1009 61.6741 31.1286 61.6881C30.6846 62.2709 30.2751 62.8854 29.9032 63.5311C29.0652 64.9665 28.5058 66.5381 28.0098 68.109C27.9217 68.3878 27.8338 68.6669 27.7444 68.9456C27.7283 68.9553 27.7123 68.9653 27.6961 68.9749C26.558 69.661 25.2386 70.1567 23.882 70.1565C22.1526 70.1563 20.9941 69.3465 20.7436 68.5467C20.5084 67.7958 21.1578 67.1878 21.7441 66.81C23.288 65.8153 24.4401 64.6004 25.4563 63.5287ZM81.1525 84.7165C81.0324 83.7204 80.7911 82.7652 80.4251 81.8653C79.6277 79.9054 78.2495 78.478 76.917 77.0978C76.3216 76.481 75.751 75.8878 75.25 75.2684V73.0417C75.5408 73.0704 75.8308 73.0866 76.1189 73.0866H76.119C79.04 73.0866 81.4674 71.6036 82.159 69.3965C82.7455 67.5243 81.9155 65.6461 79.9382 64.3725C78.6994 63.5745 77.723 62.545 76.7789 61.5493C76.1524 60.8885 75.5162 60.2205 74.8176 59.6516C73.8073 53.7648 70.9963 48.4715 66.8526 44.697C62.3216 40.5699 56.4938 38.3884 50.0003 38.3884C43.5069 38.3884 37.6791 40.5699 33.1481 44.697C29.0046 48.4713 26.1938 53.7643 25.1835 59.6508C24.4848 60.2198 23.8485 60.8877 23.2215 61.5491C22.2775 62.5446 21.3015 63.5741 20.0623 64.3723C18.0854 65.6459 17.2554 67.5239 17.8417 69.3956C18.5331 71.6028 20.9603 73.086 23.8814 73.0864H23.8825C24.1703 73.0864 24.4599 73.0702 24.7505 73.0417V75.2683C24.2497 75.8876 23.6791 76.4808 23.0835 77.0976C21.751 78.4778 20.3728 79.9054 19.5756 81.8652C19.2094 82.765 18.9681 83.7204 18.848 84.7165H11.9634V41.4038L50.0001 17.966L88.0369 41.404V84.7167H81.1525V84.7165Z" fill="black"/>
</svg>
