<svg width="50" height="46" viewBox="0 0 50 46" fill="none" xmlns="http://www.w3.org/2000/svg">
<path fill-rule="evenodd" clip-rule="evenodd" d="M20.0406 12.6942C20.2997 11.9672 20.4375 11.1764 20.4375 10.3021C20.4375 9.23924 20.2226 8.09464 19.7396 6.8511C19.3047 5.73151 18.6476 4.7612 17.7415 3.9168C17.0093 3.23458 16.3358 3 15.625 3C15.1034 3 14.7663 3.14231 14.4562 3.4163C13.9405 3.87186 13.6066 4.3733 13.4029 4.94512C13.1438 5.67214 13.006 6.46294 13.006 7.33724C13.006 8.37578 13.2192 9.51708 13.7063 10.7793C14.14 11.9031 14.7982 12.8732 15.7082 13.7143C16.4624 14.4114 17.1369 14.6393 17.8185 14.6393C18.3402 14.6393 18.6772 14.497 18.9874 14.223C19.503 13.7675 19.8369 13.266 20.0406 12.6942ZM12.9766 26.5067C13.0996 25.9574 13.1611 25.3775 13.1611 24.7669C13.1611 23.2895 12.8105 21.7671 12.1094 20.1999C11.4083 18.6326 10.4016 17.2949 9.08954 16.1868C7.77744 15.0788 6.36018 14.5247 4.83774 14.5247C3.29527 14.5247 2.10337 15.1187 1.26202 16.3066C0.420673 17.4946 0 18.8872 0 20.4844C0 21.9618 0.350561 23.4792 1.05168 25.0365C1.7528 26.5938 2.75941 27.9264 4.07151 29.0345C5.38361 30.1426 6.80088 30.6966 8.32332 30.6966C8.61771 30.6966 8.89933 30.6752 9.16817 30.6323C10.308 30.4503 11.2183 29.8828 11.899 28.9297C11.9613 28.8426 12.0212 28.7543 12.0788 28.6649C12.5025 28.0075 12.8018 27.2881 12.9766 26.5067ZM34.3912 28.2098C33.8363 27.746 33.26 27.3022 32.6623 26.8783C29.9179 24.9316 27.3638 23.9583 25 23.9583C23.2171 23.9583 21.2841 24.5473 19.2007 25.7253C17.9284 26.4447 16.7326 27.2683 15.6134 28.1963C14.9001 28.7877 14.2178 29.4215 13.5667 30.0977C13.5623 30.1022 13.5579 30.1068 13.5535 30.1114C12.6032 31.0996 11.742 32.1475 10.9698 33.2552C10.3876 34.0904 9.85597 34.9595 9.375 35.8626C8.25321 37.969 7.69231 39.8806 7.69231 41.5977C7.69231 44.5126 9.52524 45.9701 13.1911 45.9701C14.6735 45.9701 16.6817 45.5258 19.2157 44.6374C21.7498 43.7489 23.6779 43.3047 25 43.3047C26.262 43.3047 28.0899 43.7539 30.4838 44.6523C32.8776 45.5508 34.7556 46 36.1178 46C36.9792 46 37.7404 45.9451 38.4014 45.8353C39.0625 45.7255 39.7085 45.5258 40.3395 45.2363C40.9706 44.9468 41.4563 44.4976 41.7969 43.8887C42.1374 43.2797 42.3077 42.5161 42.3077 41.5977C42.3077 39.3017 41.3862 36.7611 39.5433 33.9759C39.3843 33.7356 39.2219 33.4985 39.0562 33.2645C38.262 32.1427 37.3908 31.0927 36.4424 30.1143C35.7946 29.446 35.1109 28.8112 34.3912 28.2098ZM37.0267 26.5218C37.2261 27.4035 37.5842 28.2061 38.101 28.9297C38.7843 29.8864 39.6988 30.4546 40.8445 30.6343C41.1096 30.6758 41.3869 30.6966 41.6767 30.6966C43.1991 30.6966 44.6164 30.1426 45.9285 29.0345C47.2406 27.9264 48.2472 26.5938 48.9483 25.0365C49.6494 23.4792 50 21.9618 50 20.4844C50 18.8872 49.5793 17.4946 48.738 16.3066C47.8966 15.1187 46.7047 14.5247 45.1623 14.5247C43.6398 14.5247 42.2226 15.0788 40.9105 16.1868C39.5984 17.2949 38.5917 18.6326 37.8906 20.1999C37.1895 21.7671 36.8389 23.2895 36.8389 24.7669C36.8389 25.3831 36.9015 25.968 37.0267 26.5218ZM9.45779 27.186C9.89823 26.5694 10.1611 25.8067 10.1611 24.7669C10.1611 23.7747 9.92735 22.6688 9.3709 21.4249C8.85389 20.2692 8.12174 19.2962 7.15392 18.4789C6.30942 17.7657 5.56071 17.5247 4.83774 17.5247C4.20001 17.5247 3.95073 17.7009 3.7102 18.0405C3.26282 18.6722 3 19.445 3 20.4844C3 21.4759 3.23339 22.5747 3.78722 23.8049C4.30323 24.951 5.03558 25.922 6.00714 26.7425C6.85164 27.4557 7.60035 27.6966 8.32332 27.6966C8.97155 27.6966 9.2216 27.5167 9.45779 27.186ZM30.9266 29.3252C28.4825 27.5916 26.5289 26.9583 25 26.9583C23.882 26.9583 22.4587 27.3295 20.6773 28.3367C18.8485 29.3708 17.2006 30.649 15.7276 32.1786C14.2455 33.7177 13.0128 35.4141 12.0229 37.2728C11.047 39.1053 10.6923 40.5266 10.6923 41.5977C10.6923 42.3514 10.8874 42.4944 10.9293 42.5252C10.9313 42.5266 10.9329 42.5278 10.9341 42.5288C11.0934 42.6554 11.6755 42.9701 13.1911 42.9701C14.1651 42.9701 15.7931 42.6583 18.2232 41.8063C20.8172 40.8968 23.1452 40.3047 25 40.3047C26.8294 40.3047 29.0804 40.9213 31.5379 41.8436C33.837 42.7065 35.306 43 36.1178 43C36.8584 43 37.4495 42.9523 37.9098 42.8758C38.2993 42.8112 38.6905 42.6922 39.0886 42.5096C39.1112 42.4992 39.1243 42.4912 39.1305 42.4871C39.1366 42.4831 39.1392 42.4807 39.1403 42.4797C39.1414 42.4787 39.1445 42.4758 39.1498 42.469C39.1552 42.4621 39.1652 42.4482 39.1785 42.4244C39.2019 42.3825 39.3077 42.1604 39.3077 41.5977C39.3077 40.1013 38.6996 38.1373 37.0414 35.6314C35.4044 33.1575 33.3713 31.0592 30.9266 29.3252ZM31.0126 14.223C31.3228 14.497 31.6598 14.6393 32.1815 14.6393C32.8631 14.6393 33.5376 14.4114 34.2918 13.7143C35.2018 12.8732 35.86 11.9031 36.2937 10.7793C36.7808 9.51708 36.994 8.37578 36.994 7.33724C36.994 6.46294 36.8562 5.67214 36.5971 4.94512C36.3934 4.3733 36.0595 3.87186 35.5438 3.4163C35.2337 3.14231 34.8966 3 34.375 3C33.6642 3 32.9907 3.23458 32.2585 3.9168C31.3524 4.7612 30.6953 5.73151 30.2604 6.8511C29.7774 8.09464 29.5625 9.23924 29.5625 10.3021C29.5625 11.1764 29.7003 11.9672 29.9594 12.6942C30.1631 13.266 30.497 13.7675 31.0126 14.223ZM46.2898 18.0405C46.0493 17.7009 45.8 17.5247 45.1623 17.5247C44.4393 17.5247 43.6906 17.7657 42.8461 18.4789C41.8783 19.2962 41.1461 20.2692 40.6291 21.4249C40.0727 22.6688 39.8389 23.7747 39.8389 24.7669C39.8389 25.8067 40.1018 26.5694 40.5422 27.186C40.7784 27.5167 41.0285 27.6966 41.6767 27.6966C42.3997 27.6966 43.1484 27.4557 43.9929 26.7425C44.9644 25.922 45.6968 24.951 46.2128 23.8049C46.7666 22.5747 47 21.4759 47 20.4844C47 19.445 46.7372 18.6722 46.2898 18.0405ZM22.8666 13.7012C23.2472 12.633 23.4375 11.5 23.4375 10.3021C23.4375 8.82465 23.137 7.31228 22.5361 5.76497C21.9351 4.21766 21.0186 2.87001 19.7867 1.72201C18.5547 0.574002 17.1675 0 15.625 0C14.403 0 13.3514 0.389323 12.47 1.16797C11.5885 1.94661 10.9575 2.87001 10.5769 3.93815C10.1963 5.00629 10.006 6.13932 10.006 7.33724C10.006 8.7947 10.3065 10.3021 10.9075 11.8594C11.5084 13.4167 12.4299 14.7693 13.6719 15.9173C14.9139 17.0653 16.2961 17.6393 17.8185 17.6393C19.0405 17.6393 20.0921 17.25 20.9736 16.4714C21.855 15.6927 22.486 14.7693 22.8666 13.7012ZM29.0264 16.4714C29.9079 17.25 30.9595 17.6393 32.1815 17.6393C33.7039 17.6393 35.0861 17.0653 36.3281 15.9173C37.5701 14.7693 38.4916 13.4167 39.0925 11.8594C39.6935 10.3021 39.994 8.7947 39.994 7.33724C39.994 6.13932 39.8037 5.00629 39.4231 3.93815C39.0425 2.87001 38.4115 1.94661 37.53 1.16797C36.6486 0.389323 35.597 0 34.375 0C32.8325 0 31.4453 0.574002 30.2133 1.72201C28.9814 2.87001 28.0649 4.21766 27.4639 5.76497C26.863 7.31228 26.5625 8.82465 26.5625 10.3021C26.5625 11.5 26.7528 12.633 27.1334 13.7012C27.514 14.7693 28.145 15.6927 29.0264 16.4714Z" fill="#955E83"/>
</svg>
