<svg width="96" height="100" viewBox="0 0 96 100" fill="none" xmlns="http://www.w3.org/2000/svg">
<path d="M56.1655 26.0352H39.8349C38.3539 26.0352 37.1486 27.2482 37.1486 28.7393V33.5961C37.1486 35.087 38.3535 36.3002 39.8349 36.3002H56.1655C57.6467 36.3002 58.8518 35.0871 58.8518 33.5961V28.7393C58.8518 27.2482 57.6467 26.0352 56.1655 26.0352ZM55.9412 33.3703H40.0592V28.9651H55.9412V33.3703Z" fill="#CCCCCC"/>
<path d="M38.3036 75.8407C37.6985 75.3082 36.7794 75.3703 36.25 75.9793C36.0438 76.2166 35.7277 76.353 35.3825 76.353C35.0376 76.353 34.7213 76.2168 34.5152 75.9793C33.9863 75.3701 33.067 75.308 32.4616 75.8407C31.8565 76.3733 31.7948 77.2985 32.3239 77.9079C33.0827 78.7817 34.1978 79.2829 35.3825 79.2829C36.5675 79.2829 37.6826 78.7817 38.4414 77.9079C38.9705 77.2987 38.9088 76.3731 38.3036 75.8407Z" fill="#CCCCCC"/>
<path d="M63.5351 75.8407C62.9301 75.3082 62.0108 75.3703 61.4815 75.9793C61.2752 76.2166 60.9592 76.353 60.6142 76.353C60.269 76.353 59.9529 76.2168 59.7467 75.9793C59.2178 75.3701 58.2983 75.308 57.6931 75.8407C57.0879 76.3733 57.0262 77.2985 57.5553 77.9079C58.3142 78.7817 59.4291 79.2829 60.6142 79.2829C61.7989 79.2829 62.914 78.7817 63.6729 77.9079C64.2022 77.2987 64.1405 76.3731 63.5351 75.8407Z" fill="#CCCCCC"/>
<path d="M88.499 42.4248C89.6445 42.1695 90.623 41.4806 91.2538 40.4845L95.3123 34.0774C96.6144 32.0218 96.0126 29.2829 93.9702 27.9718L52.3908 1.28394C49.7235 -0.42798 46.2764 -0.42798 43.6093 1.28394L13.686 20.4905C13.0082 20.9254 12.8091 21.8311 13.2412 22.5133C13.6733 23.1956 14.573 23.3958 15.2508 22.961L45.1739 3.75426C46.8907 2.65231 49.1094 2.65231 50.826 3.75426C50.826 3.75426 92.371 30.4206 92.4052 30.4425C93.0878 30.8806 93.294 31.8138 92.858 32.5026C92.858 32.5026 88.8046 38.9019 88.7997 38.9097C88.3641 39.5972 87.4378 39.8048 86.7531 39.3656L48.7825 14.9934C48.3054 14.6871 47.6949 14.6871 47.2178 14.9934L9.24715 39.3654C8.55835 39.8077 7.64021 39.6031 7.20054 38.9095C7.20054 38.9095 3.1465 32.5093 3.14204 32.5024C2.70877 31.8185 2.91774 30.877 3.59471 30.4423L10.2076 26.1977C10.8853 25.7628 11.0844 24.8571 10.6523 24.1749C10.2202 23.4926 9.3203 23.2924 8.64275 23.7272L2.02986 27.9718C-0.0124843 29.2825 -0.614556 32.0216 0.687766 34.0774L4.74627 40.4845C5.60543 41.8408 7.08218 42.5658 8.57407 42.5257V84.7163H4.5598C3.75614 84.7163 3.10459 85.3722 3.10459 86.1812V98.5351C3.10459 99.3441 3.75614 100 4.5598 100H76.7282C77.5319 100 78.1835 99.3441 78.1835 98.5351C78.1835 97.7262 77.5319 97.0703 76.7282 97.0703H6.01521V87.646H89.9853V97.0703H82.5495C81.7458 97.0703 81.0943 97.7262 81.0943 98.5351C81.0943 99.3441 81.7458 100 82.5495 100H91.4405C92.2441 100 92.8957 99.3441 92.8957 98.5351V86.1812C92.8957 85.3722 92.2441 84.7163 91.4405 84.7163H87.426V42.5265C87.4644 42.5277 88.1806 42.4957 88.499 42.4248ZM40.3275 84.7165C40.8319 82.6763 42.3661 81.0427 44.3396 80.4064C45.1726 81.5286 46.5013 82.2566 48.0001 82.2566C49.499 82.2566 50.8277 81.5286 51.6607 80.4064C53.6342 81.0427 55.1683 82.6767 55.6728 84.7165H40.3275ZM58.6407 84.7165C57.9435 80.4523 54.2578 77.1882 49.8271 77.1882H46.1732C41.7427 77.1882 38.0567 80.4523 37.3596 84.7165H21.0276C21.1233 84.0945 21.2816 83.4997 21.501 82.9376C22.0637 81.4968 23.1443 80.3308 24.2883 79.0964C25.0438 78.2812 25.798 77.4585 26.4426 76.5493C27.4777 75.0892 28.2022 73.4231 28.7903 71.7376C29.6316 69.3259 30.1625 66.7624 31.4896 64.5526C32.9582 62.1067 35.0683 60.224 37.6165 59.0494C39.0366 58.3947 40.5613 57.9791 42.1106 57.7883C42.792 57.7043 43.4787 57.6623 44.1654 57.6623H51.8357C54.0831 57.6623 56.3368 58.1069 58.3846 59.0496C60.932 60.2239 63.0413 62.1059 64.5102 64.5506C65.3296 65.9145 65.8634 67.4323 66.3283 68.9665C67.4913 72.805 68.9632 76.13 71.7126 79.0966C72.8566 80.3308 73.9371 81.4968 74.4998 82.9376C74.7195 83.4999 74.8776 84.0947 74.9732 84.7167L58.6407 84.7165ZM64.4534 59.2619C64.3517 59.3194 64.2491 59.3791 64.1459 59.441C61.5804 56.9994 58.2697 55.4193 54.5077 54.9121C53.6217 54.7926 52.7292 54.732 51.8351 54.732H44.1648C43.3046 54.732 41.5244 54.9078 41.4926 54.9121C37.7304 55.4193 34.4195 56.9996 31.854 59.441C31.0372 58.9504 30.164 58.5324 29.2348 58.3106C28.6483 58.1705 28.04 58.1088 27.4381 58.1606C29.8895 47.9857 37.8893 41.3185 47.9999 41.3185C58.1106 41.3185 66.1104 47.9857 68.5618 58.1606C67.1102 58.0342 65.7002 58.5572 64.4534 59.2619ZM68.8965 61.2194C69.9766 61.6342 70.8051 62.6977 71.562 63.5291C72.5376 64.6006 73.6438 65.8157 75.1263 66.8106C75.6892 67.1883 76.313 67.7964 76.087 68.5477C75.8464 69.3475 74.7344 70.1569 73.0743 70.1569C72.4802 70.1565 71.8641 70.052 71.2405 69.8483C71.2386 69.8477 71.2366 69.8465 71.2347 69.846C70.5932 69.628 69.9877 69.335 69.4124 68.9753C69.3969 68.9655 69.3813 68.9557 69.3658 68.946C69.2802 68.6674 69.1956 68.3887 69.1112 68.1106C68.704 66.768 68.2515 65.3991 67.6104 64.1321C67.1861 63.2932 66.6787 62.4569 66.1154 61.6867C66.129 61.6795 66.1426 61.6723 66.1562 61.6653C66.9818 61.2342 67.977 60.8666 68.8965 61.2194ZM28.1789 61.0906C28.7511 61.1569 29.2944 61.3819 29.8031 61.6444C29.8293 61.6578 29.8569 61.6741 29.8835 61.6881C29.4572 62.2709 29.0641 62.8854 28.7071 63.5309C27.9026 64.9663 27.3656 66.5379 26.8894 68.1088C26.8048 68.3876 26.7204 68.6667 26.6347 68.9454C26.6191 68.9551 26.6038 68.9651 26.5883 68.9747C25.4957 69.6608 24.2291 70.1565 22.9268 70.1563C21.2665 70.1561 20.1543 69.3464 19.9139 68.5465C19.688 67.7956 20.3115 67.1876 20.8743 66.8096C22.3565 65.8149 23.4625 64.6 24.4381 63.5284C25.2014 62.6901 25.8032 62.0483 26.3749 61.6301C26.8978 61.2487 27.5262 61.0151 28.1789 61.0906ZM84.5154 84.7167H77.9064C77.7911 83.7206 77.5595 82.7654 77.2081 81.8653C76.4426 79.9054 75.1195 78.478 73.8403 77.0978C73.2687 76.481 72.721 75.8878 72.24 75.2683V73.0415C72.5192 73.0702 72.7976 73.0864 73.0741 73.0864C73.0739 73.0864 73.0743 73.0864 73.0741 73.0864C75.8782 73.0864 78.2087 71.6034 78.8726 69.3964C79.4357 67.5243 78.6388 65.6459 76.7407 64.3723C75.5515 63.5743 74.6141 62.5448 73.7078 61.5491C73.1063 60.8883 72.4955 60.2203 71.8249 59.6514C70.855 53.7646 68.1564 48.4713 64.1785 44.6968C59.8287 40.5697 54.2341 38.3882 48.0003 38.3882C41.7666 38.3882 36.1719 40.5697 31.8222 44.6968C27.8444 48.4711 25.1461 53.7641 24.1761 59.6506C23.5054 60.2196 22.8946 60.8875 22.2927 61.5489C21.3864 62.5444 20.4494 63.5739 19.2598 64.3721C17.362 65.6458 16.5651 67.5237 17.128 69.3954C17.7918 71.6026 20.1219 73.0858 22.9262 73.0862C22.9258 73.0862 22.9266 73.0862 22.9262 73.0862C23.2025 73.0862 23.4815 73.07 23.7605 73.0415V75.2681C23.2797 75.8874 22.732 76.4806 22.1602 77.0976C20.8809 78.4778 19.5578 79.9054 18.7926 81.8652C18.441 82.765 18.2093 83.7202 18.0941 84.7165H11.4849V41.4038L48.0001 17.966L84.5154 41.404V84.7167Z" fill="#CCCCCC"/>
</svg>
