<svg width="344" height="344" viewBox="0 0 344 344" fill="none" xmlns="http://www.w3.org/2000/svg">
<path d="M174 2C174 3.10457 173.105 4 172 4C170.895 4 170 3.10457 170 2C170 0.89543 170.895 0 172 0C173.105 0 174 0.89543 174 2Z" fill="black"/>
<path d="M208 2C208 3.10457 207.105 4 206 4C204.895 4 204 3.10457 204 2C204 0.89543 204.895 0 206 0C207.105 0 208 0.89543 208 2Z" fill="black"/>
<path d="M140 2C140 3.10457 139.105 4 138 4C136.895 4 136 3.10457 136 2C136 0.89543 136.895 0 138 0C139.105 0 140 0.89543 140 2Z" fill="black"/>
<path d="M174 36C174 37.1046 173.105 38 172 38C170.895 38 170 37.1046 170 36C170 34.8954 170.895 34 172 34C173.105 34 174 34.8954 174 36Z" fill="black"/>
<path d="M140 36C140 37.1046 139.105 38 138 38C136.895 38 136 37.1046 136 36C136 34.8954 136.895 34 138 34C139.105 34 140 34.8954 140 36Z" fill="black"/>
<path d="M242 36C242 37.1046 241.105 38 240 38C238.895 38 238 37.1046 238 36C238 34.8954 238.895 34 240 34C241.105 34 242 34.8954 242 36Z" fill="black"/>
<path d="M276 36C276 37.1046 275.105 38 274 38C272.895 38 272 37.1046 272 36C272 34.8954 272.895 34 274 34C275.105 34 276 34.8954 276 36Z" fill="black"/>
<path d="M310 70C310 71.1046 309.105 72 308 72C306.895 72 306 71.1046 306 70C306 68.8954 306.895 68 308 68C309.105 68 310 68.8954 310 70Z" fill="black"/>
<path d="M208 36C208 37.1046 207.105 38 206 38C204.895 38 204 37.1046 204 36C204 34.8954 204.895 34 206 34C207.105 34 208 34.8954 208 36Z" fill="black"/>
<path d="M106 36C106 37.1046 105.105 38 104 38C102.895 38 102 37.1046 102 36C102 34.8954 102.895 34 104 34C105.105 34 106 34.8954 106 36Z" fill="black"/>
<path d="M72 36C72 37.1046 71.1046 38 70 38C68.8954 38 68 37.1046 68 36C68 34.8954 68.8954 34 70 34C71.1046 34 72 34.8954 72 36Z" fill="black"/>
<path d="M72 70C72 71.1046 71.1046 72 70 72C68.8954 72 68 71.1046 68 70C68 68.8954 68.8954 68 70 68C71.1046 68 72 68.8954 72 70Z" fill="black"/>
<path d="M38 70C38 71.1046 37.1046 72 36 72C34.8954 72 34 71.1046 34 70C34 68.8954 34.8954 68 36 68C37.1046 68 38 68.8954 38 70Z" fill="black"/>
<path d="M38 104C38 105.105 37.1046 106 36 106C34.8954 106 34 105.105 34 104C34 102.895 34.8954 102 36 102C37.1046 102 38 102.895 38 104Z" fill="black"/>
<path d="M140 70C140 71.1046 139.105 72 138 72C136.895 72 136 71.1046 136 70C136 68.8954 136.895 68 138 68C139.105 68 140 68.8954 140 70Z" fill="black"/>
<path d="M106 70C106 71.1046 105.105 72 104 72C102.895 72 102 71.1046 102 70C102 68.8954 102.895 68 104 68C105.105 68 106 68.8954 106 70Z" fill="black"/>
<path d="M208 70C208 71.1046 207.105 72 206 72C204.895 72 204 71.1046 204 70C204 68.8954 204.895 68 206 68C207.105 68 208 68.8954 208 70Z" fill="black"/>
<path d="M174 70C174 71.1046 173.105 72 172 72C170.895 72 170 71.1046 170 70C170 68.8954 170.895 68 172 68C173.105 68 174 68.8954 174 70Z" fill="black"/>
<path d="M276 70C276 71.1046 275.105 72 274 72C272.895 72 272 71.1046 272 70C272 68.8954 272.895 68 274 68C275.105 68 276 68.8954 276 70Z" fill="black"/>
<path d="M242 70C242 71.1046 241.105 72 240 72C238.895 72 238 71.1046 238 70C238 68.8954 238.895 68 240 68C241.105 68 242 68.8954 242 70Z" fill="black"/>
<path d="M310 104C310 105.105 309.105 106 308 106C306.895 106 306 105.105 306 104C306 102.895 306.895 102 308 102C309.105 102 310 102.895 310 104Z" fill="black"/>
<path d="M276 104C276 105.105 275.105 106 274 106C272.895 106 272 105.105 272 104C272 102.895 272.895 102 274 102C275.105 102 276 102.895 276 104Z" fill="black"/>
<path d="M242 104C242 105.105 241.105 106 240 106C238.895 106 238 105.105 238 104C238 102.895 238.895 102 240 102C241.105 102 242 102.895 242 104Z" fill="black"/>
<path d="M208 104C208 105.105 207.105 106 206 106C204.895 106 204 105.105 204 104C204 102.895 204.895 102 206 102C207.105 102 208 102.895 208 104Z" fill="black"/>
<path d="M174 104C174 105.105 173.105 106 172 106C170.895 106 170 105.105 170 104C170 102.895 170.895 102 172 102C173.105 102 174 102.895 174 104Z" fill="black"/>
<path d="M140 104C140 105.105 139.105 106 138 106C136.895 106 136 105.105 136 104C136 102.895 136.895 102 138 102C139.105 102 140 102.895 140 104Z" fill="black"/>
<path d="M106 104C106 105.105 105.105 106 104 106C102.895 106 102 105.105 102 104C102 102.895 102.895 102 104 102C105.105 102 106 102.895 106 104Z" fill="black"/>
<path d="M72 104C72 105.105 71.1046 106 70 106C68.8954 106 68 105.105 68 104C68 102.895 68.8954 102 70 102C71.1046 102 72 102.895 72 104Z" fill="black"/>
<path d="M106 138C106 139.105 105.105 140 104 140C102.895 140 102 139.105 102 138C102 136.895 102.895 136 104 136C105.105 136 106 136.895 106 138Z" fill="black"/>
<path d="M72 138C72 139.105 71.1046 140 70 140C68.8954 140 68 139.105 68 138C68 136.895 68.8954 136 70 136C71.1046 136 72 136.895 72 138Z" fill="black"/>
<path d="M38 138C38 139.105 37.1046 140 36 140C34.8954 140 34 139.105 34 138C34 136.895 34.8954 136 36 136C37.1046 136 38 136.895 38 138Z" fill="black"/>
<path d="M4 138C4 139.105 3.10457 140 2 140C0.89543 140 0 139.105 0 138C0 136.895 0.89543 136 2 136C3.10457 136 4 136.895 4 138Z" fill="black"/>
<path d="M174 138C174 139.105 173.105 140 172 140C170.895 140 170 139.105 170 138C170 136.895 170.895 136 172 136C173.105 136 174 136.895 174 138Z" fill="black"/>
<path d="M140 138C140 139.105 139.105 140 138 140C136.895 140 136 139.105 136 138C136 136.895 136.895 136 138 136C139.105 136 140 136.895 140 138Z" fill="black"/>
<path d="M242 138C242 139.105 241.105 140 240 140C238.895 140 238 139.105 238 138C238 136.895 238.895 136 240 136C241.105 136 242 136.895 242 138Z" fill="black"/>
<path d="M208 138C208 139.105 207.105 140 206 140C204.895 140 204 139.105 204 138C204 136.895 204.895 136 206 136C207.105 136 208 136.895 208 138Z" fill="black"/>
<path d="M310 138C310 139.105 309.105 140 308 140C306.895 140 306 139.105 306 138C306 136.895 306.895 136 308 136C309.105 136 310 136.895 310 138Z" fill="black"/>
<path d="M344 138C344 139.105 343.105 140 342 140C340.895 140 340 139.105 340 138C340 136.895 340.895 136 342 136C343.105 136 344 136.895 344 138Z" fill="black"/>
<path d="M276 138C276 139.105 275.105 140 274 140C272.895 140 272 139.105 272 138C272 136.895 272.895 136 274 136C275.105 136 276 136.895 276 138Z" fill="black"/>
<path d="M106 172C106 173.105 105.105 174 104 174C102.895 174 102 173.105 102 172C102 170.895 102.895 170 104 170C105.105 170 106 170.895 106 172Z" fill="black"/>
<path d="M72 172C72 173.105 71.1046 174 70 174C68.8954 174 68 173.105 68 172C68 170.895 68.8954 170 70 170C71.1046 170 72 170.895 72 172Z" fill="black"/>
<path d="M38 172C38 173.105 37.1046 174 36 174C34.8954 174 34 173.105 34 172C34 170.895 34.8954 170 36 170C37.1046 170 38 170.895 38 172Z" fill="black"/>
<path d="M4 172C4 173.105 3.10457 174 2 174C0.89543 174 0 173.105 0 172C0 170.895 0.89543 170 2 170C3.10457 170 4 170.895 4 172Z" fill="black"/>
<path d="M174 172C174 173.105 173.105 174 172 174C170.895 174 170 173.105 170 172C170 170.895 170.895 170 172 170C173.105 170 174 170.895 174 172Z" fill="black"/>
<path d="M140 172C140 173.105 139.105 174 138 174C136.895 174 136 173.105 136 172C136 170.895 136.895 170 138 170C139.105 170 140 170.895 140 172Z" fill="black"/>
<path d="M242 172C242 173.105 241.105 174 240 174C238.895 174 238 173.105 238 172C238 170.895 238.895 170 240 170C241.105 170 242 170.895 242 172Z" fill="black"/>
<path d="M208 172C208 173.105 207.105 174 206 174C204.895 174 204 173.105 204 172C204 170.895 204.895 170 206 170C207.105 170 208 170.895 208 172Z" fill="black"/>
<path d="M310 172C310 173.105 309.105 174 308 174C306.895 174 306 173.105 306 172C306 170.895 306.895 170 308 170C309.105 170 310 170.895 310 172Z" fill="black"/>
<path d="M344 172C344 173.105 343.105 174 342 174C340.895 174 340 173.105 340 172C340 170.895 340.895 170 342 170C343.105 170 344 170.895 344 172Z" fill="black"/>
<path d="M276 172C276 173.105 275.105 174 274 174C272.895 174 272 173.105 272 172C272 170.895 272.895 170 274 170C275.105 170 276 170.895 276 172Z" fill="black"/>
<path d="M174 342C174 340.895 173.105 340 172 340C170.895 340 170 340.895 170 342C170 343.105 170.895 344 172 344C173.105 344 174 343.105 174 342Z" fill="black"/>
<path d="M208 342C208 340.895 207.105 340 206 340C204.895 340 204 340.895 204 342C204 343.105 204.895 344 206 344C207.105 344 208 343.105 208 342Z" fill="black"/>
<path d="M140 342C140 340.895 139.105 340 138 340C136.895 340 136 340.895 136 342C136 343.105 136.895 344 138 344C139.105 344 140 343.105 140 342Z" fill="black"/>
<path d="M174 308C174 306.895 173.105 306 172 306C170.895 306 170 306.895 170 308C170 309.105 170.895 310 172 310C173.105 310 174 309.105 174 308Z" fill="black"/>
<path d="M140 308C140 306.895 139.105 306 138 306C136.895 306 136 306.895 136 308C136 309.105 136.895 310 138 310C139.105 310 140 309.105 140 308Z" fill="black"/>
<path d="M242 308C242 306.895 241.105 306 240 306C238.895 306 238 306.895 238 308C238 309.105 238.895 310 240 310C241.105 310 242 309.105 242 308Z" fill="black"/>
<path d="M276 308C276 306.895 275.105 306 274 306C272.895 306 272 306.895 272 308C272 309.105 272.895 310 274 310C275.105 310 276 309.105 276 308Z" fill="black"/>
<path d="M310 274C310 272.895 309.105 272 308 272C306.895 272 306 272.895 306 274C306 275.105 306.895 276 308 276C309.105 276 310 275.105 310 274Z" fill="black"/>
<path d="M208 308C208 306.895 207.105 306 206 306C204.895 306 204 306.895 204 308C204 309.105 204.895 310 206 310C207.105 310 208 309.105 208 308Z" fill="black"/>
<path d="M106 308C106 306.895 105.105 306 104 306C102.895 306 102 306.895 102 308C102 309.105 102.895 310 104 310C105.105 310 106 309.105 106 308Z" fill="black"/>
<path d="M72 308C72 306.895 71.1046 306 70 306C68.8954 306 68 306.895 68 308C68 309.105 68.8954 310 70 310C71.1046 310 72 309.105 72 308Z" fill="black"/>
<path d="M72 274C72 272.895 71.1046 272 70 272C68.8954 272 68 272.895 68 274C68 275.105 68.8954 276 70 276C71.1046 276 72 275.105 72 274Z" fill="black"/>
<path d="M38 274C38 272.895 37.1046 272 36 272C34.8954 272 34 272.895 34 274C34 275.105 34.8954 276 36 276C37.1046 276 38 275.105 38 274Z" fill="black"/>
<path d="M38 240C38 238.895 37.1046 238 36 238C34.8954 238 34 238.895 34 240C34 241.105 34.8954 242 36 242C37.1046 242 38 241.105 38 240Z" fill="black"/>
<path d="M140 274C140 272.895 139.105 272 138 272C136.895 272 136 272.895 136 274C136 275.105 136.895 276 138 276C139.105 276 140 275.105 140 274Z" fill="black"/>
<path d="M106 274C106 272.895 105.105 272 104 272C102.895 272 102 272.895 102 274C102 275.105 102.895 276 104 276C105.105 276 106 275.105 106 274Z" fill="black"/>
<path d="M208 274C208 272.895 207.105 272 206 272C204.895 272 204 272.895 204 274C204 275.105 204.895 276 206 276C207.105 276 208 275.105 208 274Z" fill="black"/>
<path d="M174 274C174 272.895 173.105 272 172 272C170.895 272 170 272.895 170 274C170 275.105 170.895 276 172 276C173.105 276 174 275.105 174 274Z" fill="black"/>
<path d="M276 274C276 272.895 275.105 272 274 272C272.895 272 272 272.895 272 274C272 275.105 272.895 276 274 276C275.105 276 276 275.105 276 274Z" fill="black"/>
<path d="M242 274C242 272.895 241.105 272 240 272C238.895 272 238 272.895 238 274C238 275.105 238.895 276 240 276C241.105 276 242 275.105 242 274Z" fill="black"/>
<path d="M310 240C310 238.895 309.105 238 308 238C306.895 238 306 238.895 306 240C306 241.105 306.895 242 308 242C309.105 242 310 241.105 310 240Z" fill="black"/>
<path d="M276 240C276 238.895 275.105 238 274 238C272.895 238 272 238.895 272 240C272 241.105 272.895 242 274 242C275.105 242 276 241.105 276 240Z" fill="black"/>
<path d="M242 240C242 238.895 241.105 238 240 238C238.895 238 238 238.895 238 240C238 241.105 238.895 242 240 242C241.105 242 242 241.105 242 240Z" fill="black"/>
<path d="M208 240C208 238.895 207.105 238 206 238C204.895 238 204 238.895 204 240C204 241.105 204.895 242 206 242C207.105 242 208 241.105 208 240Z" fill="black"/>
<path d="M174 240C174 238.895 173.105 238 172 238C170.895 238 170 238.895 170 240C170 241.105 170.895 242 172 242C173.105 242 174 241.105 174 240Z" fill="black"/>
<path d="M140 240C140 238.895 139.105 238 138 238C136.895 238 136 238.895 136 240C136 241.105 136.895 242 138 242C139.105 242 140 241.105 140 240Z" fill="black"/>
<path d="M106 240C106 238.895 105.105 238 104 238C102.895 238 102 238.895 102 240C102 241.105 102.895 242 104 242C105.105 242 106 241.105 106 240Z" fill="black"/>
<path d="M72 240C72 238.895 71.1046 238 70 238C68.8954 238 68 238.895 68 240C68 241.105 68.8954 242 70 242C71.1046 242 72 241.105 72 240Z" fill="black"/>
<path d="M106 206C106 204.895 105.105 204 104 204C102.895 204 102 204.895 102 206C102 207.105 102.895 208 104 208C105.105 208 106 207.105 106 206Z" fill="black"/>
<path d="M72 206C72 204.895 71.1046 204 70 204C68.8954 204 68 204.895 68 206C68 207.105 68.8954 208 70 208C71.1046 208 72 207.105 72 206Z" fill="black"/>
<path d="M38 206C38 204.895 37.1046 204 36 204C34.8954 204 34 204.895 34 206C34 207.105 34.8954 208 36 208C37.1046 208 38 207.105 38 206Z" fill="black"/>
<path d="M4 206C4 204.895 3.10457 204 2 204C0.89543 204 0 204.895 0 206C0 207.105 0.89543 208 2 208C3.10457 208 4 207.105 4 206Z" fill="black"/>
<path d="M174 206C174 204.895 173.105 204 172 204C170.895 204 170 204.895 170 206C170 207.105 170.895 208 172 208C173.105 208 174 207.105 174 206Z" fill="black"/>
<path d="M140 206C140 204.895 139.105 204 138 204C136.895 204 136 204.895 136 206C136 207.105 136.895 208 138 208C139.105 208 140 207.105 140 206Z" fill="black"/>
<path d="M242 206C242 204.895 241.105 204 240 204C238.895 204 238 204.895 238 206C238 207.105 238.895 208 240 208C241.105 208 242 207.105 242 206Z" fill="black"/>
<path d="M208 206C208 204.895 207.105 204 206 204C204.895 204 204 204.895 204 206C204 207.105 204.895 208 206 208C207.105 208 208 207.105 208 206Z" fill="black"/>
<path d="M310 206C310 204.895 309.105 204 308 204C306.895 204 306 204.895 306 206C306 207.105 306.895 208 308 208C309.105 208 310 207.105 310 206Z" fill="black"/>
<path d="M344 206C344 204.895 343.105 204 342 204C340.895 204 340 204.895 340 206C340 207.105 340.895 208 342 208C343.105 208 344 207.105 344 206Z" fill="black"/>
<path d="M276 206C276 204.895 275.105 204 274 204C272.895 204 272 204.895 272 206C272 207.105 272.895 208 274 208C275.105 208 276 207.105 276 206Z" fill="black"/>
</svg>
