<svg width="340" height="340" viewBox="0 0 340 340" fill="none" xmlns="http://www.w3.org/2000/svg">
<path fill-rule="evenodd" clip-rule="evenodd" d="M339.927 164.969L336.928 165.056C336.976 166.698 337 168.346 337 170C337 171.654 336.976 173.302 336.928 174.944L339.927 175.031C339.976 173.36 340 171.683 340 170C340 168.317 339.976 166.64 339.927 164.969ZM339.764 179.034L336.768 178.877C336.595 182.182 336.326 185.461 335.964 188.712L338.945 189.044C339.314 185.735 339.588 182.397 339.764 179.034ZM338.453 193.032L335.48 192.629C335.037 195.902 334.499 199.145 333.869 202.354L336.813 202.932C337.454 199.665 338.002 196.364 338.453 193.032ZM335.992 206.865L333.063 206.218C332.35 209.44 331.544 212.628 330.649 215.778L333.534 216.599C334.446 213.392 335.266 210.146 335.992 206.865ZM332.391 220.442L329.526 219.553C328.549 222.704 327.48 225.814 326.324 228.882L329.132 229.94C330.309 226.817 331.396 223.65 332.391 220.442ZM327.67 233.682C326.413 236.792 325.067 239.856 323.634 242.871L320.924 241.583C322.332 238.622 323.654 235.612 324.889 232.557L327.67 233.682ZM321.867 246.479L319.188 245.127C317.705 248.068 316.137 250.958 314.488 253.795L317.081 255.303C318.76 252.415 320.356 249.472 321.867 246.479ZM315.023 258.749L312.466 257.181C310.745 259.987 308.943 262.739 307.064 265.433L309.525 267.149C311.437 264.407 313.271 261.606 315.023 258.749ZM307.188 270.415L304.769 268.642C302.824 271.295 300.802 273.889 298.707 276.42L301.018 278.333C303.15 275.756 305.208 273.116 307.188 270.415ZM298.42 281.396L296.155 279.43C293.999 281.913 291.771 284.332 289.474 286.684L291.62 288.78C293.958 286.386 296.226 283.924 298.42 281.396ZM288.78 291.62L286.684 289.474C284.332 291.771 281.913 293.999 279.43 296.155L281.396 298.42C283.924 296.226 286.386 293.958 288.78 291.62ZM278.333 301.018L276.42 298.707C273.889 300.802 271.295 302.824 268.642 304.769L270.415 307.188C273.116 305.208 275.756 303.15 278.333 301.018ZM267.149 309.525L265.433 307.064C262.739 308.943 259.987 310.745 257.181 312.466L258.749 315.023C261.606 313.271 264.407 311.437 267.149 309.525ZM255.303 317.081L253.795 314.488C250.958 316.137 248.068 317.705 245.127 319.188L246.479 321.867C249.472 320.356 252.414 318.76 255.303 317.081ZM242.871 323.634L241.583 320.924C238.621 322.332 235.612 323.654 232.557 324.889L233.682 327.67C236.792 326.413 239.856 325.067 242.871 323.634ZM229.94 329.132L228.882 326.324C225.814 327.48 222.704 328.549 219.553 329.526L220.442 332.391C223.65 331.396 226.817 330.309 229.94 329.132ZM216.599 333.534L215.778 330.649C212.628 331.544 209.44 332.35 206.218 333.063L206.865 335.992C210.146 335.266 213.392 334.446 216.599 333.534ZM202.932 336.813L202.354 333.869C199.145 334.499 195.902 335.037 192.629 335.48L193.032 338.453C196.364 338.002 199.665 337.454 202.932 336.813ZM189.044 338.945L188.711 335.964C185.461 336.326 182.182 336.595 178.877 336.768L179.034 339.764C182.397 339.588 185.735 339.314 189.044 338.945ZM175.031 339.927C173.36 339.976 171.683 340 170 340C168.317 340 166.64 339.976 164.969 339.927L165.056 336.928C166.698 336.976 168.346 337 170 337C171.654 337 173.302 336.976 174.944 336.928L175.031 339.927ZM160.966 339.764C157.603 339.588 154.265 339.314 150.956 338.945L151.288 335.964C154.539 336.326 157.818 336.595 161.123 336.768L160.966 339.764ZM146.968 338.453L147.371 335.48C144.098 335.037 140.855 334.499 137.646 333.869L137.068 336.813C140.335 337.454 143.636 338.002 146.968 338.453ZM133.135 335.992L133.782 333.063C130.56 332.35 127.372 331.544 124.222 330.649L123.401 333.534C126.608 334.446 129.854 335.266 133.135 335.992ZM119.558 332.391L120.447 329.526C117.296 328.549 114.186 327.48 111.118 326.324L110.06 329.132C113.183 330.309 116.35 331.396 119.558 332.391ZM106.318 327.67L107.443 324.889C104.388 323.654 101.378 322.332 98.4168 320.924L97.1293 323.634C100.144 325.067 103.208 326.413 106.318 327.67ZM93.5212 321.867L94.8727 319.188C91.9324 317.705 89.042 316.137 86.2045 314.488L84.697 317.081C87.5855 318.76 90.528 320.356 93.5212 321.867ZM81.2505 315.023C78.3937 313.271 75.5927 311.437 72.8508 309.525L74.5672 307.064C77.2609 308.943 80.0125 310.745 82.8189 312.466L81.2505 315.023ZM69.5846 307.188L71.3585 304.769C68.7052 302.824 66.1114 300.802 63.5804 298.707L61.6674 301.018C64.2436 303.15 66.8838 305.208 69.5846 307.188ZM58.6037 298.42L60.5705 296.155C58.087 293.999 55.6679 291.771 53.3162 289.474L51.22 291.62C53.6136 293.958 56.0759 296.226 58.6037 298.42ZM48.3804 288.78L50.5265 286.684C48.2294 284.332 46.0012 281.913 43.8451 279.43L41.5798 281.396C43.7744 283.924 46.0423 286.386 48.3804 288.78ZM38.9824 278.333L41.2933 276.42C39.1982 273.889 37.1763 271.295 35.2309 268.642L32.8116 270.415C34.7918 273.116 36.8498 275.756 38.9824 278.333ZM30.4755 267.149L32.9359 265.433C31.0568 262.739 29.2551 259.987 27.5341 257.181L24.9767 258.749C26.7287 261.606 28.5627 264.407 30.4755 267.149ZM22.9187 255.303L25.5124 253.795C23.8632 250.958 22.2952 248.068 20.8116 245.127L18.1332 246.479C19.6436 249.472 21.2398 252.414 22.9187 255.303ZM16.3661 242.871L19.0757 241.583C17.6685 238.621 16.3458 235.612 15.111 232.557L12.3297 233.682C13.5869 236.792 14.9334 239.856 16.3661 242.871ZM10.8684 229.94L13.6757 228.882C12.5196 225.814 11.4513 222.704 10.4738 219.553L7.60854 220.442C8.60378 223.65 9.69144 226.817 10.8684 229.94ZM6.46581 216.599L9.35138 215.778C8.45559 212.628 7.64992 209.44 6.93737 206.218L4.00811 206.865C4.73355 210.146 5.55379 213.392 6.46581 216.599ZM3.18739 202.932L6.13121 202.354C5.50123 199.145 4.96316 195.902 4.51989 192.629L1.54703 193.032C1.99827 196.364 2.54603 199.665 3.18739 202.932ZM1.05474 189.044L4.03628 188.711C3.67392 185.461 3.40484 182.182 3.23181 178.877L0.235909 179.034C0.412014 182.397 0.685888 185.735 1.05474 189.044ZM0.0730309 175.031C0.0244556 173.36 0 171.683 0 170C0 168.317 0.0244561 166.64 0.0730322 164.969L3.07177 165.056C3.02403 166.698 3 168.346 3 170C3 171.654 3.02403 173.302 3.07176 174.944L0.0730309 175.031ZM0.235912 160.966C0.412019 157.603 0.685893 154.265 1.05475 150.956L4.03628 151.288C3.67392 154.539 3.40484 157.818 3.23181 161.123L0.235912 160.966ZM1.54703 146.968L4.51989 147.371C4.96317 144.098 5.50123 140.855 6.13121 137.646L3.18739 137.068C2.54603 140.335 1.99828 143.636 1.54703 146.968ZM4.00812 133.135L6.93737 133.782C7.64993 130.56 8.45559 127.372 9.35139 124.222L6.46582 123.401C5.5538 126.608 4.73356 129.854 4.00812 133.135ZM7.60855 119.558L10.4738 120.447C11.4513 117.296 12.5196 114.186 13.6757 111.118L10.8684 110.06C9.69145 113.183 8.60379 116.35 7.60855 119.558ZM12.3297 106.318L15.111 107.443C16.3458 104.388 17.6685 101.378 19.0757 98.4168L16.3661 97.1293C14.9334 100.144 13.5869 103.208 12.3297 106.318ZM18.1333 93.5212L20.8116 94.8727C22.2952 91.9324 23.8632 89.042 25.5124 86.2045L22.9187 84.697C21.2398 87.5855 19.6436 90.528 18.1333 93.5212ZM24.9767 81.2505L27.5341 82.8189C29.2551 80.0125 31.0568 77.2609 32.936 74.5672L30.4755 72.8508C28.5627 75.5927 26.7287 78.3938 24.9767 81.2505ZM32.8116 69.5846L35.231 71.3585C37.1763 68.7052 39.1982 66.1114 41.2933 63.5804L38.9824 61.6674C36.8498 64.2437 34.7918 66.8838 32.8116 69.5846ZM41.5798 58.6037L43.8451 60.5705C46.0012 58.087 48.2294 55.6679 50.5265 53.3162L48.3804 51.22C46.0423 53.6136 43.7744 56.0759 41.5798 58.6037ZM51.22 48.3804L53.3162 50.5265C55.6679 48.2294 58.087 46.0012 60.5705 43.8451L58.6037 41.5798C56.0759 43.7744 53.6136 46.0424 51.22 48.3804ZM61.6674 38.9824L63.5804 41.2933C66.1114 39.1982 68.7052 37.1763 71.3585 35.231L69.5846 32.8116C66.8838 34.7917 64.2437 36.8498 61.6674 38.9824ZM72.8508 30.4755L74.5672 32.9359C77.2609 31.0568 80.0126 29.2551 82.8189 27.5341L81.2505 24.9767C78.3938 26.7287 75.5928 28.5627 72.8508 30.4755ZM84.697 22.9187L86.2045 25.5124C89.042 23.8632 91.9325 22.2952 94.8727 20.8116L93.5212 18.1332C90.528 19.6436 87.5855 21.2398 84.697 22.9187ZM97.1293 16.3661L98.4168 19.0757C101.379 17.6685 104.388 16.3458 107.443 15.111L106.318 12.3297C103.208 13.5869 100.144 14.9334 97.1293 16.3661ZM110.06 10.8684L111.118 13.6757C114.186 12.5196 117.296 11.4513 120.447 10.4738L119.558 7.60855C116.35 8.60379 113.183 9.69144 110.06 10.8684ZM123.401 6.46582L124.222 9.35138C127.372 8.4556 130.56 7.64993 133.782 6.93738L133.135 4.00812C129.854 4.73355 126.608 5.5538 123.401 6.46582ZM137.068 3.18738L137.646 6.1312C140.855 5.50122 144.098 4.96317 147.371 4.5199L146.968 1.54703C143.636 1.99826 140.335 2.54602 137.068 3.18738ZM150.956 1.05475L151.289 4.03629C154.539 3.67392 157.818 3.40485 161.123 3.23181L160.966 0.235901C157.603 0.412018 154.265 0.685883 150.956 1.05475ZM164.969 0.0730286L165.056 3.07178C166.698 3.02405 168.346 3 170 3C171.654 3 173.302 3.02405 174.944 3.07178L175.031 0.0730286C173.36 0.0244446 171.683 0 170 0C168.317 0 166.64 0.0244446 164.969 0.0730286ZM179.034 0.235901L178.877 3.23181C182.182 3.40485 185.461 3.67392 188.712 4.03629L189.044 1.05475C185.735 0.685883 182.397 0.412018 179.034 0.235901ZM193.032 1.54703L192.629 4.5199C195.902 4.96317 199.145 5.50122 202.354 6.13123L202.932 3.18738C199.665 2.54602 196.364 1.99826 193.032 1.54703ZM206.865 4.00812L206.218 6.93738C209.44 7.64993 212.628 8.4556 215.778 9.35138L216.599 6.46582C213.392 5.5538 210.146 4.73355 206.865 4.00812ZM220.442 7.60855L219.553 10.4738C222.704 11.4513 225.814 12.5197 228.882 13.6757L229.94 10.8684C226.817 9.69144 223.65 8.60379 220.442 7.60855ZM233.682 12.3297L232.557 15.111C235.612 16.3459 238.622 17.6685 241.583 19.0757L242.871 16.3661C239.856 14.9334 236.792 13.5869 233.682 12.3297ZM246.479 18.1333L245.127 20.8116C248.068 22.2952 250.958 23.8632 253.795 25.5124L255.303 22.9187C252.415 21.2398 249.472 19.6436 246.479 18.1333ZM258.75 24.9767L257.181 27.5341C259.987 29.2552 262.739 31.0569 265.433 32.9359L267.149 30.4755C264.407 28.5627 261.606 26.7287 258.75 24.9767ZM270.415 32.8116C273.116 34.7918 275.756 36.8498 278.333 38.9824L276.42 41.2933C273.889 39.1982 271.295 37.1763 268.642 35.231L270.415 32.8116ZM281.396 41.5798L279.43 43.8451C281.913 46.0012 284.332 48.2294 286.684 50.5265L288.78 48.3804C286.386 46.0423 283.924 43.7744 281.396 41.5798ZM291.62 51.22L289.474 53.3163C291.771 55.6679 293.999 58.087 296.155 60.5705L298.42 58.6037C296.226 56.0759 293.958 53.6136 291.62 51.22ZM301.018 61.6674L298.707 63.5804C300.802 66.1114 302.824 68.7052 304.769 71.3585L307.188 69.5846C305.208 66.8838 303.15 64.2437 301.018 61.6674ZM309.525 72.8508L307.064 74.5672C308.943 77.2609 310.745 80.0125 312.466 82.8189L315.023 81.2505C313.271 78.3938 311.437 75.5927 309.525 72.8508ZM317.081 84.697L314.488 86.2045C316.137 89.042 317.705 91.9325 319.188 94.8727L321.867 93.5212C320.356 90.528 318.76 87.5855 317.081 84.697ZM323.634 97.1293L320.924 98.4168C322.332 101.379 323.654 104.388 324.889 107.443L327.67 106.318C326.413 103.208 325.067 100.144 323.634 97.1293ZM329.132 110.06L326.324 111.118C327.48 114.186 328.549 117.296 329.526 120.447L332.391 119.558C331.396 116.35 330.309 113.183 329.132 110.06ZM333.534 123.401L330.649 124.222C331.544 127.372 332.35 130.56 333.063 133.782L335.992 133.135C335.266 129.854 334.446 126.608 333.534 123.401ZM336.813 137.068L333.869 137.646C334.499 140.855 335.037 144.098 335.48 147.371L338.453 146.968C338.002 143.636 337.454 140.335 336.813 137.068ZM338.945 150.956L335.964 151.289C336.326 154.539 336.595 157.818 336.768 161.123L339.764 160.966C339.588 157.603 339.314 154.265 338.945 150.956Z" fill="url(#paint0_linear)"/>
<defs>
<linearGradient id="paint0_linear" x1="0" y1="340" x2="340" y2="0" gradientUnits="userSpaceOnUse">
<stop stop-color="#F3E8EA"/>
<stop offset="1" stop-color="white"/>
</linearGradient>
</defs>
</svg>
