<svg width="22" height="22" viewBox="0 0 22 22" fill="none" xmlns="http://www.w3.org/2000/svg">
<path d="M18.6265 11.5565C18.7766 11.4064 18.8568 11.2053 18.8568 11.001C18.8568 10.8996 18.8379 10.7975 18.797 10.7001C18.676 10.407 18.3885 10.2153 18.0711 10.2153L0.785698 10.2153C0.351993 10.2153 0 10.5673 0 11.001C0 11.4347 0.351993 11.7867 0.785698 11.7867H16.1744L10.4443 17.5168C10.1371 17.824 10.1371 18.3205 10.4443 18.6277C10.7515 18.935 11.2481 18.935 11.5553 18.6277L18.6265 11.5565Z" fill="black"/>
<path d="M15.7106 7.85717C15.7106 7.65603 15.6336 7.45489 15.4804 7.30168L11.5519 3.37319C11.2447 3.06598 10.7474 3.06598 10.441 3.37319C10.1345 3.6804 10.1337 4.17696 10.4417 4.48417L14.3702 8.41266C14.6774 8.71987 15.174 8.71987 15.4812 8.41266C15.6336 8.25945 15.7106 8.05831 15.7106 7.85717Z" fill="black"/>
<path d="M14.9297 0.786146C14.9297 1.22064 15.2809 1.57184 15.7154 1.57184H20.4296V20.4286H15.7154C15.2809 20.4286 14.9297 20.7806 14.9297 21.2143C14.9297 21.648 15.2809 22 15.7154 22H21.2153C21.6498 22 22.001 21.648 22.001 21.2143V0.786146C22.001 0.351654 21.6498 0.000448227 21.2153 0.000448227H15.7154C15.2809 0.000448227 14.9297 0.351654 14.9297 0.786146Z" fill="black"/>
</svg>
