<svg width="28" height="18" viewBox="0 0 28 18" fill="none" xmlns="http://www.w3.org/2000/svg">
<path d="M5.63991 14.8445L7.06989 13.476C5.3236 12.1773 3.75778 10.6732 2.40996 8.99983C3.79994 7.26069 8.53986 1.9007 13.9998 1.9007C15.4437 1.918 16.8652 2.24275 18.1597 2.85106L19.6397 1.43503C17.9127 0.522701 15.9754 0.0297671 13.9998 0C6.4699 0 0.589991 8.11601 0.339995 8.46764L0 8.99983L0.379994 9.53203C1.86336 11.5278 3.63391 13.3161 5.63991 14.8445Z" fill="#CCCCCC"/>
<path d="M27.66 8.46797C26.2371 6.57905 24.5557 4.87879 22.6601 3.41209L21.2301 4.7711C22.8535 6.01277 24.317 7.43229 25.59 9.00017C24.2001 10.7393 19.4601 16.0993 14.0002 16.0993C12.6868 16.078 11.3926 15.7964 10.2003 15.2725L8.6903 16.7075C10.3293 17.5278 12.1481 17.9705 14.0002 18C21.5301 18 27.41 9.88399 27.66 9.53236L28 9.00017L27.66 8.46797Z" fill="#CCCCCC"/>
<path d="M19.7462 0.668789L3.93136 15.8368C3.57177 16.1816 3.59686 16.7649 3.98738 17.1394C4.3779 17.514 4.98599 17.538 5.34557 17.1931L21.1604 2.02516C21.52 1.68028 21.4949 1.09707 21.1044 0.722518C20.7139 0.347968 20.1058 0.323912 19.7462 0.668789Z" fill="#CCCCCC"/>
<path d="M17.1299 5.20624L10.1299 11.9199C10.5597 12.4696 11.1076 12.9242 11.7366 13.2531C12.3656 13.582 13.0609 13.7774 13.7754 13.8261C14.49 13.8748 15.2071 13.7756 15.8783 13.5354C16.5494 13.2951 17.1589 12.9194 17.6654 12.4336C18.172 11.9477 18.5637 11.3632 18.8142 10.7195C19.0647 10.0758 19.1681 9.38802 19.1173 8.70269C19.0665 8.01736 18.8628 7.35049 18.5199 6.74725C18.177 6.14401 17.703 5.61848 17.1299 5.20624Z" fill="#CCCCCC"/>
<path fill-rule="evenodd" clip-rule="evenodd" d="M8.1739 12.9699L2.4039 7.43596L3.0961 6.71424L8.8661 12.2482L8.1739 12.9699Z" fill="#CCCCCC"/>
<path fill-rule="evenodd" clip-rule="evenodd" d="M9.65437 11.5986L3.88437 6.06458L4.57656 5.34287L10.3466 10.8769L9.65437 11.5986Z" fill="#CCCCCC"/>
<path fill-rule="evenodd" clip-rule="evenodd" d="M11.0938 10.2291L5.32383 4.6951L6.01602 3.97338L11.786 9.50737L11.0938 10.2291Z" fill="#CCCCCC"/>
<path fill-rule="evenodd" clip-rule="evenodd" d="M12.504 8.84636L6.73398 3.31237L7.42617 2.59066L13.1962 8.12465L12.504 8.84636Z" fill="#CCCCCC"/>
<path fill-rule="evenodd" clip-rule="evenodd" d="M13.9639 7.47497L8.65389 2.38171L9.34611 1.66003L14.6561 6.75329L13.9639 7.47497Z" fill="#CCCCCC"/>
<path fill-rule="evenodd" clip-rule="evenodd" d="M15.3636 6.09466L10.8336 1.74995L11.5258 1.02823L16.0558 5.37295L15.3636 6.09466Z" fill="#CCCCCC"/>
<path fill-rule="evenodd" clip-rule="evenodd" d="M16.7825 4.73182L13.1626 1.42137L13.8374 0.68342L17.4574 3.99388L16.7825 4.73182Z" fill="#CCCCCC"/>
</svg>
