<svg width="28" height="18" viewBox="0 0 28 18" fill="none" xmlns="http://www.w3.org/2000/svg">
<path d="M14 18C6.47 18 0.59 9.88384 0.34 9.53221L0 9L0.38 8.46779C0.59 8.11616 6.47 0 14 0C21.53 0 27.41 8.11616 27.66 8.46779L28 9L27.62 9.53221C27.41 9.88384 21.53 18 14 18ZM2.41 9C3.8 10.7297 8.55 16.0993 14 16.0993C19.45 16.0993 24.2 10.7392 25.59 9C24.2 7.27033 19.45 1.90074 14 1.90074C8.55 1.90074 3.8 7.26082 2.41 9Z" fill="#CCCCCC"/>
<path d="M14 4.24757C13.8401 4.23875 13.6799 4.23875 13.52 4.24757C13.4368 4.25455 13.3593 4.29037 13.3021 4.34821C13.2449 4.40605 13.2121 4.48186 13.21 4.56119C13.2102 4.64681 13.2462 4.72885 13.31 4.78928C13.7813 5.2464 14.0467 5.85998 14.05 6.49995C14.05 7.16285 13.7729 7.7986 13.2797 8.26734C12.7865 8.73608 12.1175 8.99942 11.42 8.99942C10.7561 8.99747 10.1186 8.75239 9.64 8.31515C9.59546 8.27008 9.53858 8.23771 9.47575 8.22165C9.41292 8.2056 9.34663 8.20651 9.28431 8.22428C9.222 8.24204 9.16613 8.27597 9.12297 8.32224C9.07981 8.36851 9.05108 8.42529 9.04 8.48622C9.01487 8.65627 9.00151 8.82771 9 8.99942C9 9.93925 9.29325 10.858 9.84265 11.6394C10.3921 12.4208 11.173 13.0299 12.0866 13.3896C13.0002 13.7492 14.0055 13.8433 14.9755 13.66C15.9454 13.4766 16.8363 13.024 17.5355 12.3595C18.2348 11.6949 18.711 10.8482 18.9039 9.92646C19.0969 9.00469 18.9978 8.04925 18.6194 7.18097C18.241 6.31268 17.6001 5.57054 16.7779 5.0484C15.9556 4.52626 14.9889 4.24757 14 4.24757Z" fill="#CCCCCC"/>
</svg>
