<svg width="22" height="36" viewBox="0 0 22 36" fill="none" xmlns="http://www.w3.org/2000/svg">
<path d="M9.3 21.8216V21.4135L8.90017 21.3317C6.9538 20.9337 5.15998 19.9907 3.72708 18.6121C2.29417 17.2335 1.28099 15.4759 0.805338 13.5433C0.329685 11.6107 0.411109 9.58254 1.04014 7.69447C1.66917 5.8064 2.81996 4.13597 4.35872 2.87711C5.89747 1.61826 7.76107 0.822617 9.73304 0.582481C11.705 0.342346 13.7045 0.667554 15.4995 1.52039C17.2944 2.37323 18.8111 3.71874 19.8733 5.40076C20.9354 7.08263 21.4995 9.0319 21.5 11.0222C21.4972 13.4467 20.6599 15.796 19.1295 17.674C17.5992 19.552 15.4693 20.8438 13.0992 21.3318L12.7 21.414V21.8216V26.4497V26.9497H13.2H15.4C15.8506 26.9497 16.2829 27.129 16.6018 27.4484C16.9207 27.7679 17.1 28.2014 17.1 28.6535C17.1 29.1057 16.9207 29.5392 16.6018 29.8587C16.2829 30.1781 15.8506 30.3574 15.4 30.3574H13.2H12.7V30.8574V33.7959C12.7 34.248 12.5207 34.6815 12.2018 35.001C11.8829 35.3204 11.4506 35.4997 11 35.4997C10.5494 35.4997 10.1171 35.3204 9.79823 35.001C9.47932 34.6815 9.3 34.248 9.3 33.7959V30.8574V30.3574H8.8H6.6C6.14942 30.3574 5.71711 30.1781 5.39823 29.8587C5.07932 29.5392 4.9 29.1057 4.9 28.6535C4.9 28.2014 5.07932 27.7679 5.39823 27.4484C5.71711 27.129 6.14942 26.9497 6.6 26.9497H8.8H9.3V26.4497V21.8216ZM3.9 11.0227L3.9 11.0232C3.90209 12.9083 4.65052 14.7157 5.98138 16.0489C7.31226 17.3821 9.11691 18.1322 10.9994 18.1342H11C12.4044 18.1342 13.7773 17.717 14.9449 16.9355C16.1125 16.154 17.0224 15.0432 17.5597 13.7439C18.0969 12.4445 18.2375 11.0148 17.9636 9.63543C17.6897 8.25609 17.0137 6.98896 16.0208 5.99433C15.0279 4.99969 13.7627 4.32224 12.3853 4.04777C11.0079 3.7733 9.58013 3.91418 8.28266 4.45255C6.98521 4.99091 5.87639 5.90254 5.09634 7.07202C4.31629 8.24149 3.9 9.61632 3.9 11.0227Z" fill="#E65C8A"/>
</svg>
