<svg width="80" height="76" viewBox="0 0 80 76" fill="none" xmlns="http://www.w3.org/2000/svg">
<path d="M37.5 17.0208C37.5 19 37.1955 20.872 36.5865 22.6367C35.9776 24.4015 34.9679 25.9271 33.5577 27.2135C32.1474 28.5 30.4647 29.1432 28.5096 29.1432C26.0737 29.1432 23.8622 28.1949 21.875 26.2982C19.8878 24.4015 18.4135 22.1667 17.4519 19.5938C16.4904 17.0208 16.0096 14.5304 16.0096 12.1224C16.0096 10.1432 16.3141 8.27127 16.9231 6.50651C17.5321 4.74175 18.5417 3.21615 19.9519 1.92969C21.3622 0.643229 23.0449 0 25 0C27.4679 0 29.6875 0.948351 31.6587 2.84505C33.6298 4.74175 35.0962 6.96832 36.0577 9.52474C37.0192 12.0812 37.5 14.5799 37.5 17.0208ZM21.0577 40.9193C21.0577 43.5582 20.3846 45.8507 19.0385 47.7969C17.6923 49.7431 15.7853 50.7161 13.3173 50.7161C10.8814 50.7161 8.61378 49.8008 6.51442 47.9701C4.41506 46.1393 2.80449 43.9375 1.68269 41.3646C0.560897 38.7917 0 36.2847 0 33.8438C0 31.2049 0.673077 28.9041 2.01923 26.9414C3.36538 24.9787 5.27244 23.9974 7.74038 23.9974C10.1763 23.9974 12.4439 24.9128 14.5433 26.7435C16.6426 28.5742 18.2532 30.7843 19.375 33.3737C20.4968 35.9631 21.0577 38.4783 21.0577 40.9193ZM40 39.5833C43.7821 39.5833 47.8686 41.1914 52.2596 44.4076C56.6506 47.6237 60.3205 51.5326 63.2692 56.1341C66.2179 60.7357 67.6923 64.9332 67.6923 68.7266C67.6923 70.2439 67.4199 71.5056 66.875 72.5117C66.3301 73.5178 65.5529 74.26 64.5433 74.7383C63.5337 75.2166 62.5 75.5464 61.4423 75.7279C60.3846 75.9093 59.1667 76 57.7885 76C55.609 76 52.6042 75.2578 48.774 73.7734C44.9439 72.2891 42.0192 71.5469 40 71.5469C37.8846 71.5469 34.7997 72.2808 30.7452 73.7487C26.6907 75.2166 23.4776 75.9505 21.1058 75.9505C15.2404 75.9505 12.3077 73.5425 12.3077 68.7266C12.3077 65.8898 13.2051 62.7313 15 59.2513C16.7949 55.7713 19.0304 52.5964 21.7067 49.7266C24.383 46.8568 27.3878 44.4488 30.7212 42.5026C34.0545 40.5564 37.1474 39.5833 40 39.5833ZM51.4904 29.1432C49.5353 29.1432 47.8526 28.5 46.4423 27.2135C45.0321 25.9271 44.0224 24.4015 43.4135 22.6367C42.8045 20.872 42.5 19 42.5 17.0208C42.5 14.5799 42.9808 12.0812 43.9423 9.52474C44.9038 6.96832 46.3702 4.74175 48.3413 2.84505C50.3125 0.948351 52.5321 0 55 0C56.9551 0 58.6378 0.643229 60.0481 1.92969C61.4583 3.21615 62.4679 4.74175 63.0769 6.50651C63.6859 8.27127 63.9904 10.1432 63.9904 12.1224C63.9904 14.5304 63.5096 17.0208 62.5481 19.5938C61.5865 22.1667 60.1122 24.4015 58.125 26.2982C56.1378 28.1949 53.9263 29.1432 51.4904 29.1432ZM72.2596 23.9974C74.7276 23.9974 76.6346 24.9787 77.9808 26.9414C79.3269 28.9041 80 31.2049 80 33.8438C80 36.2847 79.4391 38.7917 78.3173 41.3646C77.1955 43.9375 75.5849 46.1393 73.4856 47.9701C71.3862 49.8008 69.1186 50.7161 66.6827 50.7161C64.2147 50.7161 62.3077 49.7431 60.9615 47.7969C59.6154 45.8507 58.9423 43.5582 58.9423 40.9193C58.9423 38.4783 59.5032 35.9631 60.625 33.3737C61.7468 30.7843 63.3574 28.5742 65.4567 26.7435C67.5561 24.9128 69.8237 23.9974 72.2596 23.9974Z" fill="white"/>
</svg>
