<svg width="60" height="58" viewBox="0 0 60 58" fill="none" xmlns="http://www.w3.org/2000/svg">
<path d="M28.125 12.9896C28.125 14.5 27.8966 15.9286 27.4399 17.2754C26.9832 18.6222 26.226 19.7865 25.1683 20.7682C24.1106 21.75 22.8486 22.2409 21.3822 22.2409C19.5553 22.2409 17.8966 21.5171 16.4062 20.0697C14.9159 18.6222 13.8101 16.9167 13.0889 14.9531C12.3678 12.9896 12.0072 11.089 12.0072 9.2513C12.0072 7.74089 12.2356 6.31228 12.6923 4.96549C13.149 3.61871 13.9062 2.45443 14.9639 1.47266C16.0216 0.490885 17.2837 0 18.75 0C20.601 0 22.2656 0.723741 23.744 2.17122C25.2224 3.61871 26.3221 5.31793 27.0433 7.26888C27.7644 9.21984 28.125 11.1267 28.125 12.9896ZM15.7933 31.2279C15.7933 33.2418 15.2885 34.9913 14.2788 36.4766C13.2692 37.9618 11.8389 38.7044 9.98798 38.7044C8.16106 38.7044 6.46034 38.0059 4.88582 36.6087C3.3113 35.2116 2.10337 33.5312 1.26202 31.5677C0.420673 29.6042 0 27.691 0 25.8281C0 23.8142 0.504808 22.0584 1.51442 20.5605C2.52404 19.0627 3.95433 18.3138 5.80529 18.3138C7.63221 18.3138 9.33293 19.0124 10.9075 20.4095C12.482 21.8066 13.6899 23.4933 14.5312 25.4694C15.3726 27.4455 15.7933 29.365 15.7933 31.2279ZM30 30.2083C32.8365 30.2083 35.9014 31.4355 39.1947 33.89C42.488 36.3444 45.2404 39.3275 47.4519 42.8392C49.6635 46.3509 50.7692 49.5543 50.7692 52.4492C50.7692 53.6072 50.5649 54.5701 50.1562 55.3379C49.7476 56.1057 49.1647 56.6721 48.4075 57.0371C47.6502 57.4021 46.875 57.6539 46.0817 57.7923C45.2885 57.9308 44.375 58 43.3413 58C41.7067 58 39.4531 57.4336 36.5805 56.3008C33.7079 55.168 31.5144 54.6016 30 54.6016C28.4135 54.6016 26.0998 55.1617 23.0589 56.2819C20.018 57.4021 17.6082 57.9622 15.8293 57.9622C11.4303 57.9622 9.23077 56.1246 9.23077 52.4492C9.23077 50.2843 9.90385 47.8739 11.25 45.2181C12.5962 42.5623 14.2728 40.1393 16.28 37.9492C18.2873 35.7591 20.5409 33.9214 23.0409 32.4362C25.5409 30.951 27.8606 30.2083 30 30.2083ZM38.6178 22.2409C37.1514 22.2409 35.8894 21.75 34.8317 20.7682C33.774 19.7865 33.0168 18.6222 32.5601 17.2754C32.1034 15.9286 31.875 14.5 31.875 12.9896C31.875 11.1267 32.2356 9.21984 32.9567 7.26888C33.6779 5.31793 34.7776 3.61871 36.256 2.17122C37.7344 0.723741 39.399 0 41.25 0C42.7163 0 43.9784 0.490885 45.0361 1.47266C46.0938 2.45443 46.851 3.61871 47.3077 4.96549C47.7644 6.31228 47.9928 7.74089 47.9928 9.2513C47.9928 11.089 47.6322 12.9896 46.9111 14.9531C46.1899 16.9167 45.0841 18.6222 43.5938 20.0697C42.1034 21.5171 40.4447 22.2409 38.6178 22.2409ZM54.1947 18.3138C56.0457 18.3138 57.476 19.0627 58.4856 20.5605C59.4952 22.0584 60 23.8142 60 25.8281C60 27.691 59.5793 29.6042 58.738 31.5677C57.8966 33.5312 56.6887 35.2116 55.1142 36.6087C53.5397 38.0059 51.8389 38.7044 50.012 38.7044C48.1611 38.7044 46.7308 37.9618 45.7212 36.4766C44.7115 34.9913 44.2067 33.2418 44.2067 31.2279C44.2067 29.365 44.6274 27.4455 45.4688 25.4694C46.3101 23.4933 47.518 21.8066 49.0925 20.4095C50.6671 19.0124 52.3678 18.3138 54.1947 18.3138Z" fill="#F3E8EA"/>
</svg>
