<svg width="80" height="76" viewBox="0 0 80 76" fill="none" xmlns="http://www.w3.org/2000/svg">
<path fill-rule="evenodd" clip-rule="evenodd" d="M31.86 21.0057C32.2773 19.7965 32.5 18.4785 32.5 17.0208C32.5 15.2483 32.1527 13.3452 31.3778 11.285C30.6788 9.42656 29.6273 7.82926 28.1918 6.44797C27.0422 5.34174 26.0301 5 25 5C24.2583 5 23.7864 5.19965 23.3216 5.62364C22.5145 6.3599 21.9795 7.18135 21.6496 8.13751C21.2323 9.34672 21.0096 10.6647 21.0096 12.1224C21.0096 13.8549 21.3541 15.7525 22.1355 17.8434C22.8328 19.7091 23.8861 21.3057 25.3272 22.6813C26.513 23.813 27.527 24.1432 28.5096 24.1432C29.2513 24.1432 29.7232 23.9436 30.188 23.5196C30.9951 22.7833 31.5301 21.9619 31.86 21.0057ZM37.5 17.0208C37.5 19 37.1955 20.872 36.5865 22.6367C35.9776 24.4015 34.9679 25.9271 33.5577 27.2135C32.1474 28.5 30.4647 29.1432 28.5096 29.1432C26.0737 29.1432 23.8622 28.1949 21.875 26.2982C19.8878 24.4015 18.4135 22.1667 17.4519 19.5938C16.4904 17.0208 16.0096 14.5304 16.0096 12.1224C16.0096 10.1432 16.3141 8.27127 16.9231 6.50651C17.5321 4.74175 18.5417 3.21615 19.9519 1.92969C21.3622 0.643229 23.0449 0 25 0C27.4679 0 29.6875 0.948351 31.6587 2.84505C33.6298 4.74175 35.0962 6.96832 36.0577 9.52474C37.0192 12.0812 37.5 14.5799 37.5 17.0208ZM25.2493 46.3578C24.0281 47.3847 22.8632 48.4906 21.7544 49.6755C21.7385 49.6925 21.7226 49.7095 21.7067 49.7266C20.154 51.3915 18.7497 53.1592 17.4936 55.0296C16.5848 56.383 15.7535 57.7903 15 59.2513C13.2051 62.7313 12.3077 65.8898 12.3077 68.7266C12.3077 73.5425 15.2404 75.9505 21.1058 75.9505C23.4776 75.9505 26.6907 75.2166 30.7452 73.7487C34.7997 72.2808 37.8846 71.5469 40 71.5469C42.0192 71.5469 44.9439 72.2891 48.774 73.7734C52.6042 75.2578 55.609 76 57.7885 76C59.1667 76 60.3846 75.9093 61.4423 75.7279C62.5 75.5464 63.5337 75.2166 64.5433 74.7383C65.5529 74.26 66.3301 73.5178 66.875 72.5117C67.4199 71.5056 67.6923 70.2439 67.6923 68.7266C67.6923 64.9332 66.2179 60.7357 63.2692 56.1341C63.0336 55.7664 62.7934 55.4032 62.5486 55.0443C61.2429 53.1305 59.8062 51.3425 58.2385 49.6804C57.142 48.5177 55.9814 47.4166 54.7568 46.3771C53.952 45.694 53.1197 45.0375 52.2596 44.4076C47.8686 41.1914 43.7821 39.5833 40 39.5833C37.1474 39.5833 34.0545 40.5564 30.7212 42.5026C28.7865 43.6321 26.9626 44.9172 25.2493 46.3578ZM14.4673 50.6402C16.3856 50.377 17.9094 49.4293 19.0385 47.7969C19.1172 47.6831 19.1936 47.5681 19.2677 47.452C20.0102 46.288 20.5218 45.0052 20.8023 43.6035C20.9726 42.7525 21.0577 41.8578 21.0577 40.9193C21.0577 38.4783 20.4968 35.9631 19.375 33.3737C18.2532 30.7843 16.6426 28.5742 14.5433 26.7435C12.4439 24.9128 10.1763 23.9974 7.74038 23.9974C5.27244 23.9974 3.36538 24.9787 2.01923 26.9414C0.673077 28.9041 0 31.2049 0 33.8438C0 36.2847 0.560897 38.7917 1.68269 41.3646C2.80449 43.9375 4.41506 46.1393 6.51442 47.9701C8.61378 49.8008 10.8814 50.7161 13.3173 50.7161C13.7152 50.7161 14.0986 50.6908 14.4673 50.6402ZM65.5525 50.6429C65.9152 50.6917 66.2919 50.7161 66.6827 50.7161C69.1186 50.7161 71.3862 49.8008 73.4856 47.9701C75.5849 46.1393 77.1955 43.9375 78.3173 41.3646C79.4391 38.7917 80 36.2847 80 33.8438C80 31.2049 79.3269 28.9041 77.9808 26.9414C76.6346 24.9787 74.7276 23.9974 72.2596 23.9974C69.8237 23.9974 67.5561 24.9128 65.4567 26.7435C63.3574 28.5742 61.7468 30.7843 60.625 33.3737C59.5032 35.9631 58.9423 38.4783 58.9423 40.9193C58.9423 41.8666 59.029 42.7693 59.2025 43.6273C59.5123 45.1595 60.0986 46.5493 60.9615 47.7969C62.0945 49.4349 63.6249 50.3836 65.5525 50.6429ZM14.9263 44.9525C15.6286 43.9371 16.0577 42.6638 16.0577 40.9193C16.0577 39.2605 15.6791 37.4205 14.787 35.3613C13.9572 33.4457 12.7878 31.8467 11.2571 30.5119C9.92922 29.354 8.79545 28.9974 7.74038 28.9974C6.84819 28.9974 6.51596 29.2251 6.14256 29.7695C5.42895 30.8099 5 32.1 5 33.8438C5 35.5015 5.3781 37.3298 6.266 39.3663C7.09419 41.2658 8.26379 42.8615 9.80063 44.2016C11.1285 45.3596 12.2622 45.7161 13.3173 45.7161C14.2276 45.7161 14.5606 45.4813 14.9263 44.9525ZM49.3052 48.4413C45.4088 45.5874 42.3444 44.5833 40 44.5833C38.2925 44.5833 36.0706 45.1692 33.2422 46.8205C30.3366 48.5169 27.713 50.6172 25.3634 53.1367C22.9988 55.6723 21.0283 58.4711 19.4438 61.5432C17.8828 64.5697 17.3077 66.9317 17.3077 68.7266C17.3077 70.0323 17.6479 70.2587 17.6782 70.2789C17.6791 70.2796 17.6798 70.28 17.6801 70.2802C17.8782 70.4429 18.7306 70.9505 21.1058 70.9505C22.6028 70.9505 25.1637 70.4518 29.0431 69.0473C33.1974 67.5433 36.9683 66.5469 40 66.5469C42.9952 66.5469 46.6453 67.5861 50.5809 69.1113C54.2523 70.5342 56.5558 71 57.7885 71C58.9587 71 59.8841 70.9221 60.597 70.7998C61.1882 70.6984 61.7872 70.5112 62.4026 70.2197C62.4176 70.2126 62.4272 70.2072 62.4322 70.2042C62.433 70.2032 62.4338 70.2021 62.4348 70.2009C62.4415 70.1919 62.4569 70.1702 62.4784 70.1306C62.5191 70.0554 62.6923 69.6737 62.6923 68.7266C62.6923 66.2233 61.708 62.965 59.0594 58.8318C56.4418 54.747 53.1969 51.2917 49.3052 48.4413ZM49.812 23.5196C50.2768 23.9436 50.7487 24.1432 51.4904 24.1432C52.473 24.1432 53.487 23.813 54.6728 22.6813C56.1139 21.3057 57.1672 19.7091 57.8645 17.8434C58.6459 15.7525 58.9904 13.8549 58.9904 12.1224C58.9904 10.6647 58.7677 9.34672 58.3504 8.13751C58.0205 7.18135 57.4855 6.3599 56.6784 5.62364C56.2136 5.19965 55.7417 5 55 5C53.9699 5 52.9578 5.34174 51.8082 6.44797C50.3727 7.82926 49.3212 9.42656 48.6222 11.285C47.8473 13.3452 47.5 15.2483 47.5 17.0208C47.5 18.4785 47.7227 19.7965 48.14 21.0057C48.4699 21.9619 49.0049 22.7833 49.812 23.5196ZM73.8574 29.7695C73.484 29.2251 73.1518 28.9974 72.2596 28.9974C71.2046 28.9974 70.0708 29.354 68.7429 30.5119C67.2122 31.8467 66.0428 33.4457 65.213 35.3613C64.3209 37.4205 63.9423 39.2605 63.9423 40.9193C63.9423 42.6638 64.3714 43.9371 65.0737 44.9525C65.4394 45.4813 65.7724 45.7161 66.6827 45.7161C67.7378 45.7161 68.8715 45.3596 70.1994 44.2016C71.7362 42.8615 72.9058 41.2658 73.734 39.3663C74.6219 37.3298 75 35.5015 75 33.8438C75 32.1 74.5711 30.8099 73.8574 29.7695ZM46.4423 27.2135C47.8526 28.5 49.5353 29.1432 51.4904 29.1432C53.9263 29.1432 56.1378 28.1949 58.125 26.2982C60.1122 24.4015 61.5865 22.1667 62.5481 19.5938C63.5096 17.0208 63.9904 14.5304 63.9904 12.1224C63.9904 10.1432 63.6859 8.27127 63.0769 6.50651C62.4679 4.74175 61.4583 3.21615 60.0481 1.92969C58.6378 0.643229 56.9551 0 55 0C52.5321 0 50.3125 0.948351 48.3413 2.84505C46.3702 4.74175 44.9038 6.96832 43.9423 9.52474C42.9808 12.0812 42.5 14.5799 42.5 17.0208C42.5 19 42.8045 20.872 43.4135 22.6367C44.0224 24.4015 45.0321 25.9271 46.4423 27.2135Z" fill="black"/>
</svg>
