<svg width="50" height="44" viewBox="0 0 50 44" fill="none" xmlns="http://www.w3.org/2000/svg">
<path d="M46.352 4.3223C43.8858 1.53499 40.4646 4.30445e-08 36.7188 4.30445e-08C31.4504 4.30445e-08 28.1149 3.13419 26.2446 5.76352C25.7594 6.4458 25.3466 7.12993 25 7.77369C24.6534 7.12993 24.2407 6.4458 23.7554 5.76352C21.8851 3.13419 18.5496 4.30445e-08 13.2812 4.30445e-08C9.53535 4.30445e-08 6.11416 1.53509 3.64795 4.32239C1.29561 6.9813 0 10.5423 0 14.3495C0 18.4936 1.62432 22.3481 5.11182 26.4796C8.22871 30.1721 12.7128 33.9783 17.9053 38.3857C19.8401 40.0281 21.841 41.7265 23.9712 43.583L24.0352 43.6388C24.3113 43.8797 24.6557 44 25 44C25.3443 44 25.6887 43.8796 25.9648 43.6388L26.0288 43.583C28.159 41.7265 30.1599 40.0282 32.095 38.3855C37.2872 33.9784 41.7713 30.1722 44.8882 26.4796C48.3757 22.348 50 18.4936 50 14.3495C50 10.5423 48.7044 6.9813 46.352 4.3223ZM30.1946 36.1645C28.5267 37.5803 26.8101 39.0373 25 40.6047C23.19 39.0375 21.4733 37.5804 19.8051 36.1643C9.64307 27.5387 2.92969 21.8403 2.92969 14.3495C2.92969 11.2532 3.96533 8.37738 5.8459 6.25184C7.74805 4.10217 10.3886 2.91824 13.2812 2.91824C17.2978 2.91824 19.8941 5.38298 21.3648 7.45065C22.6841 9.30509 23.3725 11.1745 23.6072 11.8921C23.8036 12.4928 24.3658 12.8993 25 12.8993C25.6342 12.8993 26.1964 12.4928 26.3928 11.8921C26.6275 11.1745 27.3159 9.30509 28.6352 7.45055C30.1059 5.38298 32.7022 2.91824 36.7188 2.91824C39.6114 2.91824 42.252 4.10217 44.154 6.25184C46.0347 8.37738 47.0703 11.2532 47.0703 14.3495C47.0703 21.8403 40.3569 27.5387 30.1946 36.1645Z" fill="#955E83"/>
</svg>
