<svg width="80" height="70" viewBox="0 0 80 70" fill="none" xmlns="http://www.w3.org/2000/svg">
<path d="M74.1631 6.87638C70.2173 2.44203 64.7434 6.84798e-08 58.75 6.84798e-08C50.3206 6.84798e-08 44.9839 4.9862 41.9914 9.16923C41.215 10.2547 40.5545 11.3431 40 12.3672C39.4455 11.3431 38.7852 10.2547 38.0086 9.16923C35.0161 4.9862 29.6794 6.84798e-08 21.25 6.84798e-08C15.2566 6.84798e-08 9.78266 2.44219 5.83672 6.87654C2.07297 11.1066 0 16.7719 0 22.8287C0 29.4217 2.59891 35.5539 8.17891 42.1266C13.1659 48.0011 20.3405 54.0564 28.6484 61.0682C31.7442 63.681 34.9456 66.3831 38.3539 69.3366L38.4562 69.4254C38.8981 69.8086 39.4491 70 40 70C40.5509 70 41.1019 69.8084 41.5438 69.4254L41.6461 69.3366C45.0544 66.3831 48.2558 63.6812 51.352 61.0679C59.6595 54.0565 66.8341 48.0013 71.8211 42.1266C77.4011 35.5537 80 29.4217 80 22.8287C80 16.7719 77.927 11.1066 74.1631 6.87638ZM48.3114 57.5345C45.6427 59.7868 42.8961 62.1049 40 64.5984C37.1041 62.1052 34.3573 59.7869 31.6881 57.5342C15.4289 43.8116 4.6875 34.7459 4.6875 22.8287C4.6875 17.9028 6.34453 13.3277 9.35344 9.9461C12.3969 6.52617 16.6217 4.64265 21.25 4.64265C27.6764 4.64265 31.8306 8.56383 34.1838 11.8533C36.2945 14.8035 37.3959 17.7776 37.7716 18.9193C38.0858 19.8749 38.9853 20.5216 40 20.5216C41.0147 20.5216 41.9142 19.8749 42.2284 18.9193C42.6041 17.7776 43.7055 14.8035 45.8162 11.8531C48.1694 8.56383 52.3236 4.64265 58.75 4.64265C63.3783 4.64265 67.6031 6.52617 70.6464 9.9461C73.6555 13.3277 75.3125 17.9028 75.3125 22.8287C75.3125 34.7459 64.5711 43.8116 48.3114 57.5345Z" fill="black"/>
</svg>
