<svg width="30" height="26" viewBox="0 0 30 26" fill="none" xmlns="http://www.w3.org/2000/svg">
<path d="M15 26C30.5837 14.42 29.9971 10.3027 29.9971 7.09135C29.9971 3.88003 27.1863 0 22.4981 0C17.8099 0 15 4.72788 15 4.72788C15 4.72788 12.1902 0 7.50195 0C2.81371 0 0.00287441 3.88003 0.00287441 7.09135C0.00287441 10.3027 -0.583654 14.42 15 26Z" fill="#FF0055"/>
<path d="M15 26C30.5837 14.42 29.9971 10.3027 29.9971 7.09135C29.9971 3.88003 27.1863 0 22.4981 0C17.8099 0 15 4.72788 15 4.72788C15 4.72788 12.1902 0 7.50195 0C2.81371 0 0.00287441 3.88003 0.00287441 7.09135C0.00287441 10.3027 -0.583654 14.42 15 26Z" fill="#955E83"/>
<path d="M15 26C30.5837 14.42 29.9971 10.3027 29.9971 7.09135C29.9971 3.88003 27.1863 0 22.4981 0C17.8099 0 15 4.72788 15 4.72788C15 4.72788 12.1902 0 7.50195 0C2.81371 0 0.00287441 3.88003 0.00287441 7.09135C0.00287441 10.3027 -0.583654 14.42 15 26Z" fill="#CC2944"/>
</svg>
