<svg width="20" height="20" viewBox="0 0 20 20" xmlns="http://www.w3.org/2000/svg">
<circle cx="10" cy="10" r="9" stroke-width="2" fill="transparent"/>
<path d="M8.96392 10.94C8.96392 10.54 9.05192 10.212 9.22792 9.956C9.40392 9.692 9.65992 9.404 9.99592 9.092C10.2279 8.876 10.3999 8.696 10.5119 8.552C10.6239 8.4 10.6799 8.24 10.6799 8.072C10.6799 7.84 10.5799 7.656 10.3799 7.52C10.1879 7.376 9.93592 7.304 9.62392 7.304C9.30392 7.304 9.01192 7.38 8.74792 7.532C8.49192 7.684 8.28392 7.896 8.12392 8.168L6.33592 7.208C6.66392 6.648 7.12792 6.212 7.72792 5.9C8.32792 5.588 9.05192 5.432 9.89992 5.432C10.8519 5.432 11.6159 5.632 12.1919 6.032C12.7759 6.424 13.0679 6.976 13.0679 7.688C13.0679 8.016 13.0119 8.308 12.8999 8.564C12.7879 8.812 12.6519 9.024 12.4919 9.2C12.3399 9.368 12.1399 9.56 11.8919 9.776C11.6199 10.008 11.4199 10.208 11.2919 10.376C11.1639 10.536 11.0999 10.724 11.0999 10.94H8.96392ZM10.0319 14.108C9.63992 14.108 9.31592 13.988 9.05992 13.748C8.80392 13.5 8.67592 13.2 8.67592 12.848C8.67592 12.488 8.79992 12.192 9.04792 11.96C9.30392 11.728 9.63192 11.612 10.0319 11.612C10.4319 11.612 10.7599 11.728 11.0159 11.96C11.2719 12.192 11.3999 12.488 11.3999 12.848C11.3999 13.2 11.2719 13.5 11.0159 13.748C10.7599 13.988 10.4319 14.108 10.0319 14.108Z" />
</svg>
