<svg width="30" height="26" viewBox="0 0 30 26" fill="none" xmlns="http://www.w3.org/2000/svg">
<g id="like_v2" clip-path="url(#clip0)">
<path id="like_1" d="M15.0037 24.7474C30 13 29 10 29 7C29 4 26 1 22.4996 1C18 1 15.0001 6.5 15.0001 6.5C15.0001 6.5 12 1 7.49987 1C4 1 1.00017 4 1.00017 7C1.00017 10 0 13 15.0037 24.7474Z" stroke="black" stroke-width="2"/>
<path id="like_2" d="M15 26C30.5837 14.42 29.9971 10.3027 29.9971 7.09135C29.9971 3.88003 27.1863 0 22.4981 0C17.8099 0 15 4.72788 15 4.72788C15 4.72788 12.1902 0 7.50195 0C2.81371 0 0.00287441 3.88003 0.00287441 7.09135C0.00287441 10.3027 -0.583653 14.42 15 26Z" fill="#CC2944"/>
</g>
<defs>
<clipPath id="clip0">
<rect width="30" height="26" fill="white"/>
</clipPath>
</defs>
</svg>
