<svg width="30" height="26" viewBox="0 0 30 26" fill="none" xmlns="http://www.w3.org/2000/svg">
<path d="M15 25C29.5447 14.3107 28.9973 10.5101 28.9973 7.54586C28.9973 4.58156 26.3738 1 21.9982 1C17.6225 1 15 5.3642 15 5.3642C15 5.3642 12.3775 1 8.00182 1C3.62613 1 1.00268 4.58156 1.00268 7.54586C1.00268 10.5101 0.455257 14.3107 15 25Z"/>
<path fill-rule="evenodd" clip-rule="evenodd" d="M13.7101 3.0628C12.4507 1.70132 10.3143 0 7.50195 0C2.81371 0 0.00287441 3.88003 0.00287441 7.09135C0.00287441 7.20239 0.00217306 7.31452 0.00146324 7.42801C-0.0183539 10.5963 -0.0447741 14.8204 15 26C30.0448 14.8204 30.0184 10.5963 29.9985 7.42801C29.9978 7.31452 29.9971 7.20239 29.9971 7.09135C29.9971 3.88003 27.1863 0 22.4981 0C19.6857 0 17.5493 1.70132 16.2899 3.06281C15.4499 3.97094 15 4.72788 15 4.72788C15 4.72788 14.5501 3.97094 13.7101 3.0628ZM15 23.4988C21.9077 18.254 25.1322 14.767 26.6471 12.3464C27.4258 11.102 27.7397 10.1588 27.8787 9.40818C28.0044 8.72915 28.0017 8.16652 27.9983 7.46065C27.9977 7.34201 27.9971 7.21932 27.9971 7.09135C27.9971 4.86562 25.9664 2 22.4981 2C20.8522 2 19.4399 2.83146 18.3429 3.83776C17.8066 4.32974 17.3879 4.82632 17.1049 5.1989C16.9646 5.38371 16.8606 5.53397 16.7952 5.63238C16.7625 5.68147 16.7397 5.7173 16.7269 5.73767L16.7158 5.75558L16.7149 5.75697L15 8.64258L13.2846 5.75621L13.2731 5.73766C13.2603 5.71729 13.2375 5.68146 13.2048 5.63237C13.1394 5.53396 13.0354 5.3837 12.8951 5.19889C12.6121 4.82631 12.1934 4.32973 11.6571 3.83776C10.5601 2.83146 9.14786 2 7.50195 2C4.03362 2 2.00287 4.86562 2.00287 7.09135C2.00287 7.21931 2.00229 7.342 2.00172 7.46065C1.99834 8.16651 1.99565 8.72915 2.12133 9.40818C2.26026 10.1588 2.57416 11.102 3.35292 12.3464C4.86782 14.767 8.09232 18.254 15 23.4988Z" fill="currentColor" stroke-width="0"/>
</svg>
