<svg width="30" height="30" viewBox="0 0 30 30" fill="none" xmlns="http://www.w3.org/2000/svg">
<path d="M22.677 4.8509L23.5308 3.9973H22.3235H18.7573C18.2936 3.9973 17.8488 3.81307 17.5209 3.48514C17.193 3.1572 17.0088 2.71243 17.0088 2.24865C17.0088 1.78487 17.193 1.34009 17.5209 1.01216C17.8488 0.684225 18.2936 0.5 18.7573 0.5H27.7513C28.2147 0.500342 28.6591 0.684701 28.9868 1.01257C29.3144 1.34047 29.4985 1.78507 29.4985 2.24865V11.2432C29.4985 11.707 29.3143 12.1518 28.9864 12.4797C28.6584 12.8077 28.2137 12.9919 27.75 12.9919C27.2862 12.9919 26.8415 12.8077 26.5136 12.4797C26.1857 12.1518 26.0014 11.707 26.0014 11.2432V7.67764V6.47062L25.1479 7.32406L20.2836 12.1879L19.9948 12.4766L20.22 12.8172C21.6897 15.04 22.2817 17.7293 21.8812 20.3638C21.4807 22.9983 20.1163 25.3902 18.0524 27.0757C15.9886 28.7613 13.3724 29.6204 10.7112 29.4864C8.04997 29.3524 5.53328 28.235 3.64911 26.3507C1.76494 24.4665 0.647555 21.9497 0.513605 19.2883C0.379654 16.6269 1.23869 14.0106 2.92414 11.9466C4.60959 9.88268 7.00136 8.51817 9.6357 8.11766C12.27 7.71715 14.9592 8.30917 17.1819 9.77893L17.5224 10.0041L17.8112 9.71547L22.677 4.8509ZM11.2622 25.9847H11.2628C13.1836 25.9825 15.0252 25.2185 16.3834 23.8602C17.7417 22.5019 18.5057 20.6602 18.5078 18.7393V18.7387C18.5078 17.3056 18.0829 15.9047 17.2867 14.7131C16.4906 13.5215 15.3589 12.5928 14.035 12.0444C12.711 11.4959 11.2542 11.3524 9.84865 11.632C8.44313 11.9116 7.15209 12.6017 6.13877 13.6151C5.12546 14.6285 4.43539 15.9196 4.15581 17.3251C3.87624 18.7307 4.01973 20.1876 4.56813 21.5116C5.11653 22.8357 6.04521 23.9673 7.23675 24.7635C8.42828 25.5597 9.82915 25.9847 11.2622 25.9847Z" fill="#5CA1E6"/>
</svg>
