<svg width="80" height="80" viewBox="0 0 80 80" fill="none" xmlns="http://www.w3.org/2000/svg">
<path d="M74.2547 50.7792H69.1355L73.5689 48.2195C74.8944 47.4542 75.8433 46.215 76.2412 44.7296C76.6392 43.2443 76.437 41.6967 75.6717 40.3713L66.807 25.0169C66.0419 23.6917 64.8024 22.7425 63.3171 22.3444C61.831 21.9461 60.2838 22.1487 58.9586 22.9139L54.5251 25.4736L57.0848 21.0402C57.8501 19.7148 58.0523 18.167 57.6544 16.6819C57.2564 15.1967 56.3075 13.9573 54.9821 13.1922L39.6277 4.32727C36.8843 2.74311 33.3634 3.68668 31.7797 6.43004L31.3917 7.10204C30.8627 8.01802 31.1766 9.18929 32.0924 9.71824C33.0086 10.247 34.1797 9.9333 34.7086 9.01731L35.0966 8.34512C35.6246 7.43086 36.798 7.11602 37.7126 7.64401L53.067 16.5089C53.5063 16.7627 53.8215 17.176 53.9548 17.6729C54.0879 18.1699 54.0217 18.6856 53.7679 19.1249L32.5131 55.9396C32.5024 55.9574 32.4921 55.9756 32.4819 55.9938L31.3917 57.8822C31.2235 58.1733 31.135 58.5037 31.135 58.8398V59.629C31.135 60.3133 31.5001 60.9454 32.0926 61.2875C32.3889 61.4585 32.7194 61.5441 33.0501 61.5441C33.3809 61.5441 33.7114 61.4585 34.0077 61.2875L36.007 60.1332C36.4469 59.8793 36.7679 59.4608 36.8993 58.9704C37.0308 58.4797 36.9619 57.9569 36.7079 57.517L36.3665 56.9257L39.0415 52.2925L40.7204 55.2004C41.0753 55.8147 41.7188 56.1581 42.3808 56.1581C42.7056 56.1581 43.0348 56.0754 43.3364 55.9013L50.6659 51.6697C51.1058 51.4158 51.4267 50.9975 51.5581 50.5069C51.6897 50.0162 51.6207 49.4934 51.3668 49.0537L47.135 41.7243C46.8811 41.2844 46.4628 40.9634 45.9722 40.832C45.8783 40.807 45.7831 40.7914 45.6878 40.7807L50.6952 32.1077L60.8738 26.2309C61.3131 25.9773 61.8285 25.9109 62.3258 26.044C62.823 26.1772 63.2365 26.4925 63.49 26.9318L72.3548 42.2862C72.6083 42.7255 72.6748 43.2412 72.5417 43.7382C72.4086 44.2352 72.0932 44.6486 71.6538 44.9024L34.8409 66.1564C34.8216 66.1671 34.8026 66.178 34.7837 66.1895L32.0926 67.7432C31.5001 68.0852 31.135 68.7174 31.135 69.4017V69.6209C31.135 70.6787 31.9926 71.536 33.0501 71.536H35.7682C36.8257 71.536 37.6833 70.6787 37.6833 69.6209V68.9382L42.3165 66.2632V69.6209C42.3165 70.6787 43.174 71.536 44.2316 71.536H52.6947C53.7522 71.536 54.6098 70.6787 54.6098 69.6209V61.1576C54.6098 60.5249 54.3014 59.9653 53.8284 59.6167L62.5013 54.6096H74.2545C75.3105 54.6096 76.1696 55.4687 76.1696 56.5246V74.2543C76.1696 75.3103 75.3105 76.1694 74.2545 76.1694H32.2483C31.1908 76.1694 30.3332 77.0268 30.3332 78.0845C30.3332 79.1422 31.1908 79.9996 32.2483 79.9996H74.2549C77.4228 79.9996 80.0002 77.4222 80.0002 74.2543V56.5246C80 53.3565 77.4227 50.7792 74.2547 50.7792ZM44.7758 45.298L47.0925 49.3105L43.08 51.627L41.253 48.4625L42.2322 46.7667L44.7758 45.298ZM50.7798 63.0727V67.7059H46.1468V64.0519L47.8426 63.0729L50.7798 63.0727Z" fill="black"/>
<path d="M69.6218 71.5357C70.6793 71.5357 71.5369 70.6783 71.5369 69.6206V61.1573C71.5369 60.0996 70.6793 59.2422 69.6218 59.2422H61.1584C60.1009 59.2422 59.2434 60.0996 59.2434 61.1573V69.6206C59.2434 70.6783 60.1009 71.5357 61.1584 71.5357H69.6218ZM63.0735 63.0726H67.7067V67.7057H63.0735V63.0726Z" fill="black"/>
<path d="M57.9958 47.4395L65.3252 43.2079C65.7651 42.954 66.0861 42.5357 66.2175 42.0451C66.349 41.5545 66.2801 41.0316 66.0261 40.5919L61.7944 33.2625C61.2656 32.3467 60.0944 32.0327 59.1784 32.5616L51.849 36.7934C51.4091 37.0473 51.0881 37.4656 50.9567 37.9562C50.8251 38.4468 50.8941 38.9697 51.148 39.4094L55.3798 46.7388C55.7347 47.3531 56.3781 47.6965 57.0402 47.6965C57.365 47.6965 57.6942 47.6138 57.9958 47.4395ZM55.4225 39.1526L59.435 36.8359L61.7517 40.8484L57.7392 43.1649L55.4225 39.1526Z" fill="black"/>
<path d="M31.3912 40.8755C30.8628 41.7917 31.1773 42.9628 32.0934 43.4914L32.1289 43.5117C32.4303 43.6855 32.7593 43.7681 33.0837 43.7681C33.7456 43.7681 34.3894 43.4247 34.7441 42.8103L38.9759 35.4809C39.2298 35.041 39.2987 34.5184 39.1672 34.0278C39.0356 33.5371 38.7148 33.1189 38.2749 32.8649L34.0079 30.4014C33.0918 29.8726 31.9207 30.1865 31.3919 31.1023C30.863 32.0183 31.1769 33.1895 32.0929 33.7183L34.7014 35.2243L31.6248 40.5532C31.5375 40.6503 31.4592 40.758 31.3912 40.8755Z" fill="black"/>
<path d="M33.2616 24.6195L40.5911 28.8513C40.8927 29.0253 41.2219 29.1081 41.5467 29.1081C42.2085 29.1081 42.8524 28.7647 43.2071 28.1503L47.4388 20.8209C47.6928 20.381 47.7617 19.8584 47.6301 19.3678C47.4986 18.8771 47.1778 18.4589 46.7379 18.2049L39.4083 13.973C38.4921 13.444 37.321 13.7579 36.7923 14.6739L32.5605 22.0033C32.3066 22.4432 32.2376 22.9658 32.3692 23.4565C32.5008 23.9471 32.8217 24.3654 33.2616 24.6195ZM39.1517 18.2476L43.1642 20.5641L40.8475 24.5766L36.835 22.2599L39.1517 18.2476Z" fill="black"/>
<path d="M23.4749 0H5.74525C2.57732 0 0 2.57732 0 5.74526V74.2547C0 77.4227 2.57732 80 5.74525 80H23.4749C26.6429 80 29.2202 77.4227 29.2202 74.2547V5.74526C29.2202 2.57732 26.6429 0 23.4749 0ZM25.39 74.2547C25.39 75.3107 24.5309 76.1698 23.4749 76.1698H5.74525C4.68928 76.1698 3.83017 75.3107 3.83017 74.2547V5.74526C3.83017 4.68928 4.68928 3.83017 5.74525 3.83017H23.4749C24.5309 3.83017 25.39 4.68928 25.39 5.74526V74.2547Z" fill="black"/>
<path d="M14.6102 61.5598C12.4983 61.5598 10.7801 63.278 10.7801 65.3899C10.7801 67.5019 12.4983 69.2201 14.6102 69.2201C16.7222 69.2201 18.4404 67.5019 18.4404 65.3899C18.4404 63.278 16.7222 61.5598 14.6102 61.5598Z" fill="black"/>
</svg>
