<svg width="80" height="80" viewBox="0 0 80 80" fill="none" xmlns="http://www.w3.org/2000/svg">
<path d="M74.2929 50.8H69.1865L73.592 48.2C74.8936 47.4 75.8949 46.2 76.2954 44.7C76.6959 43.2 76.4956 41.7 75.6946 40.3L66.7835 24.9C65.9825 23.6 64.781 22.6 63.2791 22.2C61.7772 21.8 60.2753 22 58.8736 22.8L54.4681 25.4L57.0713 21C57.8723 19.7 58.0726 18.1 57.6721 16.6C57.2716 15.1 56.3705 13.9 54.9687 13.1L39.5494 4.2C36.8461 2.6 33.2416 3.6 31.7397 6.3L31.3392 7L29.1364 11.1V5.7C29.1364 2.5 26.5332 0 23.4293 0H5.70713C2.50313 0 0 2.6 0 5.7V74.2C0 77.1 2.10262 79.5 4.90613 79.9C5.2065 79.9 5.40676 80 5.70713 80H23.4293C23.5294 80 23.7297 80 23.8298 80H32.2403H74.2929C77.4969 80 80 77.4 80 74.3V56.6C80 53.4 77.3968 50.8 74.2929 50.8Z" fill="white"/>
</svg>
