<svg width="20" height="20" viewBox="0 0 20 20" fill="none" xmlns="http://www.w3.org/2000/svg">
<path d="M18.6927 1.30731C18.0042 0.618793 17.1314 0.182402 16.1693 0.0452708C14.7687 -0.153284 13.3874 0.307391 12.3882 1.30731C12.109 1.58657 12.109 2.03867 12.3882 2.31793C12.4032 2.33293 12.4225 2.33793 12.4382 2.35079C12.4511 2.36579 12.4561 2.38507 12.4711 2.40007L14.5309 4.45989L3.89181 15.099L2.25409 13.4613L11.2798 4.43561C11.559 4.15635 11.559 3.70496 11.2798 3.4257C11.0005 3.14644 10.5491 3.14644 10.2698 3.4257L0.740651 12.9549C0.739937 12.9556 0.739223 12.9556 0.738508 12.9563L0.208554 13.4863C0.141417 13.5534 0.0892781 13.6334 0.0535669 13.7198C0.0185699 13.807 0 13.8991 0 13.9912V19.2858C0 19.6807 0.319973 20 0.714225 20H6.00949C6.19876 20 6.38089 19.925 6.51445 19.7907L18.6927 7.61248C20.4304 5.87406 20.4304 3.04573 18.6927 1.30731ZM15.9686 1.46015C16.6214 1.553 17.2142 1.8494 17.6821 2.31722C18.6884 3.32428 18.8291 4.86486 18.1206 6.03048L16.0451 3.95422L13.9624 1.87154C14.5559 1.508 15.258 1.35944 15.9686 1.46015ZM1.42845 18.5716V14.6562L3.38543 16.6131C3.38614 16.6139 3.38614 16.6146 3.38614 16.6146L3.38757 16.6153L5.34383 18.5716H1.42845ZM4.90173 16.1089L15.5401 5.46981L17.1778 7.10753L6.53873 17.7466L4.90173 16.1089Z" fill="black"/>
</svg>
