<svg width="20" height="20" viewBox="0 0 20 20" fill="none" xmlns="http://www.w3.org/2000/svg">
<path fill-rule="evenodd" clip-rule="evenodd" d="M4.09058 0.0247583C5.35743 -0.198056 6.18764 1.13199 6.81949 2.04963C7.43455 2.94089 8.19129 3.98655 7.88587 5.14655C7.71583 5.7974 7.08399 6.15214 6.60643 6.5362C6.13516 6.91538 5.41725 7.26328 5.24302 7.84573C4.95858 8.79073 5.58099 9.78265 5.96618 10.3475C6.84153 11.6238 7.89951 12.774 9.25032 13.8011C9.90421 14.2995 10.8121 14.965 11.7221 14.794C13.0813 14.538 13.4403 12.9773 14.9202 12.7691C16.3287 12.5708 17.2817 13.5216 18.0773 14.1588C18.8435 14.7754 20.0799 15.5651 19.9959 16.6215C19.9466 17.2283 19.4239 17.6046 18.9705 17.9711C18.5097 18.3453 18.1056 18.7656 17.6501 19.0421C16.547 19.7125 15.1941 20.0409 13.6407 19.9959C12.1178 19.952 10.9045 19.4702 9.80345 18.9239C7.65076 17.8548 5.94939 16.3508 4.34668 14.6748C2.77021 13.0271 1.31444 11.0765 0.509408 8.91973C-0.495041 6.22642 0.0360478 3.45981 1.66185 1.73398C1.93684 1.4408 2.37137 1.13492 2.76916 0.820244C3.1659 0.50459 3.53325 0.122484 4.09058 0.0247583Z" fill="black"/>
</svg>
