<svg width="20" height="20" viewBox="0 0 20 20" xmlns="http://www.w3.org/2000/svg">
<path fill-rule="evenodd" clip-rule="evenodd" d="M10 20C15.5228 20 20 15.5228 20 10C20 4.47715 15.5228 0 10 0C4.47715 0 0 4.47715 0 10C0 15.5228 4.47715 20 10 20ZM9.22794 9.95564C9.05194 10.2116 8.96394 10.5396 8.96394 10.9396H11.0999C11.0999 10.7236 11.1639 10.5356 11.2919 10.3756C11.4199 10.2076 11.6199 10.0076 11.8919 9.77564C12.1399 9.55964 12.3399 9.36764 12.4919 9.19964C12.6519 9.02364 12.7879 8.81164 12.8999 8.56364C13.0119 8.30764 13.0679 8.01564 13.0679 7.68764C13.0679 6.97564 12.7759 6.42364 12.1919 6.03164C11.6159 5.63164 10.8519 5.43164 9.89994 5.43164C9.05194 5.43164 8.32794 5.58764 7.72794 5.89964C7.12794 6.21164 6.66394 6.64764 6.33594 7.20764L8.12394 8.16764C8.28394 7.89564 8.49194 7.68364 8.74794 7.53164C9.01194 7.37964 9.30394 7.30364 9.62394 7.30364C9.93594 7.30364 10.1879 7.37564 10.3799 7.51964C10.5799 7.65564 10.6799 7.83964 10.6799 8.07164C10.6799 8.23964 10.6239 8.39964 10.5119 8.55164C10.3999 8.69564 10.2279 8.87564 9.99594 9.09164C9.65994 9.40364 9.40394 9.69164 9.22794 9.95564ZM9.05994 13.7476C9.31594 13.9876 9.63994 14.1076 10.0319 14.1076C10.4319 14.1076 10.7599 13.9876 11.0159 13.7476C11.2719 13.4996 11.3999 13.1996 11.3999 12.8476C11.3999 12.4876 11.2719 12.1916 11.0159 11.9596C10.7599 11.7276 10.4319 11.6116 10.0319 11.6116C9.63194 11.6116 9.30394 11.7276 9.04794 11.9596C8.79994 12.1916 8.67594 12.4876 8.67594 12.8476C8.67594 13.1996 8.80394 13.4996 9.05994 13.7476Z"/>
</svg>
