<svg width="28" height="20" viewBox="0 0 28 20" fill="none" xmlns="http://www.w3.org/2000/svg">
<path d="M13 2.72C10.8753 3.36 9.16989 4.32 7.88387 5.6C6.65376 6.88 6.17849 8.53333 6.45806 10.56C7.07312 11.04 7.93978 11.5467 9.05806 12.08C10.1763 12.56 11.1548 12.9333 11.9935 13.2C12.2172 14.0533 12.2172 14.88 11.9935 15.68C11.7699 16.48 11.4065 17.2 10.9032 17.84C10.4 18.4267 9.8129 18.9333 9.14193 19.36C8.47097 19.7333 7.85591 19.9467 7.29677 20C5.33978 19.84 3.63441 19.1467 2.18064 17.92C0.726882 16.6933 0 14.9333 0 12.64C0 11.3067 0.223656 9.97333 0.670967 8.64C1.17419 7.30667 1.90107 6.08 2.85161 4.96C3.80215 3.78667 5.0043 2.77334 6.45806 1.92C7.91183 1.01334 9.64516 0.373335 11.6581 0L13 2.72Z" fill="#666666"/>
<path d="M13 2.72C10.8753 3.36 9.16989 4.32 7.88387 5.6C6.65376 6.88 6.17849 8.53333 6.45806 10.56C7.07312 11.04 7.93978 11.5467 9.05806 12.08C10.1763 12.56 11.1548 12.9333 11.9935 13.2C12.2172 14.0533 12.2172 14.88 11.9935 15.68C11.7699 16.48 11.4065 17.2 10.9032 17.84C10.4 18.4267 9.8129 18.9333 9.14193 19.36C8.47097 19.7333 7.85591 19.9467 7.29677 20C5.33978 19.84 3.63441 19.1467 2.18064 17.92C0.726882 16.6933 0 14.9333 0 12.64C0 11.3067 0.223656 9.97333 0.670967 8.64C1.17419 7.30667 1.90107 6.08 2.85161 4.96C3.80215 3.78667 5.0043 2.77334 6.45806 1.92C7.91183 1.01334 9.64516 0.373335 11.6581 0L13 2.72Z" fill="#333333"/>
<path d="M28 2.72C25.8753 3.36 24.1699 4.32 22.8839 5.6C21.6538 6.88 21.1785 8.53333 21.4581 10.56C22.0731 11.04 22.9398 11.5467 24.0581 12.08C25.1763 12.56 26.1548 12.9333 26.9935 13.2C27.2172 14.0533 27.2172 14.88 26.9935 15.68C26.7699 16.48 26.4065 17.2 25.9032 17.84C25.4 18.4267 24.8129 18.9333 24.1419 19.36C23.471 19.7333 22.8559 19.9467 22.2968 20C20.3398 19.84 18.6344 19.1467 17.1806 17.92C15.7269 16.6933 15 14.9333 15 12.64C15 11.3067 15.2237 9.97333 15.671 8.64C16.1742 7.30667 16.9011 6.08 17.8516 4.96C18.8021 3.78667 20.0043 2.77334 21.4581 1.92C22.9118 1.01334 24.6452 0.373335 26.6581 0L28 2.72Z" fill="#666666"/>
<path d="M28 2.72C25.8753 3.36 24.1699 4.32 22.8839 5.6C21.6538 6.88 21.1785 8.53333 21.4581 10.56C22.0731 11.04 22.9398 11.5467 24.0581 12.08C25.1763 12.56 26.1548 12.9333 26.9935 13.2C27.2172 14.0533 27.2172 14.88 26.9935 15.68C26.7699 16.48 26.4065 17.2 25.9032 17.84C25.4 18.4267 24.8129 18.9333 24.1419 19.36C23.471 19.7333 22.8559 19.9467 22.2968 20C20.3398 19.84 18.6344 19.1467 17.1806 17.92C15.7269 16.6933 15 14.9333 15 12.64C15 11.3067 15.2237 9.97333 15.671 8.64C16.1742 7.30667 16.9011 6.08 17.8516 4.96C18.8021 3.78667 20.0043 2.77334 21.4581 1.92C22.9118 1.01334 24.6452 0.373335 26.6581 0L28 2.72Z" fill="#333333"/>
</svg>
