<svg width="22" height="22" viewBox="0 0 22 22" fill="none" xmlns="http://www.w3.org/2000/svg">
<path d="M17.3125 21.9996C17.1821 21.9996 17.0508 21.9674 16.933 21.9014L11.0002 18.6219L5.06815 21.9014C4.80495 22.0483 4.48124 22.0294 4.23531 21.8558C3.98939 21.6821 3.86368 21.3836 3.91239 21.0866L5.05323 14.0907L2.56335 11.5733C2.2585 11.2646 2.26085 10.7672 2.56963 10.4624C2.87841 10.1575 3.37576 10.1599 3.68061 10.4687L6.45177 13.2705C6.62855 13.4496 6.70948 13.7018 6.66862 13.9493L5.72343 19.7438L10.6199 17.0371C10.8564 16.9067 11.144 16.9067 11.3805 17.0371L16.2769 19.7438L15.3317 13.9493C15.2917 13.7034 15.371 13.452 15.5447 13.2744L19.5839 9.13454L14.0377 8.28755C13.7792 8.24748 13.5568 8.0817 13.4453 7.84442L11.0002 2.63523L8.55509 7.84442C8.44352 8.0817 8.22116 8.24748 7.96267 8.28755L0.904736 9.36553C0.477315 9.4331 0.0750375 9.13689 0.00903883 8.70712C-0.0561742 8.27812 0.238463 7.87742 0.667455 7.81142L7.31054 6.79708L10.2891 0.451777C10.418 0.175997 10.6953 0 11.0002 0C11.305 0 11.5824 0.175997 11.7112 0.451777L14.6898 6.79708L21.3329 7.81142C21.6236 7.8562 21.8656 8.0597 21.9591 8.33862C22.0526 8.61755 21.9819 8.92633 21.7768 9.13689L16.9471 14.0868L18.0888 21.0866C18.1375 21.3836 18.011 21.6821 17.7658 21.8558C17.6299 21.9509 17.4712 21.9996 17.3125 21.9996Z" fill="black"/>
</svg>
