<svg width="20" height="20" viewBox="0 0 20 20" fill="none" xmlns="http://www.w3.org/2000/svg">
<path d="M14.2479 9.87556C15.1564 8.82593 15.7143 7.4437 15.7143 5.92593C15.7143 2.65852 13.1507 0 10 0C6.84929 0 4.28571 2.65852 4.28571 5.92593C4.28571 9.19333 6.84929 11.8519 10 11.8519C11.1107 11.8519 12.145 11.5163 13.0236 10.9452C16.1307 12.1593 18.27 15.1081 18.5421 18.5185H1.45857C1.64357 16.223 2.68214 14.0822 4.37143 12.5548C4.66929 12.2859 4.7 11.8185 4.44071 11.5096C4.18214 11.2015 3.73071 11.1689 3.43286 11.4378C1.25071 13.4096 0 16.26 0 19.2593C0 19.6689 0.32 20 0.714286 20H19.2857C19.6807 20 20 19.6689 20 19.2593C20 15.1956 17.7286 11.5667 14.2479 9.87556ZM5.71429 5.92593C5.71429 3.47481 7.63643 1.48148 10 1.48148C12.3636 1.48148 14.2857 3.47481 14.2857 5.92593C14.2857 8.37704 12.3636 10.3704 10 10.3704C7.63643 10.3704 5.71429 8.37704 5.71429 5.92593Z" fill="black"/>
</svg>
