<svg width="20" height="18" viewBox="0 0 20 18" fill="none" xmlns="http://www.w3.org/2000/svg">
<path d="M8.1784 1.04487L0.2603 15.0112C-0.501731 16.3554 0.500652 18 2.0819 18H17.9181C19.4993 18 20.5017 16.3554 19.7397 15.0112L11.8216 1.04488C11.0318 -0.34829 8.96825 -0.348292 8.1784 1.04487Z" fill="#EB5757"/>
<circle cx="10" cy="13.9998" r="1" fill="white"/>
<path d="M8.74807 6.47959C8.61898 5.70506 9.21626 5 10.0015 5C10.7867 5 11.384 5.70506 11.2549 6.47959L10.5837 10.5068C10.5362 10.7914 10.29 11 10.0015 11C9.71295 11 9.46671 10.7914 9.41927 10.5068L8.74807 6.47959Z" fill="white"/>
</svg>
